<?xml version="1.0" encoding="UTF-8" standalone="no"?>
<svg
   xmlns:dc="http://purl.org/dc/elements/1.1/"
   xmlns:cc="http://creativecommons.org/ns#"
   xmlns:rdf="http://www.w3.org/1999/02/22-rdf-syntax-ns#"
   xmlns:svg="http://www.w3.org/2000/svg"
   xmlns="http://www.w3.org/2000/svg"
   xmlns:sodipodi="http://sodipodi.sourceforge.net/DTD/sodipodi-0.dtd"
   xmlns:inkscape="http://www.inkscape.org/namespaces/inkscape"
   aria-hidden="true"
   focusable="false"
   data-prefix="fas"
   data-icon="male"
   class="svg-inline--fa fa-male fa-w-6"
   role="img"
   viewBox="0 0 192 512"
   version="1.1"
   id="svg3725"
   sodipodi:docname="male-solid_210.svg"
   inkscape:version="0.92.5 (2060ec1f9f, 2020-04-08)">
  <metadata
     id="metadata3731">
    <rdf:RDF>
      <cc:Work
         rdf:about="">
        <dc:format>image/svg+xml</dc:format>
        <dc:type
           rdf:resource="http://purl.org/dc/dcmitype/StillImage" />
        <dc:title></dc:title>
      </cc:Work>
    </rdf:RDF>
  </metadata>
  <defs
     id="defs3729" />
  <sodipodi:namedview
     pagecolor="#ffffff"
     bordercolor="#666666"
     borderopacity="1"
     objecttolerance="10"
     gridtolerance="10"
     guidetolerance="10"
     inkscape:pageopacity="0"
     inkscape:pageshadow="2"
     inkscape:window-width="1366"
     inkscape:window-height="705"
     id="namedview3727"
     showgrid="false"
     inkscape:zoom="0.74025241"
     inkscape:cx="-275.36991"
     inkscape:cy="322.0301"
     inkscape:window-x="-8"
     inkscape:window-y="-8"
     inkscape:window-maximized="1"
     inkscape:current-layer="svg3725" />
  <path
     fill="currentColor"
     d="M96 0c35.346 0 64 28.654 64 64s-28.654 64-64 64-64-28.654-64-64S60.654 0 96 0m48 144h-11.36c-22.711 10.443-49.59 10.894-73.28 0H48c-26.51 0-48 21.49-48 48v136c0 13.255 10.745 24 24 24h16v136c0 13.255 10.745 24 24 24h64c13.255 0 24-10.745 24-24V352h16c13.255 0 24-10.745 24-24V192c0-26.51-21.49-48-48-48z"
     id="path3723" />
  <rect
     style="fill:#ff0000"
     id="rect3733"
     width="1.0144672"
     height="198.15918"
     x="19.250191"
     y="153.42297"
     rx="0"
     ry="0" />
  <path
     style="fill:#ff0000;stroke-width:0.08443066"
     d="m 0.07578682,199.93823 c 0.03318251,-12.19666 0.02081277,-11.81879 0.492658,-15.04976 1.00394698,-6.87456 3.66674468,-13.7394 7.60895828,-19.61633 0.8316939,-1.23986 2.4358279,-3.34502 3.4525039,-4.53084 1.071695,-1.24999 3.77975,-3.97077 4.971384,-4.99474 0.884676,-0.7602 2.510683,-2.05522 2.5805,-2.05522 0.02027,0 0.03685,12.95588 0.03685,28.79085 v 28.79086 H 9.6317951 0.04494906 Z"
     id="path3735"
     inkscape:connector-curvature="0" />
  <path
     style="fill:#ff0000;stroke-width:0.08443066"
     d="M 0.05288163,238.29086 V 211.27305 H 9.6357616 19.218642 v 27.01781 27.01781 H 9.6357616 0.05288163 Z"
     id="path3737"
     inkscape:connector-curvature="0" />
  <path
     style="fill:#ff0000;stroke-width:0.08443066"
     d="M 0.05288163,282.1948 V 265.30867 H 9.6357616 19.218642 v 16.88613 16.88614 H 9.6357616 0.05288163 Z"
     id="path3739"
     inkscape:connector-curvature="0" />
  <path
     style="fill:#ff0000;stroke-width:0.08443066"
     d="m 0.05288163,312.58984 v -13.5089 H 9.6357616 19.218642 v 13.5089 13.50891 H 9.6357616 0.05288163 Z"
     id="path3741"
     inkscape:connector-curvature="0" />
  <path
     style="fill:#ff0000;stroke-width:0.08443066"
     d="m 18.205474,351.25101 c -1.269094,-0.3265 -2.765706,-0.83833 -3.830769,-1.31008 C 7.6383897,346.95716 2.6086855,341.04265 0.80904221,333.98883 0.29064814,331.95696 0.12863707,330.68347 0.0764882,328.23062 L 0.03116352,326.09875 H 9.6249021 19.218642 v 12.70681 c 0,6.98875 -0.0095,12.70421 -0.02111,12.70103 -0.01161,-0.003 -0.458036,-0.1182 -0.99206,-0.25558 z"
     id="path3743"
     inkscape:connector-curvature="0" />
  <rect
     style="fill:#ff0000"
     id="rect3755"
     width="5.1343284"
     height="6.029851"
     x="14.328359"
     y="209.49254" />
  <rect
     style="fill:#ff0000"
     id="rect3757"
     width="15.701492"
     height="3.522388"
     x="0.059701491"
     y="210.14925" />
  <rect
     style="fill:#ff0000"
     id="rect3759"
     width="0.89552242"
     height="7.1641793"
     x="18.746269"
     y="154.08955" />
  <rect
     style="fill:#ff0000"
     id="rect3761"
     width="0.65671641"
     height="0.77611941"
     x="18.38806"
     y="154.98508" />
  <rect
     style="fill:#ff0000"
     id="rect3763"
     width="0.59701538"
     height="0.89552307"
     x="19.044777"
     y="154.08955" />
  <rect
     style="fill:#ff0000"
     id="rect3765"
     width="1.6716418"
     height="27.343283"
     x="17.97015"
     y="160.47762" />
  <rect
     style="fill:#ff0000"
     id="rect3767"
     width="3.3432834"
     height="22.865673"
     x="16.119404"
     y="186.62686" />
  <rect
     style="fill:#ff0000"
     id="rect3769"
     width="2.6268656"
     height="24.179104"
     x="17.134329"
     y="215.10448" />
  <rect
     style="fill:#ff0000"
     id="rect3771"
     width="3.3432837"
     height="30.626865"
     x="16.298508"
     y="238.74626" />
  <rect
     style="fill:#ff0000"
     id="rect3773"
     width="17.731344"
     height="2.3880596"
     x="0.059701491"
     y="263.88058" />
  <rect
     style="fill:#ff0000"
     id="rect3775"
     width="1.4925373"
     height="24.238806"
     x="18.208956"
     y="268.83582" />
  <rect
     style="fill:#ff0000"
     id="rect3777"
     width="3.4626865"
     height="25.492537"
     x="16.238806"
     y="292.11942" />
  <rect
     style="fill:#ff0000"
     id="rect3779"
     width="17.97015"
     height="2.5671642"
     x="0.17910448"
     y="297.67163" />
  <rect
     style="fill:#ff0000"
     id="rect3781"
     width="2.5671642"
     height="28.716417"
     x="17.014925"
     y="316.17911" />
  <rect
     style="fill:#ff0000"
     id="rect3783"
     width="18.268658"
     height="1.4925373"
     x="0.059701491"
     y="325.43283" />
  <rect
     style="fill:#ff0000"
     id="rect3785"
     width="1.0746269"
     height="6.8059702"
     x="19.190031"
     y="344.77618" />
  <rect
     style="fill:#ff0000"
     id="rect3795"
     width="0.74226987"
     height="4.5970793"
     x="19.522388"
     y="346.98508" />
  <rect
     style="fill:#ff0000"
     id="rect3797"
     width="0.33235741"
     height="6.8059692"
     x="19.190031"
     y="344.77618" />
  <rect
     style="fill:#ff0000"
     id="rect3799"
     width="2.5671642"
     height="5.2537313"
     x="17.074627"
     y="345.49252" />
  <path
     style="fill:none;stroke:#ff0000;stroke-width:0.38344064px;stroke-linecap:butt;stroke-linejoin:miter;stroke-opacity:1"
     d="m 38.412821,36.268521 0.0063,55.527002"
     id="path4614"
     inkscape:connector-curvature="0" />
  <path
     style="fill:#ff0000;stroke:#ff0000;stroke-width:0.04221533;stroke-opacity:1"
     d="m 32.958311,75.002082 c -0.01299,-0.08707 -0.09103,-0.585737 -0.17343,-1.108152 -0.519485,-3.293472 -0.747166,-6.310106 -0.747166,-9.899495 0,-1.949289 0.03773,-3.099025 0.154468,-4.707009 0.501524,-6.908193 2.133668,-13.717544 4.811423,-20.07339 0.215205,-0.510805 0.458609,-1.075963 0.540897,-1.255906 l 0.149614,-0.327169 h 0.255694 0.255694 V 56.395675 75.16039 h -2.611792 -2.611792 z"
     id="path4616"
     inkscape:connector-curvature="0" />
  <path
     style="fill:#ff0000;stroke:#ff0000;stroke-width:0.04221533;stroke-opacity:1"
     d="m 37.847375,90.706185 c -1.751772,-3.786077 -3.213071,-8.052201 -4.160939,-12.147461 -0.216175,-0.933983 -0.673417,-3.168192 -0.673417,-3.290499 0,-0.05864 0.276219,-0.06562 2.596243,-0.06562 h 2.596243 v 8.105344 c 0,4.457938 -0.007,8.105343 -0.01548,8.105343 -0.0085,0 -0.162706,-0.318198 -0.34265,-0.707107 z"
     id="path4618"
     inkscape:connector-curvature="0" />
  <rect
     style="fill:#ff0000;stroke:#ff0000;stroke-opacity:1"
     id="rect4642"
     width="4.4537163"
     height="0.21108246"
     x="33.518974"
     y="74.775826" />
  <path
     style="fill:none;stroke:#fb0000;stroke-width:0.99971169px;stroke-linecap:butt;stroke-linejoin:miter;stroke-opacity:1"
     d="M 38.238806,145.01492 V 352"
     id="path4644"
     inkscape:connector-curvature="0" />
  <path
     style="fill:#ff0000;stroke:#fb0000;stroke-width:0.05970149;stroke-opacity:1"
     d="m 20.284017,163.77865 v -10.35821 h -0.397269 -0.397269 l 0.501746,-0.36486 c 2.855146,-2.07617 6.323056,-4.00454 9.755478,-5.42464 2.063155,-0.85359 4.842234,-1.76568 6.716418,-2.20433 0.279105,-0.0653 0.675373,-0.15821 0.880597,-0.20643 l 0.373135,-0.0877 v 14.50217 14.50217 h -8.716418 -8.716418 z"
     id="path4646"
     inkscape:connector-curvature="0" />
  <path
     style="fill:#ff0000;stroke:#fb0000;stroke-width:0.05970149;stroke-opacity:1"
     d="m 20.284017,186.10701 v -11.91045 h 8.716418 8.716418 v 11.91045 11.91044 h -8.716418 -8.716418 z"
     id="path4648"
     inkscape:connector-curvature="0" />
  <path
     style="fill:#ff0000;stroke:#fb0000;stroke-width:0.05970149;stroke-opacity:1"
     d="m 20.284017,217.15178 v -19.07463 h 8.716418 8.716418 v 19.07463 19.07463 h -8.716418 -8.716418 z"
     id="path4650"
     inkscape:connector-curvature="0" />
  <path
     style="fill:#ff0000;stroke:#fb0000;stroke-width:0.05970149;stroke-opacity:1"
     d="m 20.284017,248.19656 v -11.91045 h 8.716418 8.716418 v 11.91045 11.91045 h -8.716418 -8.716418 z"
     id="path4652"
     inkscape:connector-curvature="0" />
  <path
     style="fill:#ff0000;stroke:#fb0000;stroke-width:0.05970149;stroke-opacity:1"
     d="m 20.284017,274.46521 v -14.2985 h 8.716418 8.716418 v 14.2985 14.29851 h -8.716418 -8.716418 z"
     id="path4654"
     inkscape:connector-curvature="0" />
  <path
     style="fill:#ff0000;stroke:#fb0000;stroke-width:0.05970149;stroke-opacity:1"
     d="m 20.284017,305.50999 v -16.68657 h 8.716418 8.716418 v 16.68657 16.68657 h -8.716418 -8.716418 z"
     id="path4656"
     inkscape:connector-curvature="0" />
  <path
     style="fill:#ff0000;stroke:#fb0000;stroke-width:0.05970149;stroke-opacity:1"
     d="m 22.492972,351.92285 c -0.757382,-0.0479 -2.277914,-0.2239 -2.323383,-0.26886 -0.01368,-0.0135 0.0065,-0.0246 0.04478,-0.0246 0.05288,0 0.06965,-3.5366 0.06965,-14.68656 v -14.68657 h 8.716418 8.716418 v 14.86567 14.86567 l -7.238806,-0.009 c -3.981344,-0.005 -7.574627,-0.03 -7.985075,-0.056 z"
     id="path4658"
     inkscape:connector-curvature="0" />
  <rect
     style="fill:#ff0000;stroke:#fb0000;stroke-opacity:1"
     id="rect4660"
     width="19.522388"
     height="22.447754"
     x="18.38806"
     y="155.7612" />
  <rect
     style="fill:#ff0000;stroke:#fb0000;stroke-opacity:1"
     id="rect4666"
     width="1.0746269"
     height="11.283582"
     x="36.656715"
     y="146.02985" />
  <rect
     style="fill:#ff0000;stroke:#fb0000;stroke-opacity:1"
     id="rect4668"
     width="18.865665"
     height="170.98506"
     x="19.164179"
     y="177.85074" />
  <rect
     style="fill:#ff0000;stroke:#fb0000;stroke-opacity:1"
     id="rect4670"
     width="5.8507419"
     height="2.5074677"
     x="32.179104"
     y="348.83582" />
  <path
     style="fill:#ff0000;stroke:#fb0000;stroke-width:0.02110766;stroke-opacity:1"
     d="m 37.738378,37.504111 c 0.05181,-0.119231 0.271642,-0.593593 0.379042,-0.817922 l 0.0859,-0.179415 5.81e-4,0.543522 5.8e-4,0.543523 h -0.252542 -0.252541 z"
     id="path4672"
     inkscape:connector-curvature="0" />
</svg>
