<?xml version="1.0" encoding="UTF-8" standalone="no"?>
<svg
   xmlns:dc="http://purl.org/dc/elements/1.1/"
   xmlns:cc="http://creativecommons.org/ns#"
   xmlns:rdf="http://www.w3.org/1999/02/22-rdf-syntax-ns#"
   xmlns:svg="http://www.w3.org/2000/svg"
   xmlns="http://www.w3.org/2000/svg"
   xmlns:sodipodi="http://sodipodi.sourceforge.net/DTD/sodipodi-0.dtd"
   xmlns:inkscape="http://www.inkscape.org/namespaces/inkscape"
   aria-hidden="true"
   focusable="false"
   data-prefix="fas"
   data-icon="male"
   class="svg-inline--fa fa-male fa-w-6"
   role="img"
   viewBox="0 0 192 512"
   version="1.1"
   id="svg3725"
   sodipodi:docname="male-solid_910.svg"
   inkscape:version="0.92.5 (2060ec1f9f, 2020-04-08)">
  <metadata
     id="metadata3731">
    <rdf:RDF>
      <cc:Work
         rdf:about="">
        <dc:format>image/svg+xml</dc:format>
        <dc:type
           rdf:resource="http://purl.org/dc/dcmitype/StillImage" />
        <dc:title></dc:title>
      </cc:Work>
    </rdf:RDF>
  </metadata>
  <defs
     id="defs3729" />
  <sodipodi:namedview
     pagecolor="#ffffff"
     bordercolor="#666666"
     borderopacity="1"
     objecttolerance="10"
     gridtolerance="10"
     guidetolerance="10"
     inkscape:pageopacity="0"
     inkscape:pageshadow="2"
     inkscape:window-width="1366"
     inkscape:window-height="705"
     id="namedview3727"
     showgrid="false"
     inkscape:zoom="0.74025241"
     inkscape:cx="240.36986"
     inkscape:cy="316.60142"
     inkscape:window-x="-8"
     inkscape:window-y="-8"
     inkscape:window-maximized="1"
     inkscape:current-layer="svg3725" />
  <path
     d="M 96,0 C 60.654,0 32,28.654 32,64 c 0,35.346 28.654,64 64,64 35.346,0 64,-28.654 64,-64 C 160,28.654 131.346,0 96,0 M 48,144 h 11.36 c 22.711,10.443 49.59,10.894 73.28,0 H 144 c 26.51,0 48,21.49 48,48 v 136 c 0,13.255 -10.745,24 -24,24 h -16 v 136 c 0,13.255 -10.745,24 -24,24 H 64 C 50.745,512 40,501.255 40,488 V 352 H 24 C 10.745,352 0,341.255 0,328 V 192 c 0,-26.51 21.49,-48 48,-48 z"
     id="path3723"
     inkscape:connector-curvature="0"
     style="fill:currentColor" />
  <rect
     style="fill:#ff0000"
     id="rect3733"
     width="1.0144672"
     height="198.15918"
     x="-172.74982"
     y="153.42297"
     rx="0"
     ry="0"
     transform="scale(-1,1)" />
  <path
     style="fill:#ff0000;stroke-width:0.08443066"
     d="m 191.92421,199.93823 c -0.0332,-12.19666 -0.0208,-11.81879 -0.49265,-15.04976 -1.00395,-6.87456 -3.66675,-13.7394 -7.60896,-19.61633 -0.8317,-1.23986 -2.43583,-3.34502 -3.45251,-4.53084 -1.07169,-1.24999 -3.77975,-3.97077 -4.97138,-4.99474 -0.88468,-0.7602 -2.51068,-2.05522 -2.5805,-2.05522 -0.0203,0 -0.0368,12.95588 -0.0368,28.79085 v 28.79086 h 9.58684 9.58685 z"
     id="path3735"
     inkscape:connector-curvature="0" />
  <path
     style="fill:#ff0000;stroke-width:0.08443066"
     d="m 191.94712,238.29086 v -27.01781 h -9.58288 -9.58288 v 27.01781 27.01781 h 9.58288 9.58288 z"
     id="path3737"
     inkscape:connector-curvature="0" />
  <path
     style="fill:#ff0000;stroke-width:0.08443066"
     d="m 191.94712,282.1948 v -16.88613 h -9.58288 -9.58288 v 16.88613 16.88614 h 9.58288 9.58288 z"
     id="path3739"
     inkscape:connector-curvature="0" />
  <path
     style="fill:#ff0000;stroke-width:0.08443066"
     d="m 191.94712,312.58984 v -13.5089 h -9.58288 -9.58288 v 13.5089 13.50891 h 9.58288 9.58288 z"
     id="path3741"
     inkscape:connector-curvature="0" />
  <path
     style="fill:#ff0000;stroke-width:0.08443066"
     d="m 173.79453,351.25101 c 1.26909,-0.3265 2.7657,-0.83833 3.83076,-1.31008 6.73632,-2.98377 11.76602,-8.89828 13.56567,-15.9521 0.51839,-2.03187 0.6804,-3.30536 0.73255,-5.75821 l 0.0453,-2.13187 h -9.59374 -9.59374 v 12.70681 c 0,6.98875 0.01,12.70421 0.0211,12.70103 0.0116,-0.003 0.45803,-0.1182 0.99206,-0.25558 z"
     id="path3743"
     inkscape:connector-curvature="0" />
  <rect
     style="fill:#ff0000"
     id="rect3755"
     width="5.1343284"
     height="6.029851"
     x="-177.67165"
     y="209.49254"
     transform="scale(-1,1)" />
  <rect
     style="fill:#ff0000"
     id="rect3757"
     width="15.701492"
     height="3.522388"
     x="-191.94029"
     y="210.14925"
     transform="scale(-1,1)" />
  <rect
     style="fill:#ff0000"
     id="rect3759"
     width="0.89552242"
     height="7.1641793"
     x="-173.25372"
     y="154.08955"
     transform="scale(-1,1)" />
  <rect
     style="fill:#ff0000"
     id="rect3761"
     width="0.65671641"
     height="0.77611941"
     x="-173.61194"
     y="154.98508"
     transform="scale(-1,1)" />
  <rect
     style="fill:#ff0000"
     id="rect3763"
     width="0.59701538"
     height="0.89552307"
     x="-172.95523"
     y="154.08955"
     transform="scale(-1,1)" />
  <rect
     style="fill:#ff0000"
     id="rect3765"
     width="1.6716418"
     height="27.343283"
     x="-174.02985"
     y="160.47762"
     transform="scale(-1,1)" />
  <rect
     style="fill:#ff0000"
     id="rect3767"
     width="3.3432834"
     height="22.865673"
     x="-175.8806"
     y="186.62686"
     transform="scale(-1,1)" />
  <rect
     style="fill:#ff0000"
     id="rect3769"
     width="2.6268656"
     height="24.179104"
     x="-174.86568"
     y="215.10448"
     transform="scale(-1,1)" />
  <rect
     style="fill:#ff0000"
     id="rect3771"
     width="3.3432837"
     height="30.626865"
     x="-175.70149"
     y="238.74626"
     transform="scale(-1,1)" />
  <rect
     style="fill:#ff0000"
     id="rect3773"
     width="17.731344"
     height="2.3880596"
     x="-191.94029"
     y="263.88058"
     transform="scale(-1,1)" />
  <rect
     style="fill:#ff0000"
     id="rect3775"
     width="1.4925373"
     height="24.238806"
     x="-173.79105"
     y="268.83582"
     transform="scale(-1,1)" />
  <rect
     style="fill:#ff0000"
     id="rect3777"
     width="3.4626865"
     height="25.492537"
     x="-175.7612"
     y="292.11942"
     transform="scale(-1,1)" />
  <rect
     style="fill:#ff0000"
     id="rect3779"
     width="17.97015"
     height="2.5671642"
     x="-191.82089"
     y="297.67163"
     transform="scale(-1,1)" />
  <rect
     style="fill:#ff0000"
     id="rect3781"
     width="2.5671642"
     height="28.716417"
     x="-174.98508"
     y="316.17911"
     transform="scale(-1,1)" />
  <rect
     style="fill:#ff0000"
     id="rect3783"
     width="18.268658"
     height="1.4925373"
     x="-191.94029"
     y="325.43283"
     transform="scale(-1,1)" />
  <rect
     style="fill:#ff0000"
     id="rect3785"
     width="1.0746269"
     height="6.8059702"
     x="-172.80997"
     y="344.77618"
     transform="scale(-1,1)" />
  <rect
     style="fill:#ff0000"
     id="rect3795"
     width="0.74226987"
     height="4.5970793"
     x="-172.47762"
     y="346.98508"
     transform="scale(-1,1)" />
  <rect
     style="fill:#ff0000"
     id="rect3797"
     width="0.33235741"
     height="6.8059692"
     x="-172.80997"
     y="344.77618"
     transform="scale(-1,1)" />
  <rect
     style="fill:#ff0000"
     id="rect3799"
     width="2.5671642"
     height="5.2537313"
     x="-174.92537"
     y="345.49252"
     transform="scale(-1,1)" />
  <path
     style="fill:#ff0000;stroke:#000000;stroke-width:0.1;stroke-opacity:1;stroke-miterlimit:4;stroke-dasharray:none"
     d="m 56.480865,510.24534 c -5.30571,-1.92528 -9.889703,-5.79628 -12.872285,-10.87013 l -2.648163,-4.50494 -0.477612,-71.64179 -0.477612,-71.64179 -11.940299,-0.49127 C 14.974456,350.55683 12.566587,349.76114 7.3957151,344.2652 0.38995947,336.81903 0.87061714,342.68424 0.57929325,261.08807 0.29078507,180.28054 0.26517523,180.69853 6.1852366,169.59136 11.878574,158.90956 24.118817,149.28779 36.058582,146.1086 c 2.696009,-0.71786 9.068423,-1.31031 14.160918,-1.31655 7.705747,-0.009 10.670405,0.45801 17.671642,2.78629 19.773684,6.57581 43.026098,6.06268 60.744398,-1.3405 4.63356,-1.93602 20.4147,-1.93564 27.8487,6.7e-4 3.07826,0.80179 7.68157,2.62865 10.22957,4.0597 l 4.63273,2.60191 9.5e-4,99.07106 9.6e-4,99.07106 -9.79105,0.27223 -9.79104,0.27222 -0.47761,71.64179 c -0.34786,52.17881 -0.78462,72.3266 -1.60766,74.16254 -1.79367,4.00108 -6.94586,9.35004 -11.19743,11.62507 -3.81086,2.03923 -4.86824,2.09859 -41.165063,2.31139 -29.471666,0.17278 -38.002412,-0.0533 -40.837761,-1.08214 z"
     id="path7206"
     inkscape:connector-curvature="0" />
  <path
     style="fill:#ff0000;stroke:#ff0000;stroke-width:0.09552239;stroke-miterlimit:4;stroke-dasharray:none;stroke-opacity:1"
     d="M 92.043414,127.32383 C 75.077672,125.92513 61.297669,119.31954 49.701134,107.0266 42.855521,99.769891 36.728991,88.589428 34.261863,78.851071 c -1.851661,-7.308959 -1.851661,-22.379209 0,-29.688169 6.49434,-25.63475 28.700286,-45.2552748 54.492208,-48.1477209 19.547389,-2.1921508 38.017119,4.2747734 51.922199,18.1798479 24.97382,24.973824 25.10462,64.356344 0.29672,89.344591 -12.8369,12.93023 -31.7704,20.19886 -48.929576,18.78421 z"
     id="path7208"
     inkscape:connector-curvature="0" />
  <path
     style="fill:#000000;stroke:#000000;stroke-width:0.04776119;stroke-miterlimit:4;stroke-dasharray:none;stroke-opacity:1"
     d="m 171.6913,252.59606 c 0,-61.06843 0.17122,-99.13667 0.44588,-99.13667 0.24523,0 2.29228,1.74778 4.549,3.88395 6.64982,6.29461 11.07382,13.76181 13.77829,23.25614 l 1.04423,3.66588 0.13154,73.06829 c 0.0928,51.57458 -0.0223,73.80951 -0.39157,75.58809 -1.2036,5.79773 -5.80278,12.30718 -10.73965,15.20038 -1.9551,1.14576 -5.02305,2.44563 -7.74309,3.28068 l -1.07463,0.32992 z"
     id="path7210"
     inkscape:connector-curvature="0" />
  <path
     style="fill:#000000;stroke:#000000;stroke-width:0.00422153;stroke-miterlimit:4;stroke-dasharray:none;stroke-opacity:1"
     d="m 191.59858,321.56467 c 0.0475,-2.84034 0.10748,-17.89199 0.10808,-27.12335 l 5.7e-4,-8.70691 h 0.10554 0.10554 v 6.6665 c 0,5.29371 -0.0109,6.67089 -0.0528,6.6878 -0.0422,0.017 -0.0422,0.022 0,0.0246 0.0421,0.003 0.0528,2.44797 0.0528,12.07691 v 12.07359 h -0.17408 -0.17407 z"
     id="path7212"
     inkscape:connector-curvature="0" />
  <path
     style="fill:#000000;stroke:#000000;stroke-width:0.00422153;stroke-miterlimit:4;stroke-dasharray:none;stroke-opacity:1"
     d="m 191.70719,274.34682 c -3e-5,-6.26317 -0.0126,-12.34218 -0.028,-13.5089 l -0.028,-2.12132 h 0.13354 0.13355 v 13.5089 13.50891 h -0.10554 -0.10554 z"
     id="path7214"
     inkscape:connector-curvature="0" />
  <path
     style="fill:#000000;stroke:#000000;stroke-width:0.0119403;stroke-miterlimit:4;stroke-dasharray:none;stroke-opacity:1"
     d="m 191.69002,240.61064 c -0.103,-20.33008 -0.0698,-53.98406 0.0517,-52.44791 0.0883,1.11653 0.15488,67.99253 0.0678,68.07966 -0.022,0.022 -0.0758,-7.01226 -0.11945,-15.63175 z"
     id="path7216"
     inkscape:connector-curvature="0" />
  <path
     style="fill:#000000;stroke:#000000;stroke-width:0.0119403;stroke-miterlimit:4;stroke-dasharray:none;stroke-opacity:1"
     d="m 191.53888,193.89407 c -0.004,-5.78585 0.0204,-7.34727 0.0837,-5.43283 0.0489,1.47761 0.1444,2.92835 0.21231,3.22388 0.14,0.60925 0.1546,5.94455 0.0207,7.58209 -0.0858,1.0501 -0.0889,1.03102 -0.13322,-0.83582 l -0.0454,-1.91045 -0.0665,2.74627 c -0.0366,1.51301 -0.0688,-0.89989 -0.0716,-5.37314 z"
     id="path7218"
     inkscape:connector-curvature="0" />
  <path
     style="fill:#000000;stroke:#000000;stroke-width:0.00298507;stroke-miterlimit:4;stroke-dasharray:none;stroke-opacity:1"
     d="m 191.94675,207.7642 c 1e-5,-0.70597 0.004,-0.99051 0.009,-0.63231 0.005,0.3582 0.005,0.93581 -2e-5,1.28358 -0.005,0.34777 -0.009,0.0547 -0.009,-0.65127 z"
     id="path7222"
     inkscape:connector-curvature="0" />
  <path
     style="fill:#000000;stroke:#000000;stroke-width:0.003;stroke-miterlimit:4;stroke-dasharray:none;stroke-opacity:1"
     d="m 191.86216,222.42838 c -0.0345,-2.16727 -0.0381,-22.57631 -0.004,-23.00746 0.0276,-0.34937 0.0347,-0.11304 0.0534,1.77612 0.0311,3.14472 0.027,22.37313 -0.005,22.37313 -0.0145,0 -0.0345,-0.5138 -0.0445,-1.14179 z"
     id="path7224"
     inkscape:connector-curvature="0" />
  <path
     style="fill:#000000;stroke:#000000;stroke-width:0.00008955;stroke-miterlimit:4;stroke-dasharray:none;stroke-opacity:1"
     d="m 191.57707,204.71694 c 0.001,-2.72401 0.0131,-5.01319 0.0264,-5.08707 0.0133,-0.0739 0.0171,2.14926 0.009,4.9403 -0.009,2.79105 -0.0204,5.08023 -0.0264,5.08707 -0.006,0.007 -0.01,-2.2163 -0.009,-4.9403 z"
     id="path7226"
     inkscape:connector-curvature="0" />
  <path
     style="fill:#000000;stroke:#000000;stroke-width:0.00008955;stroke-miterlimit:4;stroke-dasharray:none;stroke-opacity:1"
     d="m 171.3062,210.30151 v -13.26865 h 10.34328 10.34328 l -0.007,13.27612 c -0.007,12.12939 -0.009,12.59801 -0.0225,5.42537 -0.0132,-6.87095 -0.016,-7.24504 -0.0225,-2.99748 -0.004,2.6693 -0.0174,6.10811 -0.0298,7.6418 -0.0191,2.38419 -0.0246,2.61972 -0.0378,1.62434 l -0.0154,-1.16418 -0.007,1.36567 -0.007,1.36567 h -0.10448 -0.10447 l -0.006,-12.4403 c -0.004,-6.84216 -0.0138,-12.21194 -0.023,-11.93283 l -0.0166,0.50746 -0.0154,-0.35821 c -0.008,-0.19701 -0.0153,0.8306 -0.0152,2.28358 9e-5,1.45299 0.007,2.35299 0.016,2 0.009,-0.35298 0.0158,3.98918 0.0158,9.64926 v 10.29104 h -10.14179 -10.14179 z m 20.55958,-10.34328 c 0.0124,-0.0246 0.0293,1.12388 0.0377,2.55224 l 0.0152,2.59702 0.003,-3.52239 c 0.003,-3.19806 -4.9e-4,-3.46467 -0.0363,-2.89553 -0.0217,0.34478 -0.0501,0.78135 -0.0631,0.97015 -0.013,0.18881 -0.0169,3.33881 -0.009,7 l 0.0149,6.65672 0.007,-6.65672 c 0.004,-3.66119 0.0175,-6.67686 0.0299,-6.70149 z m 0.0896,6.00746 c -0.005,-0.25858 -0.009,-0.047 -0.009,0.47015 0,0.51717 0.004,0.72873 0.009,0.47015 0.005,-0.25858 0.005,-0.68171 0,-0.9403 z m -0.30026,-7.49253 c -0.008,-0.0287 -0.0137,-0.005 -0.0137,0.0522 0,0.0575 0.006,0.081 0.0137,0.0522 0.008,-0.0287 0.008,-0.0757 0,-0.10447 z"
     id="path7228"
     inkscape:connector-curvature="0" />
  <path
     style="fill:#000000;stroke:#000000;stroke-width:0.00008955;stroke-miterlimit:4;stroke-dasharray:none;stroke-opacity:1"
     d="m 171.3062,210.30151 v -13.26865 h 10.34328 10.34328 l -0.007,13.27612 c -0.006,10.33648 -0.0107,11.86165 -0.0225,6.88806 -0.0139,-5.85744 -0.0157,-6.04588 -0.0225,-2.26866 -0.009,4.84781 -0.0432,8.64017 -0.0678,7.44776 l -0.0157,-0.76119 -0.007,0.97761 -0.007,0.97761 h -0.10448 -0.10447 l -0.003,-12.00746 c -0.002,-10.62105 -0.008,-11.99023 -0.0466,-11.85821 -0.0376,0.12759 -0.0409,0.40483 -0.0234,1.91045 0.0113,0.96865 0.0226,6.30485 0.0251,11.85821 l 0.005,10.09701 h -10.1425 -10.14271 z m 20.56699,-10.31343 c 0.0189,0 0.0324,0.53329 0.0375,1.48508 0.005,1.00837 0.009,0.76642 0.0116,-0.75373 0.002,-1.23135 -0.007,-2.16493 -0.0199,-2.07463 -0.0766,0.53479 -0.0884,1.30604 -0.0814,5.29851 l 0.007,4.1791 0.008,-4.06716 c 0.005,-2.65091 0.0179,-4.06717 0.0371,-4.06717 z"
     id="path7230"
     inkscape:connector-curvature="0" />
  <path
     style="fill:#000000;stroke:#000000;stroke-width:0.00008955;stroke-miterlimit:4;stroke-dasharray:none;stroke-opacity:1"
     d="m 171.3062,210.30151 v -13.26865 h 10.34328 10.34328 l -0.007,13.27612 c -0.005,8.31561 -0.013,11.4581 -0.0225,8.41045 -0.0117,-3.73172 -0.0169,-4.2355 -0.0225,-2.16164 -0.009,3.44765 -0.0462,6.68133 -0.0681,5.96761 -0.0156,-0.5108 -0.0161,-0.505 -0.0224,0.26119 l -0.006,0.78358 h -0.10448 -0.10447 l -3e-5,-10.78358 c -6e-5,-10.47644 -0.0145,-13.26883 -0.0667,-12.91791 -0.0135,0.0903 -0.0162,0.66791 -0.006,1.28358 0.01,0.61567 0.0223,5.91157 0.0272,11.76866 l 0.009,10.64925 H 181.45197 171.3062 Z m 20.64725,3.29292 c -0.01,-0.0238 -0.0166,-0.0167 -0.018,0.018 -0.001,0.0315 0.006,0.0491 0.0157,0.0392 0.01,-0.01 0.011,-0.0357 0.002,-0.0572 z m -0.0805,-13.5765 c 0.0178,0 0.0325,0.2531 0.0378,0.64926 0.005,0.41029 0.0112,0.23055 0.0155,-0.48837 0.004,-0.6257 -0.003,-1.20331 -0.0155,-1.28359 l -0.0224,-0.14595 -0.0236,0.2388 c -0.013,0.13135 -0.0269,1.7097 -0.031,3.50746 -0.004,1.79777 -0.004,1.97575 0.001,0.39553 0.006,-1.84145 0.0192,-2.87314 0.0379,-2.87314 z"
     id="path7232"
     inkscape:connector-curvature="0" />
  <path
     style="fill:#000000;stroke:#000000;stroke-width:0.00008955;stroke-miterlimit:4;stroke-dasharray:none;stroke-opacity:1"
     d="m 171.3062,210.30151 v -13.26865 h 10.34328 10.34328 l -0.007,13.27612 c -0.004,7.30186 -0.0142,11.57686 -0.0226,9.5 -0.01,-2.47738 -0.0178,-3.12844 -0.0226,-1.89298 -0.01,2.54154 -0.0481,5.21498 -0.0685,4.7885 -0.0142,-0.29597 -0.0172,-0.25997 -0.0224,0.26119 l -0.006,0.60448 h -0.10448 -0.10447 l -0.004,-10.24627 c -0.002,-5.63544 -0.0127,-10.97164 -0.0232,-11.85821 -0.0105,-0.88656 -0.0145,3.72426 -0.009,10.24627 l 0.0101,11.85821 H 181.45727 171.3062 Z m 20.6075,-11.0597 -0.0234,-0.43283 -0.0202,0.26865 c -0.0321,0.42657 -0.0303,0.9403 0.003,0.9403 0.0173,0 0.0326,0.11634 0.0365,0.27612 0.005,0.18999 0.01,0.13644 0.017,-0.17164 0.006,-0.24627 -1.7e-4,-0.64254 -0.0131,-0.8806 z"
     id="path7234"
     inkscape:connector-curvature="0" />
  <path
     style="fill:#000000;stroke:#000000;stroke-width:0.00008955;stroke-miterlimit:4;stroke-dasharray:none;stroke-opacity:1"
     d="m 171.3062,210.30151 v -13.26865 h 10.34328 10.34328 l -0.007,13.27612 c -0.004,7.30186 -0.0142,11.95298 -0.0226,10.33582 -0.008,-1.61717 -0.0186,-2.37612 -0.0226,-1.68657 -0.0112,1.93804 -0.0501,4.11443 -0.069,3.86567 -0.0125,-0.16488 -0.0184,-0.0961 -0.0224,0.2612 l -0.005,0.48507 h -0.10443 -0.10443 l -0.008,-9.27612 -0.008,-9.27612 -0.007,9.27612 -0.007,9.27612 H 181.45545 171.3062 Z m 20.60359,-10.91044 -0.024,-0.52239 -0.0247,0.49821 c -0.0173,0.34985 -0.0148,0.52674 0.009,0.59401 0.0184,0.0527 0.0359,0.13744 0.039,0.18835 0.003,0.0509 0.01,0.0187 0.0153,-0.0716 0.005,-0.0903 -10e-4,-0.39925 -0.0143,-0.68656 z"
     id="path7236"
     inkscape:connector-curvature="0" />
  <path
     style="fill:#000000;stroke:#000000;stroke-width:0.00008955;stroke-miterlimit:4;stroke-dasharray:none;stroke-opacity:1"
     d="m 171.3062,210.30151 v -13.26865 h 10.34328 10.34328 l -0.007,13.27612 c -0.004,7.30186 -0.0142,12.22164 -0.0227,10.93283 -0.009,-1.2888 -0.0187,-1.97944 -0.0227,-1.53474 -0.0145,1.62674 -0.0515,3.33722 -0.0694,3.20639 -0.0113,-0.0827 -0.0201,0.0178 -0.0229,0.26119 l -0.004,0.39552 h -0.1044 -0.10441 l -0.008,-5.97761 -0.008,-5.97761 -0.007,5.97761 -0.007,5.97761 h -10.1498 -10.14925 z m 20.59255,-10.84328 -0.004,-0.52985 -0.025,0.35821 c -0.0223,0.31955 -0.0103,0.70149 0.0219,0.70149 0.007,0 0.01,-0.23843 0.008,-0.52985 z"
     id="path7238"
     inkscape:connector-curvature="0" />
  <path
     style="fill:#000000;stroke:#000000;stroke-width:0.0001791;stroke-miterlimit:4;stroke-dasharray:none;stroke-opacity:1"
     d=""
     id="path7240"
     inkscape:connector-curvature="0" />
  <path
     style="fill:#000000;stroke:#000000;stroke-width:0.0001791;stroke-miterlimit:4;stroke-dasharray:none;stroke-opacity:1"
     d="m 174.33927,350.925 c 1.94492,-0.69907 3.12516,-1.19496 4.64402,-1.95124 1.61524,-0.80426 2.47785,-1.34561 3.71419,-2.33094 0.75009,-0.5978 2.47808,-2.29973 3.14353,-3.09612 2.58554,-3.09429 4.44423,-6.59472 5.30302,-9.98705 0.13053,-0.51562 0.19317,-0.95065 0.23826,-1.65474 0.0774,-1.20913 0.17978,-5.2822 0.18039,-7.17911 l 4.7e-4,-1.44776 h 0.1791 0.17911 l -0.001,2.40299 c -0.002,3.58063 -0.10185,5.20928 -0.4217,6.85074 -1.6479,8.45689 -7.72039,15.3984 -15.87573,18.14769 -0.82616,0.27851 -2.17677,0.65968 -2.32361,0.65577 -0.0519,-0.001 0.41615,-0.18598 1.04003,-0.41023 z"
     id="path7242"
     inkscape:connector-curvature="0" />
  <path
     style="fill:#000000;stroke:#000000;stroke-width:0.0001791;stroke-miterlimit:4;stroke-dasharray:none;stroke-opacity:1"
     d=""
     id="path7244"
     inkscape:connector-curvature="0" />
  <path
     style="fill:#000000;stroke:#000000;stroke-width:0.0001791;stroke-miterlimit:4;stroke-dasharray:none;stroke-opacity:1"
     d=""
     id="path7246"
     inkscape:connector-curvature="0" />
  <path
     style="fill:#000000;stroke:#000000;stroke-width:0.0001791;stroke-miterlimit:4;stroke-dasharray:none;stroke-opacity:1"
     d=""
     id="path7248"
     inkscape:connector-curvature="0" />
  <path
     style="fill:#000000;stroke:#000000;stroke-width:0.0001791;stroke-miterlimit:4;stroke-dasharray:none;stroke-opacity:1"
     d="m 151.65325,364.30789 c 0.0152,-0.35298 0.0413,-3.35285 0.058,-6.66637 0.0167,-3.31351 0.0431,-6.03728 0.0587,-6.05281 0.0282,-0.0283 17.87443,-0.54301 18.97235,-0.54723 l 0.58209,-0.002 V 331.45739 311.8753 h 10.14872 10.14871 l 0.016,3.0597 0.016,3.0597 0.0144,-3.0597 c 0.0142,-3.01511 0.0161,-3.0597 0.13378,-3.0597 0.11856,0 0.1194,0.0398 0.1194,5.67164 v 5.67164 h -0.14859 -0.14859 l -0.0163,-2.46269 -0.0163,-2.46268 -0.0142,2.49253 -0.0143,2.49254 h 0.1791 0.17911 l -0.002,1.47761 c -0.004,3.5956 -0.14862,6.21857 -0.42219,7.64854 -1.4621,7.64255 -6.53736,14.11977 -13.58776,17.34114 -1.18926,0.54338 -3.68241,1.41897 -4.01832,1.41123 -0.0493,-10e-4 0.50149,-0.22514 1.22388,-0.49778 0.72239,-0.27264 1.58209,-0.61036 1.91045,-0.75047 0.74986,-0.31998 2.89552,-1.35703 2.89552,-1.39947 0,-0.0174 -0.43552,0.18212 -0.96783,0.4434 -1.16733,0.57298 -2.72304,1.23695 -4.04154,1.72491 -1.30801,0.48408 -3.00611,1.01631 -3.34332,1.04788 -0.1508,0.0141 -0.63686,0.0711 -1.08014,0.12654 -0.7152,0.0895 -1.80281,0.10364 -9.65672,0.12543 l -8.85075,0.0246 v 6.47406 6.47406 h -0.17771 -0.1777 z m 29.69477,-16.65667 c 0.73,-0.48299 1.71454,-1.2537 2.00618,-1.57048 0.0985,-0.10699 -0.0493,8.3e-4 -0.32836,0.23961 -0.68936,0.58976 -1.62206,1.2632 -2.37996,1.71839 -0.34617,0.2079 -0.64409,0.39518 -0.66203,0.41616 -0.078,0.0912 0.74023,-0.39087 1.36417,-0.80368 z m 4.37652,-3.94988 c 1.33037,-1.53123 2.6609,-3.51659 3.62632,-5.41105 0.41848,-0.82118 1.04274,-2.23155 1.00461,-2.26968 -0.0124,-0.0124 -0.12617,0.22519 -0.25289,0.52792 -0.82809,1.97835 -1.95308,3.91799 -3.34734,5.77131 -0.75075,0.99793 -1.35557,1.69562 -2.40917,2.7791 l -0.81277,0.83581 0.82565,-0.80596 c 0.4541,-0.44329 1.06862,-1.08564 1.36559,-1.42745 z m 4.84554,-8.24419 c 0.0294,-0.11988 0.0206,-0.114 -0.0449,0.0299 -0.0449,0.0985 -0.098,0.24627 -0.11817,0.32835 -0.0294,0.11988 -0.0206,0.114 0.0449,-0.0299 0.0448,-0.0985 0.098,-0.24626 0.11817,-0.32835 z m 0.24447,-0.69316 c 0.0291,-0.14763 0.0222,-0.14237 -0.0479,0.0364 -0.0451,0.11492 -0.0989,0.27612 -0.11969,0.35821 -0.0284,0.11227 -0.0165,0.10324 0.048,-0.0365 0.0471,-0.10213 0.10099,-0.26332 0.11968,-0.3582 z m 0.3009,-1.02592 c 0.082,-0.31572 0.14719,-0.61555 0.14474,-0.66629 -0.004,-0.0811 -0.29965,0.9733 -0.38437,1.37044 l -0.0318,0.14925 0.0611,-0.13968 c 0.0336,-0.0768 0.12827,-0.398 0.21033,-0.71372 z m 0.19057,-1.01113 c -0.0151,-0.0581 -0.0285,-0.025 -0.0297,0.0735 -0.001,0.0985 0.0112,0.14603 0.0275,0.10561 0.0164,-0.0404 0.0173,-0.12101 0.002,-0.1791 z m 0.19685,-3.6877 c 0.0382,-1.37911 0.06,-3.01792 0.0485,-3.6418 -0.0206,-1.11867 -0.0211,-1.11331 -0.0357,0.38806 -0.0137,1.41277 -0.0888,4.32089 -0.155,6 -0.0247,0.62675 -0.0219,0.65664 0.0222,0.23881 0.0277,-0.26269 0.0817,-1.60597 0.11992,-2.98507 z"
     id="path7250"
     inkscape:connector-curvature="0" />
  <path
     style="fill:#000000;stroke:#000000;stroke-width:0.0001791;stroke-miterlimit:4;stroke-dasharray:none;stroke-opacity:1"
     d=""
     id="path7252"
     inkscape:connector-curvature="0" />
  <path
     style="fill:#000000;stroke:#000000;stroke-width:0.0001791;stroke-miterlimit:4;stroke-dasharray:none;stroke-opacity:1"
     d="m 151.65146,363.44222 c 0.0167,-0.8291 0.0445,-3.82966 0.0618,-6.6679 0.0173,-2.83824 0.0437,-5.17262 0.0585,-5.1875 0.0243,-0.0243 13.22686,-0.41213 17.74658,-0.52133 l 1.80597,-0.0436 v -19.5734 -19.5734 h 10.14842 10.14841 l 0.0166,1.89552 0.0166,1.89552 0.0141,-1.89552 c 0.0137,-1.85104 0.0169,-1.89552 0.13346,-1.89552 0.11856,0 0.1194,0.0398 0.1194,5.67164 v 5.67164 h -0.14821 -0.14821 l -0.0171,-1.47761 -0.0171,-1.47761 -0.0138,1.50746 -0.0138,1.50746 h 0.1791 0.17911 l -0.001,1.68657 c -0.002,3.44693 -0.14637,5.98895 -0.42168,7.43958 -0.89658,4.72401 -3.20113,9.07361 -6.61764,12.49012 -2.16256,2.16256 -4.66555,3.86774 -7.40732,5.04628 -0.96679,0.41558 -3.02152,1.12404 -3.43284,1.18363 l -0.2388,0.0346 0.25746,-0.0959 c 0.14161,-0.0527 0.24654,-0.10678 0.23319,-0.12013 -0.0133,-0.0134 -0.14264,0.0177 -0.28731,0.069 -0.58961,0.20912 -2.18156,0.69321 -2.29289,0.69723 -0.0657,0.002 -0.38806,0.0396 -0.71642,0.0828 -1.29505,0.1702 -3.01408,0.20198 -10.9403,0.20228 l -8.07463,3.1e-4 v 6.47761 6.47761 h -0.17995 -0.17996 z m 23.07587,-12.65186 c 0.0622,-0.0385 0.044,-0.0432 -0.0597,-0.0154 -0.0821,0.022 -0.18955,0.0648 -0.23881,0.0953 -0.0622,0.0385 -0.044,0.0432 0.0597,0.0154 0.0821,-0.022 0.18956,-0.0648 0.23881,-0.0952 z m 0.47761,-0.16904 c 0.0493,-0.0318 0.0627,-0.0579 0.0299,-0.0579 -0.0328,0 -0.1,0.026 -0.14925,0.0579 -0.0493,0.0318 -0.0627,0.0579 -0.0299,0.0579 0.0328,0 0.1,-0.026 0.14925,-0.0579 z m 0.47761,-0.1791 c 0.0493,-0.0318 0.0627,-0.0579 0.0299,-0.0579 -0.0328,0 -0.1,0.026 -0.14925,0.0579 -0.0493,0.0318 -0.0627,0.0579 -0.0299,0.0579 0.0328,0 0.1,-0.026 0.14925,-0.0579 z m 0.29851,-0.1194 c 0.0492,-0.0318 0.0627,-0.0579 0.0298,-0.0579 -0.0328,0 -0.1,0.026 -0.14925,0.0579 -0.0493,0.0318 -0.0627,0.0579 -0.0299,0.0579 0.0328,0 0.1,-0.026 0.14925,-0.0579 z m 0.29851,-0.11941 c 0.0493,-0.0318 0.0627,-0.0579 0.0298,-0.0579 -0.0328,0 -0.1,0.026 -0.14925,0.0579 -0.0493,0.0318 -0.0627,0.0579 -0.0299,0.0579 0.0328,0 0.1,-0.026 0.14926,-0.0579 z m 0.29851,-0.1194 c 0.0493,-0.0318 0.0627,-0.0579 0.0299,-0.0579 -0.0328,0 -0.1,0.026 -0.14926,0.0579 -0.0493,0.0318 -0.0627,0.0579 -0.0299,0.0579 0.0328,0 0.1,-0.026 0.14926,-0.0579 z m 0.86712,-0.36647 c 0.37867,-0.16872 0.67891,-0.31635 0.66719,-0.32807 -0.0198,-0.0198 -1.35483,0.559 -1.40994,0.61125 -0.0708,0.0672 0.11834,-0.005 0.74275,-0.28318 z m 1.70123,-0.79831 c 0.29487,-0.14809 0.53612,-0.28269 0.53612,-0.2991 0,-0.0267 -1.06861,0.48935 -1.12935,0.5454 -0.0808,0.0746 0.12174,-0.01 0.59323,-0.2463 z m 1.19284,-0.66032 c 0,-0.0164 -0.0537,-0.001 -0.1194,0.0341 -0.0657,0.0351 -0.11941,0.0773 -0.11941,0.0937 0,0.0164 0.0537,0.001 0.11941,-0.0341 0.0657,-0.0351 0.1194,-0.0773 0.1194,-0.0938 z m 0.59701,-0.3582 c 0,-0.0164 -0.0537,-10e-4 -0.1194,0.034 -0.0657,0.0351 -0.1194,0.0773 -0.1194,0.0937 0,0.0164 0.0537,10e-4 0.1194,-0.034 0.0657,-0.0351 0.1194,-0.0773 0.1194,-0.0937 z m 0.67624,-0.43879 c 0.0385,-0.0466 -0.0442,-0.009 -0.1837,0.0826 -0.13955,0.092 -0.25373,0.17872 -0.25373,0.19263 0,0.0431 0.36336,-0.18553 0.43743,-0.27519 z m 0.95063,-0.70389 c 0.22164,-0.17653 0.40299,-0.33258 0.40299,-0.34679 0,-0.0293 -1.13226,0.84425 -1.22389,0.94429 -0.0874,0.0955 0.35692,-0.22797 0.8209,-0.5975 z m 0.64179,-0.52476 c 0.0771,-0.0821 0.12679,-0.14926 0.11037,-0.14926 -0.0164,0 -0.093,0.0672 -0.17007,0.14926 -0.0771,0.0821 -0.12678,0.14925 -0.11037,0.14925 0.0164,0 0.093,-0.0672 0.17007,-0.14925 z m 1.73134,-1.67165 c 0.17836,-0.18059 0.31085,-0.32835 0.29443,-0.32835 -0.0164,0 -0.17577,0.14776 -0.35413,0.32835 -0.17835,0.1806 -0.31084,0.32836 -0.29443,0.32836 0.0164,0 0.17578,-0.14776 0.35413,-0.32836 z m 1.3001,-1.49253 c 0.31449,-0.39403 0.59915,-0.75672 0.63258,-0.80597 0.15018,-0.22127 -0.14793,0.12123 -0.58918,0.67691 -0.25652,0.32305 -0.60196,0.73946 -0.76765,0.92537 -0.224,0.25134 -0.24308,0.28443 -0.0744,0.12906 0.12477,-0.11493 0.48416,-0.53134 0.79865,-0.92537 z m 0.96613,-1.25928 c 0.11219,-0.15622 0.1782,-0.2681 0.1467,-0.24863 -0.0315,0.0195 -0.14906,0.16321 -0.26124,0.31942 -0.11219,0.15622 -0.1782,0.2681 -0.1467,0.24863 0.0315,-0.0195 0.14906,-0.16321 0.26124,-0.31942 z m 0.55805,-0.79584 c 0.15939,-0.27148 0.0832,-0.22298 -0.11008,0.07 -0.092,0.13955 -0.12918,0.22222 -0.0826,0.1837 0.0466,-0.0385 0.13332,-0.1527 0.19264,-0.25374 z m 0.46697,-0.75085 0.0586,-0.11941 -0.0972,0.11941 c -0.0535,0.0657 -0.12359,0.17313 -0.15584,0.2388 l -0.0586,0.1194 0.0972,-0.1194 c 0.0535,-0.0657 0.1236,-0.17313 0.15584,-0.2388 z m 0.17144,-0.26866 c 0.0352,-0.0657 0.0505,-0.1194 0.0341,-0.1194 -0.0164,0 -0.0586,0.0537 -0.0937,0.1194 -0.0351,0.0657 -0.0505,0.1194 -0.0341,0.1194 0.0164,0 0.0586,-0.0537 0.0937,-0.1194 z m 0.17911,-0.29851 c 0.0351,-0.0657 0.0505,-0.1194 0.0341,-0.1194 -0.0164,0 -0.0586,0.0537 -0.0938,0.1194 -0.0351,0.0657 -0.0505,0.1194 -0.0341,0.1194 0.0164,0 0.0586,-0.0537 0.0938,-0.1194 z m 0.20895,-0.35821 c 0.0509,-0.0985 0.0792,-0.1791 0.0628,-0.1791 -0.0164,0 -0.0715,0.0806 -0.12247,0.1791 -0.0509,0.0985 -0.0792,0.17911 -0.0628,0.17911 0.0164,0 0.0715,-0.0806 0.12247,-0.17911 z m 0.29851,-0.53731 c 0.0832,-0.16418 0.13783,-0.29851 0.12141,-0.29851 -0.0164,0 -0.0979,0.13433 -0.18111,0.29851 -0.0832,0.16418 -0.13784,0.29851 -0.12142,0.29851 0.0164,0 0.0979,-0.13433 0.18112,-0.29851 z m 0.80096,-1.64179 c 0,-0.0328 -0.0515,0.0343 -0.11439,0.14925 -0.0629,0.11493 -0.1144,0.23582 -0.1144,0.26866 0,0.0328 0.0515,-0.0343 0.1144,-0.14926 0.0629,-0.11492 0.11439,-0.23582 0.11439,-0.26865 z m 0.18228,-0.41791 c 0,-0.0328 -0.026,-0.0194 -0.0579,0.0299 -0.0318,0.0493 -0.0579,0.11642 -0.0579,0.14925 0,0.0328 0.026,0.0194 0.0579,-0.0299 0.0318,-0.0492 0.0579,-0.11642 0.0579,-0.14925 z m 0.17911,-0.41791 c 0,-0.0328 -0.026,-0.0194 -0.0579,0.0299 -0.0318,0.0493 -0.0579,0.11642 -0.0579,0.14925 0,0.0328 0.026,0.0194 0.0579,-0.0299 0.0318,-0.0492 0.0579,-0.11642 0.0579,-0.14925 z m 0.69933,-2.0709 c -0.0191,-0.0476 -0.0332,-0.0335 -0.0361,0.0361 -0.003,0.0629 0.0115,0.0982 0.0314,0.0784 0.0198,-0.0198 0.022,-0.0713 0.005,-0.11443 z m 0.1194,-0.41791 c -0.0191,-0.0476 -0.0332,-0.0335 -0.0361,0.0361 -0.003,0.0629 0.0115,0.0982 0.0314,0.0784 0.0198,-0.0198 0.022,-0.0713 0.005,-0.11443 z m 0.0597,-0.2388 c -0.0191,-0.0476 -0.0332,-0.0335 -0.0361,0.0361 -0.003,0.0629 0.0115,0.0982 0.0314,0.0784 0.0198,-0.0198 0.022,-0.0713 0.005,-0.11442 z m 0.0597,-0.23881 c -0.0191,-0.0476 -0.0332,-0.0335 -0.0361,0.0361 -0.003,0.0629 0.0115,0.0982 0.0314,0.0784 0.0198,-0.0198 0.022,-0.0713 0.005,-0.11443 z m 0.17786,-1.37687 c -0.0166,-0.041 -0.0301,-0.007 -0.0301,0.0746 0,0.0821 0.0136,0.11567 0.0301,0.0746 0.0166,-0.041 0.0166,-0.10821 0,-0.14926 z m 0.0643,-1.25173 c -0.0121,-0.17349 -0.0221,-0.0468 -0.0223,0.28158 -1.8e-4,0.32836 0.01,0.47031 0.022,0.31544 0.0122,-0.15487 0.0124,-0.42353 3e-4,-0.59702 z m 0.06,-2.05897 c -0.0112,-0.25598 -0.0205,-0.0624 -0.0205,0.43011 -6e-5,0.49253 0.009,0.70197 0.0204,0.46541 0.0113,-0.23656 0.0114,-0.63954 1.8e-4,-0.89552 z m 0.0599,-2.80545 c -0.0106,-0.35477 -0.0193,-0.0809 -0.0193,0.60869 -5e-5,0.68955 0.009,0.97982 0.0192,0.64504 0.0106,-0.33479 0.0107,-0.89896 6e-5,-1.25373 z"
     id="path7254"
     inkscape:connector-curvature="0" />
  <path
     style="fill:#000000;stroke:#000000;stroke-width:0.0001791;stroke-miterlimit:4;stroke-dasharray:none;stroke-opacity:1"
     d=""
     id="path7256"
     inkscape:connector-curvature="0" />
  <path
     style="fill:#000000;stroke:#000000;stroke-width:0.0001791;stroke-miterlimit:4;stroke-dasharray:none;stroke-opacity:1"
     d=""
     id="path7258"
     inkscape:connector-curvature="0" />
  <path
     style="fill:#000000;stroke:#000000;stroke-width:0.0001791;stroke-miterlimit:4;stroke-dasharray:none;stroke-opacity:1"
     d="m 191.69589,253.88998 0.0133,-4.79104 0.034,3.55224 c 0.0187,1.95373 0.0462,3.56567 0.0611,3.58208 0.0149,0.0164 0.0407,-5.73283 0.0573,-12.77611 l 0.0303,-12.80597 0.0147,14.01492 c 0.0147,13.98003 0.0144,14.01493 -0.10468,14.01493 -0.11853,0 -0.11931,-0.0354 -0.10607,-4.79105 z"
     id="path7262"
     inkscape:connector-curvature="0" />
  <path
     style="fill:#000000;stroke:#000000;stroke-width:0.0001791;stroke-miterlimit:4;stroke-dasharray:none;stroke-opacity:1"
     d="m 191.69198,258.38252 c 0,-0.0821 0.0136,-0.11567 0.0301,-0.0746 0.0166,0.0411 0.0166,0.10821 0,0.14926 -0.0166,0.041 -0.0301,0.007 -0.0301,-0.0746 z"
     id="path7264"
     inkscape:connector-curvature="0" />
  <path
     style="fill:#000000;stroke:#000000;stroke-width:0.0001791;stroke-miterlimit:4;stroke-dasharray:none;stroke-opacity:1"
     d="m 191.72733,258.70119 c 0.041,-0.0166 0.10821,-0.0166 0.14925,0 0.0411,0.0166 0.007,0.0301 -0.0746,0.0301 -0.0821,0 -0.11568,-0.0135 -0.0746,-0.0301 z"
     id="path7266"
     inkscape:connector-curvature="0" />
  <path
     style="fill:#000000;stroke:#000000;stroke-width:0.0001791;stroke-miterlimit:4;stroke-dasharray:none;stroke-opacity:1"
     d="m 191.91942,261.32282 c -0.0144,-18.94646 -0.005,-30.59509 0.0249,-30.62493 0.0202,-0.0202 0.0368,7.43637 0.0368,16.5702 0,9.13383 -0.0134,16.60697 -0.0299,16.60697 -0.0164,0 -0.0307,-1.14851 -0.0318,-2.55224 z"
     id="path7268"
     inkscape:connector-curvature="0" />
  <path
     style="fill:#000000;stroke:#000000;stroke-width:0.0001791;stroke-miterlimit:4;stroke-dasharray:none;stroke-opacity:1"
     d=""
     id="path7270"
     inkscape:connector-curvature="0" />
  <path
     style="fill:#000000;stroke:#000000;stroke-width:0.0001791;stroke-miterlimit:4;stroke-dasharray:none;stroke-opacity:1"
     d="m 191.75006,257.38604 c 0.004,-0.68328 0.0268,-1.44382 0.05,-1.69009 0.0278,-0.29487 0.0455,0.11672 0.0519,1.20543 0.006,1.04834 -0.0122,1.6667 -0.05,1.69009 -0.0392,0.0242 -0.057,-0.39048 -0.0519,-1.20543 z"
     id="path7272"
     inkscape:connector-curvature="0" />
  <path
     style="fill:#000000;stroke:#000000;stroke-width:0.0001791;stroke-miterlimit:4;stroke-dasharray:none;stroke-opacity:1"
     d="m 171.32434,257.21834 v -26.53731 h 10.14926 10.14925 v 14.02985 14.02985 h 0.14926 0.14925 l 0.0143,-12.16418 c 0.008,-6.6903 0.0231,-11.00896 0.0339,-9.59702 0.0108,1.41194 0.001,12.51418 -0.0217,24.67165 -0.035,18.70206 -0.054,22.10447 -0.12345,22.10447 -0.0693,0 -0.0834,-1.54019 -0.0904,-9.89552 -0.005,-5.44254 -0.0247,-10.78209 -0.0448,-11.86567 -0.0201,-1.08358 -0.0267,3.3694 -0.0147,9.89552 l 0.0217,11.86567 h -10.18592 -10.18593 z"
     id="path7274"
     inkscape:connector-curvature="0" />
  <path
     style="fill:#000000;stroke:#000000;stroke-width:0.0001791;stroke-miterlimit:4;stroke-dasharray:none;stroke-opacity:1"
     d="m 191.89023,228.77058 c 0,-2.90597 0.007,-4.09478 0.0162,-2.64179 0.009,1.45298 0.009,3.83059 0,5.28358 -0.009,1.45298 -0.0162,0.26418 -0.0162,-2.64179 z"
     id="path7276"
     inkscape:connector-curvature="0" />
  <path
     style="fill:#000000;stroke:#000000;stroke-width:0.0001791;stroke-miterlimit:4;stroke-dasharray:none;stroke-opacity:1"
     d="m 191.70837,243.27804 c 0,-0.80448 0.008,-1.13358 0.0188,-0.73134 0.0103,0.40224 0.0103,1.06045 0,1.46268 -0.0103,0.40224 -0.0188,0.0731 -0.0188,-0.73134 z"
     id="path7278"
     inkscape:connector-curvature="0" />
  <path
     style="fill:#000000;stroke:#000000;stroke-width:0.0001791;stroke-miterlimit:4;stroke-dasharray:none;stroke-opacity:1"
     d="m 191.6531,255.57655 c 0.0135,-1.75672 0.0506,-3.61045 0.0823,-4.1194 0.0334,-0.53489 0.0647,-6.61891 0.0742,-14.41791 l 0.0164,-13.49254 0.0389,9.85074 c 0.0453,11.45788 0.0444,24.57686 -0.001,22.71642 l -0.0316,-1.28358 -0.0497,0.71642 c -0.0274,0.39403 -0.0483,1.18656 -0.0465,1.76119 0.002,0.57463 -0.0216,1.13881 -0.0519,1.25373 -0.0348,0.13197 -0.0461,-0.96783 -0.0306,-2.98507 z"
     id="path7280"
     inkscape:connector-curvature="0" />
  <path
     style="fill:#000000;stroke:#000000;stroke-width:0.0001791;stroke-miterlimit:4;stroke-dasharray:none;stroke-opacity:1"
     d="m 171.32431,248.30789 c -2e-5,-11.61567 -0.0179,-23.55746 -0.0397,-26.53731 l -0.0397,-5.41791 h 10.3775 10.3775 l -0.0431,3.1194 c -0.0237,1.71567 -0.0653,3.37463 -0.0924,3.68657 -0.0271,0.31194 -0.0321,5.17462 -0.0111,10.80597 0.0343,9.22076 0.0412,9.75204 0.0685,5.34328 0.0199,-3.20745 0.0353,-0.57243 0.0447,7.64179 0.0175,15.26962 -0.0286,22.47761 -0.14386,22.47761 -0.0636,0 -0.0821,-0.39754 -0.0955,-2.04477 l -0.0165,-2.04478 -0.0141,2.04478 -0.0141,2.04477 h -10.1791 -10.17911 z m 20.58303,8.56717 -0.014,-1.86568 -0.0167,1.80597 c -0.0105,1.13496 -0.0386,1.80597 -0.0755,1.80597 -0.0579,0 -0.0839,-0.16191 -0.0608,-0.37966 0.007,-0.0663 -0.0143,-0.0949 -0.0528,-0.0711 -0.0355,0.022 -0.0646,0.15921 -0.0646,0.30503 0,0.24301 0.0125,0.26514 0.14926,0.26514 h 0.14925 z m -0.20995,-19.25374 c -0.0227,-9.3243 -0.0543,-14.04477 -0.094,-14.04477 -0.0398,0 -0.0466,1.33512 -0.0203,3.98507 0.0218,2.19179 0.0445,9.5597 0.0506,16.37314 0.007,7.66682 0.0275,11.50069 0.0544,10.0597 0.0239,-1.2806 0.0281,-8.64851 0.009,-16.37314 z"
     id="path7282"
     inkscape:connector-curvature="0" />
  <path
     style="fill:#000000;stroke:#000000;stroke-width:0.0001791;stroke-miterlimit:4;stroke-dasharray:none;stroke-opacity:1"
     d="m 191.64997,243.69595 c 0,-1.26418 0.008,-1.78134 0.0176,-1.14925 0.01,0.63209 0.01,1.66642 0,2.29851 -0.01,0.63208 -0.0176,0.11492 -0.0176,-1.14926 z"
     id="path7284"
     inkscape:connector-curvature="0" />
  <path
     style="fill:#000000;stroke:#000000;stroke-width:0.0001791;stroke-miterlimit:4;stroke-dasharray:none;stroke-opacity:1"
     d="m 171.32431,248.30789 c -2e-5,-11.61567 -0.0179,-23.55746 -0.0397,-26.53731 l -0.0397,-5.41791 h 10.37311 10.37312 l -0.0347,2.22388 c -0.0191,1.22313 -0.0431,6.64328 -0.0533,12.04477 -0.0102,5.4015 -0.003,8.46418 0.0155,6.80597 0.0188,-1.6582 0.0405,2.88437 0.0482,10.09462 0.0166,15.43423 -0.0257,21.90538 -0.14328,21.90538 -0.0596,0 -0.0824,-0.19417 -0.0965,-0.82089 l -0.0184,-0.8209 -0.0131,0.8209 -0.0131,0.82089 h -10.1791 -10.17911 z m 20.58363,9.34329 -0.0134,-1.08956 -0.0178,1.02985 c -0.0107,0.61798 -0.0411,1.02985 -0.0761,1.02985 -0.0321,0 -0.0583,-0.0537 -0.0583,-0.1194 0,-0.0657 -0.0269,-0.1194 -0.0597,-0.1194 -0.0664,0 -0.0824,0.25591 -0.0199,0.31841 0.0219,0.0219 0.0891,0.0398 0.14926,0.0398 0.10262,0 0.10861,-0.0679 0.096,-1.08955 z m -0.21142,-18.31344 c -0.0151,-6.68209 -0.0492,-12.92836 -0.0759,-13.88059 -0.0484,-1.72789 -0.0485,-1.72683 -0.0231,0.53215 0.014,1.24493 0.0303,7.93448 0.0363,14.86568 0.006,6.93119 0.0287,12.15888 0.0505,11.61709 0.0218,-0.54179 0.0273,-6.45224 0.0123,-13.13433 z"
     id="path7286"
     inkscape:connector-curvature="0" />
  <path
     style="fill:#000000;stroke:#000000;stroke-width:0.0001791;stroke-miterlimit:4;stroke-dasharray:none;stroke-opacity:1"
     d="m 171.32434,248.36254 c 0,-11.58561 -0.0179,-23.5274 -0.0397,-26.53731 l -0.0397,-5.47256 h 10.37777 10.37778 l -0.0393,3.26865 c -0.0216,1.79777 -0.049,6.50597 -0.0609,10.46269 -0.0119,3.95672 -0.005,6.54925 0.0163,5.7612 0.0208,-0.78806 0.0438,4.57164 0.0511,11.91044 0.0154,15.47993 -0.0254,21.67164 -0.14284,21.67164 -0.0523,0 -0.0837,-0.11953 -0.0981,-0.37313 l -0.0212,-0.37313 -0.0115,0.37313 -0.0115,0.37313 h -10.1791 -10.17911 z m 20.57059,9.69091 0.003,-0.65601 -0.0204,0.61194 c -0.0113,0.33926 -0.0461,0.61194 -0.078,0.61194 -0.0317,0 -0.0576,-0.0457 -0.0576,-0.10149 0,-0.0698 -0.0192,-0.0822 -0.0617,-0.0398 -0.0869,0.0869 -0.003,0.27034 0.11394,0.24803 0.0822,-0.0157 0.0975,-0.11831 0.10039,-0.67458 z m -0.21328,-19.19332 -0.0308,-10.23881 -0.003,10.83583 c -0.002,5.9597 0.012,10.56716 0.0308,10.2388 0.0188,-0.32836 0.0203,-5.20448 0.003,-10.83582 z"
     id="path7288"
     inkscape:connector-curvature="0" />
  <path
     style="fill:#000000;stroke:#000000;stroke-width:0.0001791;stroke-miterlimit:4;stroke-dasharray:none;stroke-opacity:1"
     d="m 191.63331,245.99943 c -0.006,-2.03308 -1e-4,-3.68532 0.0126,-3.67164 0.0423,0.0457 0.0737,5.92519 0.0356,6.65174 -0.0207,0.39403 -0.0423,-0.94701 -0.0481,-2.9801 z"
     id="path7290"
     inkscape:connector-curvature="0" />
  <path
     style="fill:#000000;stroke:#000000;stroke-width:0.0001791;stroke-miterlimit:4;stroke-dasharray:none;stroke-opacity:1"
     d="m 171.32434,250.87003 c 0,-10.20649 -0.0179,-22.14829 -0.0397,-26.53731 l -0.0397,-7.98005 h 10.35316 l 10.35316,1e-5 0.0204,22.07462 c 0.0219,23.76983 -0.0116,30.99999 -0.14349,30.99999 -0.0428,0 -0.0891,-0.0739 -0.10277,-0.16417 l -0.0249,-0.16418 -0.009,0.16418 -0.009,0.16417 h -10.1791 -10.17911 z m 20.49294,7.75876 c -0.0314,-0.0205 -0.0725,-0.0776 -0.0912,-0.12687 -0.024,-0.0631 -0.0355,-0.0528 -0.0388,0.0348 -0.006,0.14633 0.0484,0.21511 0.12939,0.16504 0.0366,-0.0226 0.0369,-0.0493 6.2e-4,-0.073 z m 0.0865,-0.4403 c -0.0142,-0.0739 -0.0259,-0.0134 -0.0259,0.13433 0,0.14776 0.0116,0.20821 0.0259,0.13433 0.0142,-0.0739 0.0142,-0.19478 0,-0.26866 z m -0.23618,-22.115 c -0.009,-1.20914 -0.0164,-0.23724 -0.0164,2.15977 -10e-6,2.39702 0.007,3.38631 0.0164,2.19843 0.009,-1.18787 0.009,-3.14907 1e-5,-4.3582 z"
     id="path7292"
     inkscape:connector-curvature="0" />
  <path
     style="fill:#000000;stroke:#000000;stroke-width:0.0001791;stroke-miterlimit:4;stroke-dasharray:none;stroke-opacity:1"
     d="m 191.60788,187.90491 c -0.0243,-0.32836 -0.0408,-0.85224 -0.0368,-1.16418 l 0.007,-0.56717 0.0749,0.59702 c 0.10199,0.81332 0.14372,1.49162 0.086,1.39826 -0.0306,-0.0496 -0.0547,-0.004 -0.0675,0.12805 -0.0109,0.11277 -0.0397,-0.0636 -0.064,-0.39198 z"
     id="path7294"
     inkscape:connector-curvature="0" />
  <path
     style="fill:#000000;stroke:#000000;stroke-width:0.0001791;stroke-miterlimit:4;stroke-dasharray:none;stroke-opacity:1"
     d="m 191.75852,187.87506 c 0,-0.14777 0.0116,-0.20821 0.0259,-0.13433 0.0142,0.0739 0.0142,0.19477 0,0.26865 -0.0142,0.0739 -0.0259,0.0134 -0.0259,-0.13432 z"
     id="path7296"
     inkscape:connector-curvature="0" />
  <path
     style="fill:#000000;stroke:#000000;stroke-width:0.0001791;stroke-miterlimit:4;stroke-dasharray:none;stroke-opacity:1"
     d="m 191.64729,188.84557 c 0.003,-0.3692 0.0256,-0.67144 0.0502,-0.67164 0.057,-4.7e-4 0.0504,0.72085 -0.01,1.07426 -0.0334,0.19636 -0.0443,0.088 -0.0403,-0.40262 z"
     id="path7298"
     inkscape:connector-curvature="0" />
  <path
     style="fill:#000000;stroke:#000000;stroke-width:0.0001791;stroke-miterlimit:4;stroke-dasharray:none;stroke-opacity:1"
     d="m 191.75656,189.09894 c -1.1e-4,-0.58848 0.006,-0.62476 0.0561,-0.34916 0.0351,0.19212 0.0352,0.43861 1.1e-4,0.65671 -0.0528,0.32851 -0.0561,0.31031 -0.0562,-0.30755 z"
     id="path7300"
     inkscape:connector-curvature="0" />
  <path
     style="fill:#000000;stroke:#000000;stroke-width:0.0001791;stroke-miterlimit:4;stroke-dasharray:none;stroke-opacity:1"
     d="m 191.68206,190.11386 c -0.0441,-0.76587 -0.0455,-1.14074 -0.005,-1.51039 l 0.0433,-0.40006 0.0428,0.50747 c 0.0236,0.2791 0.0189,0.77612 -0.0103,1.10447 -0.041,0.46058 -0.0571,0.5288 -0.0703,0.29851 z"
     id="path7302"
     inkscape:connector-curvature="0" />
  <path
     style="fill:#000000;stroke:#000000;stroke-width:0.0001791;stroke-miterlimit:4;stroke-dasharray:none;stroke-opacity:1"
     d="m 191.88125,190.53177 c 2.6e-4,-0.22985 0.0111,-0.31656 0.024,-0.1927 0.0129,0.12387 0.0127,0.31193 -4.8e-4,0.41791 -0.0132,0.10599 -0.0238,0.005 -0.0235,-0.22521 z"
     id="path7304"
     inkscape:connector-curvature="0" />
  <path
     style="fill:#000000;stroke:#000000;stroke-width:0.0001791;stroke-miterlimit:4;stroke-dasharray:none;stroke-opacity:1"
     d="m 171.25524,220.24819 c -0.005,-2.09328 -0.007,-3.84478 -0.005,-3.89223 0.003,-0.0474 0.0244,-10.27654 0.0484,-22.73134 l 0.0437,-22.64509 h 0.1998 0.19979 l 0.0119,8.25373 0.0119,8.25374 0.0392,-7.49254 c 0.0215,-4.1209 0.0431,-7.83508 0.0478,-8.25373 l 0.009,-0.7612 h 7.48201 7.482 l 0.40786,0.8806 c 0.94853,2.04795 1.67552,3.87485 2.39358,6.01493 0.49137,1.46447 1.26773,4.08685 1.4923,5.04066 0.0806,0.34252 0.20128,0.80628 0.26808,1.0306 0.11108,0.373 0.12181,0.5773 0.12562,2.39217 0.003,1.36994 0.0208,1.8919 0.0579,1.68582 0.0296,-0.16418 0.0414,-0.5806 0.0263,-0.92537 -0.033,-0.75321 0.0485,-0.40827 0.1164,0.49253 0.0315,0.41845 0.0249,0.58209 -0.0235,0.58209 -0.0427,0 -0.0639,0.1149 -0.058,0.31344 l 0.009,0.31343 0.0409,-0.29851 0.041,-0.29851 0.0189,0.23881 c 0.0104,0.13134 0.0257,0.89701 0.034,1.70149 0.008,0.80448 0.0425,1.63732 0.0759,1.85075 0.0474,0.30255 0.0566,0.0394 0.042,-1.19403 -0.0148,-1.24464 -0.009,-1.40382 0.0267,-0.74627 0.025,0.4597 0.0488,8.29776 0.0528,17.41791 l 0.007,16.58209 h -10.35821 -10.35821 z m 20.64918,-20.83582 c -0.0137,-0.0903 -0.0249,-0.0164 -0.0249,0.16418 0,0.1806 0.0112,0.25448 0.0249,0.16418 0.0137,-0.0903 0.0137,-0.23806 0,-0.32836 z"
     id="path7306"
     inkscape:connector-curvature="0" />
  <path
     style="fill:#000000;stroke:#000000;stroke-width:0.0001791;stroke-miterlimit:4;stroke-dasharray:none;stroke-opacity:1"
     d="m 171.254,220.27804 c -0.006,-2.07686 -0.009,-3.82985 -0.007,-3.89552 0.002,-0.0657 0.0246,-10.30821 0.0497,-22.7612 l 0.0456,-22.64179 h 0.1998 0.19979 l 0.0119,6.64179 0.0119,6.6418 0.0393,-5.91045 c 0.0216,-3.25075 0.0431,-6.23955 0.0478,-6.64179 l 0.009,-0.73135 h 7.4845 7.48451 l 0.55495,1.20896 c 1.47186,3.2064 2.76098,6.93998 3.87626,11.22657 l 0.24534,0.94299 -9.5e-4,1.74358 c -6.3e-4,1.14846 0.0188,1.71301 0.057,1.65402 0.0323,-0.05 0.046,-0.34027 0.0308,-0.65671 -0.0349,-0.72968 0.0607,-0.35017 0.12198,0.48409 0.0297,0.40414 0.0221,0.58601 -0.0255,0.61547 -0.0372,0.023 -0.0639,0.14097 -0.0592,0.26217 l 0.008,0.22036 0.0428,-0.23881 c 0.0625,-0.34914 0.0704,-0.22273 0.0969,1.55224 0.0132,0.88657 0.0485,1.70597 0.0785,1.82089 0.0358,0.13725 0.0476,-0.27249 0.0344,-1.19403 -0.0166,-1.15684 -0.0117,-1.26682 0.0275,-0.62686 0.0262,0.42686 0.0507,8.26492 0.0544,17.41791 l 0.007,16.64179 h -10.35821 -10.35821 z"
     id="path7308"
     inkscape:connector-curvature="0" />
  <path
     style="fill:#000000;stroke:#000000;stroke-width:0.0001791;stroke-miterlimit:4;stroke-dasharray:none;stroke-opacity:1"
     d="m 171.25975,220.63625 c -0.008,-5.40065 0.002,-12.31701 0.0438,-31.64179 l 0.0391,-18.01493 h 0.19979 0.19978 l 0.0118,5.14926 0.0118,5.14925 0.0395,-4.80597 c 0.0217,-2.64328 0.0433,-4.96045 0.0479,-5.14925 l 0.008,-0.34329 h 7.48495 7.48496 l 0.45026,0.97015 c 1.54366,3.32609 2.9237,7.29242 3.95956,11.38009 l 0.26678,1.05275 0.008,1.43283 c 0.005,0.78806 0.0237,1.25821 0.0424,1.04478 l 0.034,-0.38806 0.049,0.29851 c 0.0684,0.41743 0.11136,1.28757 0.15752,3.19403 l 0.0397,1.64179 0.0215,-1.19403 0.0215,-1.19403 0.0424,0.80597 c 0.0233,0.44328 0.0456,8.28134 0.0495,17.41791 l 0.007,16.61194 h -10.35821 -10.35821 z m 20.40264,-32.29851 c -0.0166,-0.041 -0.0301,-0.007 -0.0301,0.0746 0,0.0821 0.0135,0.11567 0.0301,0.0746 0.0166,-0.041 0.0166,-0.10821 0,-0.14926 z"
     id="path7310"
     inkscape:connector-curvature="0" />
  <path
     style="fill:#000000;stroke:#000000;stroke-width:0.0001791;stroke-miterlimit:4;stroke-dasharray:none;stroke-opacity:1"
     d="m 171.26329,220.30789 c -0.004,-11.20058 0.004,-17.59301 0.0403,-32.68657 l 0.0402,-16.64179 h 0.19925 0.19925 l 0.0118,4.37314 0.0118,4.37313 0.0394,-3.85074 c 0.0217,-2.11791 0.0433,-4.08583 0.0479,-4.37314 l 0.009,-0.52239 h 7.48378 7.48379 l 0.31637,0.67165 c 1.564,3.32028 2.91678,7.16413 4.08839,11.61695 l 0.27229,1.03487 0.005,1.26364 c 0.003,0.695 0.0241,1.19648 0.0472,1.11439 0.0368,-0.1308 0.0475,-0.11603 0.0866,0.1194 0.0695,0.41866 0.15089,2.05895 0.1674,3.37313 l 0.015,1.19403 0.0319,-1.07462 0.0319,-1.07463 0.0446,1.04478 c 0.0245,0.57462 0.0447,8.41268 0.0448,17.41791 l 1.8e-4,16.37313 h -10.35821 -10.35821 z"
     id="path7312"
     inkscape:connector-curvature="0" />
  <path
     style="fill:#000000;stroke:#000000;stroke-width:0.0001791;stroke-miterlimit:4;stroke-dasharray:none;stroke-opacity:1"
     d=""
     id="path7314"
     inkscape:connector-curvature="0" />
  <path
     style="fill:#000000;stroke:#000000;stroke-width:0.0001791;stroke-miterlimit:4;stroke-dasharray:none;stroke-opacity:1"
     d="m 190.10797,179.2381 c -1.51588,-4.97858 -3.72628,-9.69611 -6.43004,-13.72328 -1.82338,-2.71588 -3.52014,-4.75984 -6.02013,-7.25203 -1.7099,-1.70455 -4.06684,-3.85991 -4.71314,-4.31003 -0.0775,-0.054 -0.12984,-0.13122 -0.11635,-0.17168 0.032,-0.0961 2.17266,1.62227 3.1826,2.5548 1.08839,1.00495 3.64933,3.6153 4.34716,4.43102 1.26059,1.47355 2.96284,3.75603 3.96546,5.31711 2.09712,3.26525 3.80632,6.81911 5.06784,10.53731 0.48144,1.419 1.06054,3.39343 1.02583,3.49756 -0.0118,0.0354 -0.15095,-0.36096 -0.30923,-0.88078 z"
     id="path7316"
     inkscape:connector-curvature="0" />
  <path
     style="fill:#000000;stroke:#000000;stroke-width:0.0001791;stroke-miterlimit:4;stroke-dasharray:none;stroke-opacity:1"
     d="m 171.74225,162.75068 v -9.32339 h 0.18313 c 0.14703,0 0.1767,0.0206 0.15051,0.10448 -0.0668,0.21406 -0.15435,4.84971 -0.21841,11.56717 -0.0363,3.80895 -0.0771,6.93656 -0.0906,6.95025 -0.0135,0.0137 -0.0246,-4.17065 -0.0246,-9.29851 z"
     id="path7318"
     inkscape:connector-curvature="0" />
  <path
     style="fill:#000000;stroke:#000000;stroke-width:0.0001791;stroke-miterlimit:4;stroke-dasharray:none;stroke-opacity:1"
     d="m 171.31406,172.96461 0.0196,-20.04478 -2.46733,-1.38377 c -2.56493,-1.43851 -3.71524,-2.036 -5.09533,-2.64658 -2.08746,-0.92354 -5.07546,-2.01186 -6.89439,-2.51116 -3.49238,-0.95865 -8.19583,-1.46184 -14.2985,-1.52971 -3.1061,-0.0345 -4.88858,0.0137 -7.19403,0.19462 -1.12542,0.0883 -3.38351,0.35121 -3.59702,0.41876 -0.094,0.0297 -0.10448,-0.0187 -0.10448,-0.48183 v -0.51488 l 0.45107,-0.20556 0.45107,-0.20556 h 6.66935 c 7.39532,0 8.14639,0.0253 10.84642,0.3649 7.7875,0.97957 15.3132,3.92644 21.73135,8.50944 l 0.65671,0.46894 -0.21793,0.0182 -0.21794,0.0182 -0.04,0.7878 c -0.022,0.43329 -0.0304,1.09675 -0.0187,1.47436 0.0209,0.67252 0.0216,0.66812 0.0341,-0.21471 0.018,-1.27104 0.0757,-1.99424 0.15919,-1.99424 0.0379,0 0.17963,0.0815 0.31502,0.18103 l 0.24616,0.18103 0.0261,-0.13626 c 0.0241,-0.12543 0.0268,-0.12389 0.0343,0.0194 0.006,0.1229 0.19976,0.31898 0.91858,0.9316 1.23111,1.04923 2.45905,2.1811 3.92828,3.62094 0.9367,0.91796 0.88711,0.86344 -0.20972,-0.23059 -1.26798,-1.26475 -2.65338,-2.5665 -3.76372,-3.53647 -0.1968,-0.17192 -0.33096,-0.31257 -0.29812,-0.31255 0.0681,4e-5 1.39334,1.07544 2.2388,1.81674 0.98842,0.86664 4.40818,4.37316 5.1558,5.2866 4.07536,4.97925 6.83195,9.9686 8.76542,15.86521 0.19652,0.59932 0.34798,1.11765 0.33658,1.15184 -0.0114,0.0342 -0.13702,-0.29022 -0.27916,-0.72092 -0.14215,-0.43069 -0.26896,-0.77257 -0.2818,-0.75972 -0.0128,0.0128 0.13535,0.49167 0.32932,1.06407 0.19398,0.5724 0.35707,0.98699 0.36242,0.92132 0.0145,-0.17814 0.12356,0.1812 0.14491,0.47761 0.009,0.13134 0.20687,0.88358 0.43869,1.67164 0.23181,0.78806 0.53129,1.8549 0.6655,2.37075 0.23749,0.91281 0.24411,0.96473 0.24705,1.9403 0.002,0.6796 0.0304,1.09851 0.0881,1.30089 0.0974,0.34196 0.19838,1.91832 0.21792,3.40299 l 0.0134,1.01492 0.0323,-0.89552 0.0323,-0.89552 0.0448,1.00953 c 0.0246,0.55525 0.0448,1.40823 0.0448,1.89553 v 0.88598 l -10.34328,1e-5 h -10.34329 z m 0.56325,-7.29851 c 0.0296,-4.97232 0.0275,-5.17449 -0.0191,-1.85075 -0.0288,2.05224 -0.0607,4.09403 -0.071,4.53732 -0.0103,0.44328 -0.0312,-2.7403 -0.0464,-7.07463 -0.0267,-7.59422 -0.0284,-7.69185 -0.0468,-2.68657 -0.0105,2.85672 0.003,8.43135 0.029,12.38806 0.0471,7.04709 0.0488,7.1233 0.0846,3.73135 0.0201,-1.90448 0.0515,-5.97463 0.0697,-9.04478 z m 17.32074,10.78301 c -0.0529,-0.15511 -0.10642,-0.27169 -0.11905,-0.25906 -0.0126,0.0126 0.0203,0.14987 0.0731,0.30498 0.0529,0.15511 0.10642,0.27169 0.11905,0.25906 0.0126,-0.0126 -0.0203,-0.14987 -0.0731,-0.30498 z m -0.29759,-0.80689 c -0.0873,-0.23557 -0.16873,-0.41833 -0.18091,-0.40615 -0.0122,0.0122 0.0491,0.21511 0.13614,0.45093 0.0871,0.23582 0.16848,0.41858 0.18091,0.40614 0.0124,-0.0124 -0.0488,-0.21535 -0.13614,-0.45092 z m -0.25539,-0.64328 c -0.0704,-0.12103 -0.0874,-0.0823 -0.0298,0.0678 0.0205,0.0533 0.0498,0.0844 0.0652,0.0691 0.0154,-0.0154 -5.4e-4,-0.077 -0.0354,-0.1369 z m -0.11941,-0.29851 c -0.0704,-0.12103 -0.0874,-0.0823 -0.0298,0.0678 0.0205,0.0534 0.0498,0.0844 0.0652,0.0691 0.0154,-0.0154 -5.3e-4,-0.077 -0.0354,-0.1369 z m -0.1194,-0.29851 c -0.0704,-0.12103 -0.0874,-0.0823 -0.0298,0.0678 0.0205,0.0534 0.0498,0.0844 0.0652,0.0691 0.0154,-0.0154 -5.4e-4,-0.077 -0.0354,-0.1369 z m -0.14948,-0.35741 c -0.0505,-0.0932 -0.0929,-0.15057 -0.0942,-0.12749 -0.004,0.071 0.13485,0.34816 0.16123,0.32177 0.0136,-0.0136 -0.0165,-0.10108 -0.067,-0.19428 z m -0.14903,-0.35901 c -0.0704,-0.12102 -0.0874,-0.0823 -0.0298,0.0678 0.0205,0.0534 0.0498,0.0844 0.0652,0.0691 0.0154,-0.0154 -5.3e-4,-0.077 -0.0354,-0.13691 z m -0.1791,-0.41791 c -0.0704,-0.12102 -0.0874,-0.0823 -0.0298,0.0678 0.0205,0.0534 0.0498,0.0844 0.0652,0.0691 0.0154,-0.0154 -5.4e-4,-0.077 -0.0354,-0.13691 z m -0.20918,-0.47681 c -0.0505,-0.0932 -0.0929,-0.15057 -0.0942,-0.12749 -0.004,0.071 0.13485,0.34816 0.16124,0.32177 0.0136,-0.0137 -0.0165,-0.10108 -0.067,-0.19428 z m -0.26843,-0.59781 c -0.0704,-0.12103 -0.0874,-0.0823 -0.0298,0.0678 0.0205,0.0533 0.0498,0.0844 0.0652,0.0691 0.0154,-0.0154 -5.4e-4,-0.077 -0.0354,-0.1369 z m -0.96935,-1.94478 c -1.73514,-3.46748 -4.69598,-7.73433 -7.01425,-10.10819 -0.22647,-0.23189 -0.28825,-0.28562 -0.13731,-0.1194 2.704,2.97766 5.13699,6.46185 6.93341,9.92908 0.29347,0.56642 0.54495,1.02985 0.55885,1.02985 0.0139,0 -0.13942,-0.3291 -0.3407,-0.73134 z m -14.5157,-12.86936 c -0.01,-0.4823 -0.0182,-0.0709 -0.0182,0.91414 3e-5,0.98507 0.008,1.37968 0.0182,0.8769 0.01,-0.50277 0.01,-1.30874 -5e-5,-1.79104 z"
     id="path7320"
     inkscape:connector-curvature="0" />
  <path
     style="fill:#000000;stroke:#000000;stroke-width:0.0001791;stroke-miterlimit:4;stroke-dasharray:none;stroke-opacity:1"
     d="m 171.31252,172.96461 0.0244,-20.04478 -2.58837,-1.44144 c -2.74296,-1.52752 -3.58457,-1.9658 -4.84812,-2.52468 -2.88229,-1.27488 -6.01517,-2.36909 -8.21786,-2.87021 -5.39621,-1.22767 -15.1288,-1.62419 -21.82089,-0.88902 -1.03902,0.11414 -1.67278,0.19858 -2.01493,0.26847 l -0.16418,0.0335 v -0.5156 -0.5156 l 0.45819,-0.2088 0.45818,-0.2088 7.25823,0.0241 c 7.58476,0.0252 7.60412,0.0258 9.97466,0.31435 4.36795,0.53159 8.53979,1.62689 12.56716,3.29946 3.17055,1.31673 6.50184,3.15697 9.22388,5.09536 l 0.86567,0.61645 -0.22388,0.0185 -0.22388,0.0185 0.011,0.33968 0.011,0.33968 0.0219,-0.31343 c 0.0258,-0.36887 0.0773,-0.38559 0.4208,-0.13673 0.24209,0.17537 0.24412,0.1757 0.26948,0.0448 0.0251,-0.12949 0.0257,-0.12958 0.0337,-0.005 0.005,0.075 0.0597,0.14084 0.13354,0.16016 0.069,0.018 0.109,0.0593 0.0889,0.0918 -0.02,0.0324 0.25262,0.30808 0.60593,0.61253 0.35332,0.30445 0.91106,0.7954 1.23941,1.09099 0.32836,0.29559 0.50299,0.43595 0.38806,0.31191 -0.11492,-0.12404 -0.59131,-0.56409 -1.05864,-0.97787 -0.46732,-0.41379 -0.83758,-0.76444 -0.82279,-0.77922 0.0348,-0.0348 0.98488,0.72439 1.97099,1.57493 1.02419,0.88339 4.48609,4.38657 5.30621,5.3695 0.85702,1.02714 2.42888,3.12363 3.1781,4.23881 2.53671,3.77577 4.53637,7.98165 5.93203,12.47675 0.2332,0.7511 0.41039,1.4011 0.39376,1.44444 -0.0166,0.0433 -0.002,0.0788 0.0316,0.0788 0.0359,0 0.045,0.0532 0.0216,0.12688 -0.0298,0.094 -0.0205,0.11467 0.036,0.0798 0.0543,-0.0335 0.0652,-0.0184 0.0379,0.0527 -0.0211,0.0549 0.13353,0.69735 0.34354,1.4277 0.79597,2.76817 0.85476,3.04844 0.89212,4.25328 0.0183,0.59105 0.0616,1.1917 0.0961,1.33478 0.0724,0.29999 0.17044,1.9244 0.1896,3.14284 l 0.0132,0.83582 0.0328,-0.71642 0.0328,-0.71642 0.0446,0.95523 c 0.0245,0.52537 0.0447,1.37835 0.0448,1.89552 v 0.9403 H 181.6344 171.28794 l 0.0244,-20.04478 z m 18.15444,4.23051 c -0.0368,-0.10551 -0.0773,-0.18138 -0.0901,-0.16861 -0.0128,0.0128 0.007,0.10954 0.0437,0.21505 0.0368,0.1055 0.0773,0.18138 0.0901,0.16861 0.0128,-0.0128 -0.007,-0.10954 -0.0437,-0.21505 z m -17.62504,-8.78275 -0.003,-2.65672 -0.0403,1.91045 c -0.0222,1.05075 -0.0387,3.49552 -0.0368,5.43284 l 0.003,3.52238 0.0397,-2.77611 c 0.0218,-1.52687 0.0384,-3.97165 0.0368,-5.43284 z m 17.33632,7.97843 c -0.0836,-0.21992 -0.13048,-0.19809 -0.0528,0.0246 0.0349,0.10018 0.0746,0.17107 0.0881,0.15753 0.0135,-0.0135 -0.002,-0.0955 -0.0353,-0.18215 z m -0.23467,-0.61574 c -0.0704,-0.12103 -0.0874,-0.0823 -0.0298,0.0678 0.0205,0.0534 0.0498,0.0844 0.0652,0.0691 0.0154,-0.0154 -5.3e-4,-0.077 -0.0354,-0.1369 z m -0.2985,-0.77612 c -0.0704,-0.12103 -0.0874,-0.0823 -0.0298,0.0678 0.0205,0.0533 0.0498,0.0844 0.0652,0.0691 0.0154,-0.0154 -5.4e-4,-0.077 -0.0354,-0.1369 z m -0.11941,-0.29851 c -0.0704,-0.12103 -0.0874,-0.0823 -0.0298,0.0678 0.0205,0.0534 0.0498,0.0844 0.0652,0.0691 0.0154,-0.0154 -5.3e-4,-0.077 -0.0354,-0.1369 z m -0.1194,-0.29851 c -0.0704,-0.12103 -0.0874,-0.0823 -0.0298,0.0678 0.0205,0.0534 0.0498,0.0844 0.0652,0.0691 0.0154,-0.0154 -5.4e-4,-0.077 -0.0354,-0.1369 z m -0.29851,-0.71642 c -0.0704,-0.12102 -0.0874,-0.0823 -0.0298,0.0678 0.0205,0.0534 0.0498,0.0844 0.0652,0.0691 0.0154,-0.0154 -5.3e-4,-0.077 -0.0354,-0.13691 z m -1.76848,-3.72089 c -0.11575,-0.22985 -0.22389,-0.41791 -0.24031,-0.41791 -0.0164,0 0.0649,0.18806 0.18061,0.41791 0.11575,0.22985 0.22389,0.41791 0.24031,0.41791 0.0164,0 -0.0649,-0.18806 -0.18061,-0.41791 z m -0.47761,-0.89552 c -0.0509,-0.0985 -0.10605,-0.17911 -0.12247,-0.17911 -0.0164,0 0.0118,0.0806 0.0628,0.17911 0.0509,0.0985 0.10605,0.1791 0.12247,0.1791 0.0164,0 -0.0118,-0.0806 -0.0628,-0.1791 z m -0.29851,-0.53732 c -0.0509,-0.0985 -0.10605,-0.1791 -0.12247,-0.1791 -0.0164,0 0.0118,0.0806 0.0628,0.1791 0.0509,0.0985 0.10605,0.17911 0.12247,0.17911 0.0164,0 -0.0118,-0.0806 -0.0628,-0.17911 z m -0.20895,-0.35821 c -0.0351,-0.0657 -0.0773,-0.1194 -0.0938,-0.1194 -0.0164,0 -0.001,0.0537 0.0341,0.1194 0.0352,0.0657 0.0773,0.11941 0.0938,0.11941 0.0164,0 0.001,-0.0537 -0.0341,-0.11941 z m -0.20896,-0.35821 c -0.0509,-0.0985 -0.10605,-0.1791 -0.12247,-0.1791 -0.0164,0 0.0118,0.0806 0.0628,0.1791 0.0509,0.0985 0.10605,0.17911 0.12247,0.17911 0.0164,0 -0.0118,-0.0806 -0.0628,-0.17911 z m -0.2802,-0.46778 c -0.20492,-0.34072 -0.37724,-0.55943 -0.21942,-0.27848 0.19032,0.33879 0.30026,0.50746 0.33077,0.50746 0.0145,0 -0.0356,-0.10304 -0.11135,-0.22898 z m -0.39989,-0.65162 c -0.0316,-0.0575 -0.10253,-0.15821 -0.15765,-0.22388 -0.0962,-0.11464 -0.0968,-0.11345 -0.015,0.0299 0.15641,0.27387 0.17305,0.29851 0.20164,0.29851 0.0156,0 0.003,-0.047 -0.029,-0.10448 z m -0.70459,-1.09414 c -0.0593,-0.10103 -0.14601,-0.21521 -0.19264,-0.25373 -0.0466,-0.0385 -0.009,0.0441 0.0826,0.18369 0.19326,0.29303 0.26947,0.34152 0.11008,0.07 z m -0.74182,-1.07326 c -0.13944,-0.19878 -0.2822,-0.37877 -0.31724,-0.39997 -0.0351,-0.0212 0.005,0.0541 0.0889,0.1674 0.0839,0.11327 0.21336,0.29325 0.28765,0.39997 0.0743,0.10672 0.14838,0.19403 0.16466,0.19403 0.0163,0 -0.0845,-0.16264 -0.22393,-0.36143 z m -11.1127,-1.50163 c -0.0114,-0.23949 -0.0207,-0.0593 -0.0208,0.40037 -1.2e-4,0.45971 0.009,0.65566 0.0207,0.43545 0.0114,-0.2202 0.0115,-0.59632 1.8e-4,-0.83582 z m 10.71844,0.95261 c -0.0318,-0.041 -0.29961,-0.39701 -0.59518,-0.79104 -0.59439,-0.79239 -1.71175,-2.14944 -1.82594,-2.21763 -0.0402,-0.024 0.0762,0.12933 0.25858,0.34073 0.45738,0.53011 1.20385,1.46526 1.72456,2.16048 0.23979,0.32015 0.44942,0.58209 0.46586,0.58209 0.0164,0 0.004,-0.0336 -0.0279,-0.0746 z m -2.46431,-3.10769 c 0,-0.01 -0.10075,-0.11072 -0.22389,-0.22388 l -0.22388,-0.20574 0.20575,0.22388 c 0.19149,0.20838 0.24202,0.25133 0.24202,0.20574 z m -8.19524,-2.83127 c -0.0129,-0.12387 -0.0237,-0.0372 -0.024,0.19269 -2.4e-4,0.22986 0.0103,0.3312 0.0235,0.22522 0.0132,-0.10599 0.0134,-0.29405 4.8e-4,-0.41791 z m 4.19524,-1.22726 c 0,-0.009 -0.15448,-0.1638 -0.34329,-0.34328 l -0.34328,-0.32632 0.32632,0.34329 c 0.30316,0.31892 0.36025,0.37063 0.36025,0.32631 z m -4.13485,-2.14487 c -0.0117,-0.20651 -0.0213,-0.0531 -0.0215,0.34094 -1.2e-4,0.39403 0.009,0.563 0.0213,0.37548 0.0118,-0.18752 0.0119,-0.50991 2.4e-4,-0.71642 z"
     id="path7322"
     inkscape:connector-curvature="0" />
  <path
     style="fill:#000000;stroke:#000000;stroke-width:0.0001791;stroke-miterlimit:4;stroke-dasharray:none;stroke-opacity:1"
     d="m 171.30756,172.96461 0.0301,-20.04478 -2.37982,-1.3223 c -2.9624,-1.64601 -3.62165,-1.99157 -4.85743,-2.54609 -2.73287,-1.2263 -5.85232,-2.33869 -8.0597,-2.87405 -2.49588,-0.60535 -5.64885,-0.99835 -9.9403,-1.239 -1.73853,-0.0975 -7.64951,-0.0973 -9.13432,2.5e-4 -1.91847,0.12608 -4.66325,0.40753 -5.14926,0.528 -0.13154,0.0326 -0.13433,0.0225 -0.13433,-0.48452 v -0.51782 l 0.45128,-0.2085 0.45128,-0.20851 7.29499,0.0237 c 7.67859,0.0249 7.62785,0.0233 10.01141,0.31289 7.62619,0.92653 15.078,3.77151 21.43283,8.18272 0.44329,0.3077 0.88657,0.62628 0.98508,0.70795 l 0.1791,0.14849 -0.22388,0.002 c -0.22025,0.002 -0.22372,0.006 -0.21432,0.22603 0.009,0.22042 0.01,0.22088 0.0336,0.0298 0.0289,-0.23315 0.0985,-0.24119 0.38755,-0.0448 0.26106,0.1774 0.28453,0.18103 0.28946,0.0448 0.003,-0.08 0.0164,-0.0731 0.0578,0.0299 0.0297,0.0739 0.075,0.13529 0.1007,0.13647 0.0257,0.001 0.12729,0.0714 0.2258,0.15606 0.12857,0.11048 0.14542,0.14265 0.0597,0.11403 -0.14613,-0.0488 -0.18777,-0.0886 0.80597,0.76952 0.41045,0.35442 0.61194,0.51329 0.44776,0.35304 -0.16418,-0.16025 -0.48656,-0.45852 -0.71642,-0.66283 -0.22985,-0.20431 -0.38897,-0.37198 -0.3536,-0.37261 0.0696,-0.001 1.20201,0.91073 2.1148,1.70313 0.78944,0.68531 4.4627,4.40692 5.06489,5.13155 4.0634,4.88962 6.91659,9.96242 8.84807,15.73134 0.54202,1.61888 0.83868,2.66279 0.7916,2.78548 -0.0258,0.0672 -0.0155,0.0857 0.0316,0.0566 0.0613,-0.0379 0.10269,0.1097 0.0774,0.27592 -0.004,0.0239 0.14182,0.56117 0.32323,1.19403 0.75777,2.64362 0.8433,3.05512 0.91548,4.40438 0.036,0.67313 0.0932,1.42537 0.12716,1.67164 0.0339,0.24627 0.0839,1.06567 0.11111,1.8209 0.0345,0.95794 0.0553,1.20164 0.0689,0.80597 l 0.0195,-0.56717 0.0415,0.68657 c 0.0228,0.37761 0.0451,1.2306 0.0494,1.89552 l 0.008,1.20895 H 181.6294 171.27758 Z m 0.53449,-4.28358 -0.003,-1.97015 -0.0399,2 c -0.022,1.1 -0.0385,3.07462 -0.0368,4.38806 l 0.003,2.38806 0.0401,-2.41791 c 0.022,-1.32986 0.0386,-3.30448 0.0368,-4.38806 z m 14.49722,1.28358 c -0.0509,-0.0985 -0.10605,-0.17911 -0.12247,-0.17911 -0.0164,0 0.0118,0.0806 0.0628,0.17911 0.0509,0.0985 0.10605,0.1791 0.12247,0.1791 0.0164,0 -0.0118,-0.0806 -0.0628,-0.1791 z m -0.74627,-1.37314 c -0.0351,-0.0657 -0.0773,-0.1194 -0.0937,-0.1194 -0.0164,0 -0.001,0.0537 0.0341,0.1194 0.0352,0.0657 0.0773,0.11941 0.0937,0.11941 0.0164,0 10e-4,-0.0537 -0.0341,-0.11941 z m -0.2388,-0.41791 c -0.0351,-0.0657 -0.0773,-0.1194 -0.0938,-0.1194 -0.0164,0 -0.001,0.0537 0.0341,0.1194 0.0352,0.0657 0.0773,0.11941 0.0938,0.11941 0.0164,0 0.001,-0.0537 -0.0341,-0.11941 z m -2.98508,-4.55985 c 0,-0.0124 -0.047,-0.0594 -0.10448,-0.10448 -0.0947,-0.0743 -0.0968,-0.0721 -0.0225,0.0225 0.078,0.0995 0.12702,0.13108 0.12702,0.0819 z m -0.1791,-0.23686 c 0,-0.0113 -0.0605,-0.0718 -0.13433,-0.13433 l -0.13433,-0.11373 0.11373,0.13433 c 0.10688,0.12623 0.15493,0.1615 0.15493,0.11373 z m -0.23881,-0.30045 c 0,-0.0124 -0.047,-0.0594 -0.10448,-0.10448 -0.0947,-0.0743 -0.0968,-0.0722 -0.0225,0.0225 0.078,0.0994 0.12702,0.13107 0.12702,0.0819 z m -0.35821,-0.45508 c -0.10402,-0.13134 -0.20257,-0.2388 -0.21899,-0.2388 -0.0164,0 0.0553,0.10746 0.15929,0.2388 0.10403,0.13135 0.20257,0.23881 0.21899,0.23881 0.0164,0 -0.0553,-0.10746 -0.15929,-0.23881 z m -0.2388,-0.3191 c 0,-0.0113 -0.0605,-0.0718 -0.13433,-0.13433 l -0.13433,-0.11373 0.11373,0.13433 c 0.10688,0.12623 0.15493,0.16151 0.15493,0.11373 z m -0.23881,-0.29735 c 0,-0.0107 -0.0739,-0.0846 -0.16418,-0.16418 l -0.16418,-0.14474 0.14474,0.16418 c 0.13527,0.15345 0.18362,0.19156 0.18362,0.14474 z m -0.29851,-0.35821 c 0,-0.0107 -0.0739,-0.0846 -0.16418,-0.16418 l -0.16418,-0.14474 0.14474,0.16418 c 0.13528,0.15345 0.18362,0.19156 0.18362,0.14474 z m -0.35821,-0.41907 c 0,-0.0113 -0.0604,-0.0718 -0.13433,-0.13433 l -0.13432,-0.11373 0.11373,0.13433 c 0.10688,0.12624 0.15492,0.16151 0.15492,0.11373 z m -0.35821,-0.41791 c 0,-0.0113 -0.0604,-0.0718 -0.13432,-0.13433 l -0.13433,-0.11373 0.11373,0.13433 c 0.10688,0.12624 0.15492,0.16151 0.15492,0.11373 z m -4.89552,-4.8936 c 0,-0.0103 -0.0873,-0.0976 -0.19403,-0.19403 l -0.19403,-0.17535 0.17535,0.19403 c 0.16345,0.18086 0.21271,0.22147 0.21271,0.17535 z m -3.18251,-0.98019 c -0.0151,-0.0581 -0.0285,-0.025 -0.0297,0.0735 -0.001,0.0985 0.0112,0.14604 0.0275,0.10562 0.0164,-0.0404 0.0173,-0.12102 0.002,-0.17911 z"
     id="path7324"
     inkscape:connector-curvature="0" />
  <path
     style="fill:#000000;stroke:#000000;stroke-width:0.0001791;stroke-miterlimit:4;stroke-dasharray:none;stroke-opacity:1"
     d="m 171.30294,172.96461 0.0361,-20.04478 -2.55958,-1.41311 c -3.36637,-1.85854 -3.29194,-1.81941 -4.50933,-2.371 -2.36918,-1.07346 -5.85481,-2.34822 -7.75174,-2.83495 -4.17556,-1.07139 -11.06501,-1.62285 -17.69109,-1.41606 -2.54877,0.0795 -5.82281,0.35283 -6.96586,0.58144 l -0.17887,0.0358 0.001,-0.52985 0.001,-0.52985 0.44042,-0.19403 0.44041,-0.19403 h 6.66523 c 3.85039,0 7.09918,0.0259 7.69278,0.0613 8.75155,0.52188 17.10314,3.41359 24.40593,8.45048 0.50607,0.34904 0.9731,0.68564 1.03786,0.748 0.11647,0.11215 0.11534,0.11337 -0.10448,0.11337 -0.20459,0 -0.22157,0.013 -0.21409,0.16418 0.007,0.14077 0.0118,0.14503 0.034,0.0299 0.0332,-0.1726 0.11738,-0.16937 0.3886,0.0149 0.26139,0.17762 0.26921,0.17877 0.30423,0.0448 0.0228,-0.0871 0.0284,-0.0884 0.0342,-0.008 0.004,0.0531 0.1181,0.17012 0.25397,0.26004 0.13588,0.0899 0.22187,0.1808 0.19108,0.20196 -0.0308,0.0212 0.17371,0.23563 0.45444,0.47659 l 0.51042,0.43812 -0.44776,-0.42199 c -0.24627,-0.23209 -0.41991,-0.42252 -0.38586,-0.42319 0.0765,-10e-4 1.274,0.96162 2.1172,1.70277 0.95221,0.83696 4.48424,4.43292 5.21654,5.31095 0.71879,0.86184 2.09142,2.67655 2.82234,3.73134 2.392,3.45186 4.40837,7.49015 5.83346,11.68299 0.42506,1.25059 0.91508,2.91267 0.95834,3.25054 0.015,0.11736 0.13918,0.60011 0.27591,1.07277 0.77709,2.68633 0.83834,2.97258 0.92491,4.32206 0.0442,0.68955 0.10824,1.47926 0.14224,1.75491 0.034,0.27564 0.0827,1.04131 0.10821,1.70149 0.0295,0.76399 0.0573,1.0701 0.0763,0.84211 0.0419,-0.50322 0.11889,1.04848 0.11918,2.40298 v 1.02985 h -10.3571 -10.3571 l 0.0361,-20.04477 z m 0.48396,-1.25373 c -0.01,-0.48433 -0.0182,-0.0881 -0.0182,0.88059 0,0.96866 0.008,1.36493 0.0182,0.8806 0.01,-0.48433 0.01,-1.27686 0,-1.76119 z m 0.0596,-3.37661 c -0.0103,-0.40033 -0.0187,-0.0562 -0.0187,0.76467 4e-5,0.82089 0.008,1.14843 0.0187,0.72786 0.0103,-0.42056 0.0103,-1.09221 -6e-5,-1.49253 z m 9.20916,-6.3922 c 0,-0.0124 -0.047,-0.0594 -0.10448,-0.10448 -0.0947,-0.0743 -0.0968,-0.0721 -0.0225,0.0225 0.078,0.0994 0.12702,0.13107 0.12702,0.0819 z m -0.29851,-0.35821 c 0,-0.0124 -0.047,-0.0594 -0.10448,-0.10448 -0.0947,-0.0743 -0.0968,-0.0721 -0.0225,0.0225 0.078,0.0994 0.12702,0.13107 0.12702,0.0819 z m -5.61194,-5.73135 c 0,-0.0124 -0.047,-0.0594 -0.10448,-0.10447 -0.0947,-0.0743 -0.0968,-0.0721 -0.0225,0.0225 0.078,0.0995 0.12702,0.13107 0.12702,0.0819 z m -0.65672,-0.59701 c 0,-0.0124 -0.047,-0.0594 -0.10447,-0.10448 -0.0947,-0.0743 -0.0968,-0.0721 -0.0225,0.0225 0.078,0.0994 0.12701,0.13108 0.12701,0.0819 z"
     id="path7326"
     inkscape:connector-curvature="0" />
  <path
     style="fill:#000000;stroke:#000000;stroke-width:0.0001791;stroke-miterlimit:4;stroke-dasharray:none;stroke-opacity:1"
     d="m 171.29555,172.96461 0.0416,-20.04478 -2.61833,-1.4428 c -3.58922,-1.9778 -4.65115,-2.49405 -7.12579,-3.46413 -2.98076,-1.1685 -5.30593,-1.85267 -7.67061,-2.25706 -5.88236,-1.00595 -14.8841,-1.19827 -20.89655,-0.44645 -0.52538,0.0657 -1.04254,0.13552 -1.14926,0.15517 l -0.19403,0.0357 v -0.53141 -0.53142 l 0.44568,-0.19165 0.44567,-0.19164 h 6.65218 c 3.78234,0 7.11221,0.0263 7.71851,0.0609 7.60141,0.43388 15.09961,2.76103 21.78274,6.76053 0.71099,0.42549 2.825,1.82418 3.37313,2.23176 l 0.38806,0.28855 -0.20421,0.0306 c -0.11231,0.0169 -0.2151,0.0709 -0.22842,0.1202 -0.0215,0.0796 -0.0171,0.0796 0.0395,0 0.0552,-0.0775 0.10382,-0.0675 0.36275,0.0746 0.26342,0.1446 0.29954,0.15172 0.30324,0.0597 0.004,-0.0958 0.008,-0.0961 0.0448,-0.004 0.0223,0.0553 0.15578,0.18377 0.29659,0.28561 0.1408,0.10183 0.2425,0.20699 0.226,0.23369 -0.0165,0.0267 0.0564,0.12654 0.16191,0.22186 l 0.1919,0.17331 -0.17535,-0.19403 c -0.70342,-0.77836 1.53361,1.03336 2.89177,2.34198 1.30261,1.25509 3.73715,3.77266 4.2855,4.43166 1.17038,1.40652 2.79657,3.61881 3.69914,5.03233 2.43546,3.81423 4.37166,8.10824 5.66054,12.55367 0.17874,0.61646 0.32497,1.1694 0.32497,1.22876 0,0.0594 0.16218,0.68335 0.3604,1.38663 0.65458,2.32248 0.75777,2.80243 0.80119,3.72647 0.0216,0.4597 0.0767,1.18507 0.12243,1.61194 0.0457,0.42686 0.10363,1.2597 0.12866,1.85074 0.025,0.59105 0.0609,0.9806 0.0796,0.86567 0.0495,-0.30301 0.11909,1.13265 0.11938,2.46269 v 1.1194 h -10.36355 -10.36355 l 0.0416,-20.04477 z m 0.48997,-0.5064 c -0.0133,-0.1073 -0.0244,-0.0339 -0.0248,0.16311 -3.5e-4,0.19702 0.0105,0.28481 0.0242,0.1951 0.0136,-0.0897 0.0139,-0.2509 6.1e-4,-0.35821 z m 2.22539,-17.62062 c 0,-0.0124 -0.047,-0.0594 -0.10448,-0.10448 -0.0947,-0.0743 -0.0968,-0.0722 -0.0225,0.0225 0.078,0.0994 0.12702,0.13108 0.12702,0.0819 z"
     id="path7328"
     inkscape:connector-curvature="0" />
  <path
     style="fill:#000000;stroke:#000000;stroke-width:0.0001791;stroke-miterlimit:4;stroke-dasharray:none;stroke-opacity:1"
     d="m 171.28929,172.96461 0.0417,-20.04478 -2.35297,-1.29973 c -3.73101,-2.06093 -4.71658,-2.54272 -7.23581,-3.5372 -2.31181,-0.91259 -4.34244,-1.5776 -5.91513,-1.93715 -2.64122,-0.60382 -5.89716,-0.99206 -10.05501,-1.19895 -1.72432,-0.0858 -6.90768,-0.0868 -8.41791,-0.002 -1.98137,0.11175 -4.39529,0.34201 -5.44777,0.51965 l -0.22388,0.0378 7e-5,-0.5302 6e-5,-0.5302 0.43961,-0.19765 0.4396,-0.19764 7.3663,0.024 c 7.86017,0.0256 7.84487,0.0251 10.26183,0.34324 6.45068,0.84903 12.43886,2.8992 18.08955,6.19329 0.89404,0.52118 3.1377,1.98724 3.82089,2.49666 0.37819,0.28199 0.38385,0.29016 0.22236,0.32118 -0.16285,0.0313 -0.16088,0.0344 0.11481,0.17993 0.20981,0.11077 0.28704,0.12853 0.3064,0.0704 0.0183,-0.0549 0.0503,-0.0428 0.10913,0.0412 0.0458,0.0654 0.33172,0.30492 0.63542,0.53235 1.49638,1.12057 2.99265,2.49225 5.13138,4.70409 1.86051,1.92411 2.30521,2.44056 3.69825,4.29489 2.75621,3.66893 4.93017,7.62377 6.52087,11.8627 0.45788,1.22016 1.18173,3.46504 1.38219,4.28655 0.0921,0.37762 0.33413,1.29105 0.53775,2.02985 0.74608,2.70701 0.75287,2.75315 1.01414,6.89553 0.0394,0.62388 0.0797,1.08059 0.0897,1.01492 0.0404,-0.26599 0.10527,1.09687 0.11154,2.34329 l 0.007,1.32835 H 181.6143 171.24754 Z m 2.24401,-18.54493 c 0,-0.0124 -0.047,-0.0594 -0.10448,-0.10448 -0.0947,-0.0743 -0.0968,-0.0721 -0.0225,0.0225 0.078,0.0994 0.12702,0.13108 0.12702,0.0819 z"
     id="path7330"
     inkscape:connector-curvature="0" />
  <path
     style="fill:#000000;stroke:#000000;stroke-width:0.0001791;stroke-miterlimit:4;stroke-dasharray:none;stroke-opacity:1"
     d="m 171.26992,172.96461 0.0246,-20.04478 -2.32835,-1.29703 c -4.31524,-2.40384 -6.6663,-3.46225 -10.41791,-4.68997 -3.54128,-1.1589 -7.21426,-1.72276 -12.94189,-1.98681 -1.74525,-0.0805 -8.0722,-0.0408 -9.29692,0.0583 -1.93554,0.15659 -3.50779,0.32181 -4.40299,0.4627 l -0.22388,0.0352 v -0.53416 -0.53415 l 0.43284,-0.19004 0.43283,-0.19004 6.71642,0.001 c 6.63206,10e-4 7.97514,0.0303 9.67164,0.2111 7.80264,0.83145 14.95817,3.38607 21.42492,7.64899 0.66877,0.44086 1.42101,0.95342 1.67164,1.13902 0.42398,0.31397 0.4453,0.34003 0.30643,0.37455 -0.14241,0.0354 -0.13725,0.0433 0.11258,0.17252 0.21118,0.10924 0.27163,0.11996 0.31251,0.0555 0.035,-0.0552 0.051,-0.0578 0.0516,-0.008 4.8e-4,0.0394 0.30315,0.30553 0.67255,0.59136 1.80028,1.39296 3.32291,2.80113 5.48995,5.07728 1.80252,1.89327 2.86017,3.18923 4.45082,5.45372 2.27333,3.23637 4.37784,7.3539 5.73664,11.22388 0.43828,1.24826 0.90387,2.76366 1.11891,3.64179 0.11659,0.47612 0.32968,1.28209 0.47354,1.79104 0.14385,0.50896 0.36851,1.36866 0.49923,1.91045 0.24695,1.02349 0.30902,1.60789 0.4914,4.62687 0.0337,0.55821 0.0886,1.09552 0.12186,1.19403 0.0333,0.0985 0.0756,1.00522 0.0941,2.01492 l 0.0336,1.83582 h -10.37661 -10.3766 z"
     id="path7332"
     inkscape:connector-curvature="0" />
  <path
     style="fill:#000000;stroke:#000000;stroke-width:0.0001791;stroke-miterlimit:4;stroke-dasharray:none;stroke-opacity:1"
     d="m 171.27078,172.96461 0.0237,-20.04478 -2.1194,-1.18026 c -4.12782,-2.29871 -6.41062,-3.3526 -9.82089,-4.53393 -2.87563,-0.99613 -5.1102,-1.48222 -8.56717,-1.86365 -2.95129,-0.32563 -5.50159,-0.45151 -9.13433,-0.45088 -4.08404,7.1e-4 -6.94721,0.17001 -9.71642,0.57454 l -0.25373,0.0371 v -0.53629 -0.53628 l 0.42563,-0.188 0.42562,-0.18799 6.72363,8.7e-4 c 3.698,4.7e-4 7.19378,0.0274 7.76841,0.0599 7.46811,0.42166 15.05222,2.76943 21.55224,6.67183 1.11631,0.6702 2.71524,1.71962 3.45717,2.26906 0.40668,0.30116 0.43885,0.3391 0.31298,0.3691 -0.13149,0.0313 -0.1252,0.0419 0.10011,0.16855 0.17149,0.0964 0.25266,0.11528 0.28317,0.0659 0.0296,-0.048 0.0722,-0.0326 0.13869,0.05 0.0528,0.0655 0.35116,0.31683 0.6631,0.55844 1.70514,1.32074 3.15495,2.6558 5.21406,4.80136 1.63459,1.70321 2.31018,2.49288 3.57538,4.1791 2.95804,3.94238 5.12957,7.973 6.80282,12.62687 0.38812,1.0795 1.05222,3.23375 1.21469,3.94029 0.0566,0.24627 0.21889,0.86513 0.3606,1.37524 0.60839,2.19014 0.78587,3.02325 0.85807,4.02775 0.0736,1.0241 0.27622,3.55879 0.36268,4.53731 0.029,0.32836 0.0543,1.19478 0.0561,1.92538 l 0.003,1.32835 h -10.367 -10.367 z"
     id="path7334"
     inkscape:connector-curvature="0" />
  <path
     style="fill:#ff0000;stroke:#ff0000;stroke-width:0.0001791;stroke-miterlimit:4;stroke-dasharray:none;stroke-opacity:1"
     d="m 172.4736,153.59324 c -0.18571,-0.0896 -0.16804,-0.16595 0.0384,-0.16595 0.16102,0 0.28215,0.12225 0.20128,0.20312 -0.0461,0.0461 -0.077,0.0413 -0.23967,-0.0372 z"
     id="path7336"
     inkscape:connector-curvature="0" />
  <rect
     style="fill:#ff0000;stroke:#ff0000;stroke-width:0.003;stroke-miterlimit:4;stroke-dasharray:none;stroke-opacity:1"
     id="rect7338"
     width="3.7149491"
     height="3.0395038"
     x="167.55264"
     y="348.79553"
     ry="0.268657" />
  <path
     style="fill:#ff0000;stroke:#ff0000;stroke-width:0.00012665;stroke-miterlimit:4;stroke-dasharray:none;stroke-opacity:1"
     d="m 151.59121,372.0005 c 0.0139,-1.35247 0.0344,-4.07378 0.0455,-6.04734 0.0439,-7.80973 0.0662,-10.92437 0.0902,-12.62631 l 0.0251,-1.77697 1.0822,-0.0279 c 0.5952,-0.0153 4.0932,-0.11325 7.77332,-0.21762 3.68012,-0.10437 6.74337,-0.1898 6.80722,-0.18984 0.11454,-9e-5 0.11609,0.004 0.11609,0.26963 0,0.20258 0.0201,0.29454 0.0806,0.36939 0.0805,0.0995 0.0821,0.0997 1.25591,0.11848 0.95502,0.0153 1.11198,0.0255 0.83754,0.0544 -0.18575,0.0196 -4.24633,0.0457 -9.02353,0.058 l -8.6858,0.0224 v 11.22634 11.22634 h -0.21486 -0.21486 z"
     id="path7340"
     inkscape:connector-curvature="0" />
  <path
     style="fill:#ff0000;stroke:#ff0000;stroke-width:0.00071642;stroke-miterlimit:4;stroke-dasharray:none;stroke-opacity:1"
     d="m 152.05794,431.44663 c 0,-31.32537 0.0277,-44.1403 0.0616,-28.47761 0.0339,15.66269 0.0339,41.29254 0,56.95523 -0.0339,15.66268 -0.0616,2.84776 -0.0616,-28.47762 z"
     id="path7342"
     inkscape:connector-curvature="0" />
  <path
     style="fill:#ff0000;stroke:#ff0000;stroke-width:0.00071642;stroke-miterlimit:4;stroke-dasharray:none;stroke-opacity:1"
     d="m 150.13814,495.08842 c 0.57099,-8.12286 0.96092,-33.20147 1.33278,-85.7186 0.1348,-19.03777 0.2975,-34.66653 0.36156,-34.73059 0.0641,-0.0641 0.0877,26.20484 0.0525,58.37532 l -0.0639,58.49179 -0.6414,2.32218 c -0.90828,3.28846 -1.20979,3.65318 -1.04156,1.2599 z"
     id="path7344"
     inkscape:connector-curvature="0" />
  <path
     style="fill:#ff0000;stroke:#ff0000;stroke-width:0.00035821;stroke-miterlimit:4;stroke-dasharray:none;stroke-opacity:1"
     d="m 151.57697,380.65372 c -0.0203,-5.55246 -0.005,-6.1194 0.16967,-6.1194 0.15236,0 0.1729,0.0679 0.0994,0.32836 -0.0509,0.18059 -0.12729,2.93432 -0.16967,6.1194 l -0.077,5.79104 z"
     id="path7346"
     inkscape:connector-curvature="0" />
  <path
     style="fill:#ff0000;stroke:#ff0000;stroke-width:0.00071642;stroke-miterlimit:4;stroke-dasharray:none;stroke-opacity:1"
     d="m 79.647594,511.90881 c 8.953928,-0.0347 23.676316,-0.0347 32.716416,-1e-5 9.0401,0.0347 1.71416,0.063 -16.279868,0.063 -17.99403,1e-5 -25.390477,-0.0283 -16.436548,-0.063 z"
     id="path7348"
     inkscape:connector-curvature="0" />
  <path
     style="fill:#ff0000;stroke:#ff0000;stroke-width:0.00071642;stroke-miterlimit:4;stroke-dasharray:none;stroke-opacity:1"
     d="m 59.747801,511.49577 c -7.2789,-1.32083 -13.67402,-6.10991 -17.019747,-12.74549 -0.420605,-0.83419 -0.718314,-1.56312 -0.661575,-1.61986 0.05674,-0.0567 0.657426,0.8407 1.334858,1.99431 2.615477,4.45394 6.332922,7.9746 10.652954,10.08902 2.951325,1.44451 3.742975,1.6066 9.489358,1.94296 5.69019,0.33307 61.629541,0.13153 66.741431,-0.24047 4.20027,-0.30565 6.18869,-0.75416 8.16881,-1.84257 3.14523,-1.72883 6.85842,-5.0657 9.19795,-8.26577 0.64671,-0.88458 1.22666,-1.55751 1.28877,-1.49539 0.20774,0.20774 -2.06596,3.39717 -3.56155,4.99596 -3.53234,3.77608 -7.9639,6.19089 -13.1756,7.17953 -1.6469,0.31241 -6.54246,0.35817 -36.324804,0.33952 -27.116745,-0.017 -34.784151,-0.0874 -36.130855,-0.33175 z"
     id="path7350"
     inkscape:connector-curvature="0" />
  <path
     style="fill:#ff0000;stroke:#ff0000;stroke-width:0.00071642;stroke-miterlimit:4;stroke-dasharray:none;stroke-opacity:1"
     d="m 76.860261,511.60252 c -15.547379,-0.12423 -17.688624,-0.18599 -18.746269,-0.54067 l -1.19403,-0.40041 1.105469,0.12651 c 4.288034,0.49072 9.3678,0.57072 33.521397,0.52785 L 118.5319,511.26792 89.994589,511.125 c -21.196926,-0.10617 -29.090146,-0.22135 -30.686567,-0.44781 -2.539735,-0.36028 -4.959618,-1.3063 -7.352935,-2.87455 -3.847071,-2.52084 -6.207237,-5.11147 -9.041886,-9.92478 l -1.827657,-3.10341 -0.386407,-58.98508 c -0.212524,-32.44179 -0.384108,-62.39701 -0.381298,-66.56716 l 0.0051,-7.58209 h 55.605091 55.60509 l 0.1561,2.90316 c 0.19234,3.57706 0.14358,10.30235 -0.0638,8.79833 -0.0815,-0.59104 -0.22933,12.46567 -0.32853,29.01493 -0.32993,55.04325 -0.78969,85.77321 -1.37908,92.17738 -0.25679,2.79022 -0.69491,3.90443 -2.4421,6.21068 -1.10272,1.45555 -4.66316,5.04913 -6.13786,6.19497 -4.1301,3.20909 -6.00693,3.65881 -16.45503,3.94286 l -6.35094,0.17267 5.37314,0.0345 c 4.79279,0.0308 6.66269,-0.0636 10.68533,-0.53923 1.12891,-0.1335 1.12647,-0.13128 -0.41668,0.37755 -2.49631,0.82312 -17.14588,0.99554 -57.313428,0.67457 z"
     id="path7352"
     inkscape:connector-curvature="0" />
  <path
     style="fill:#ff0000;stroke:#ff0000;stroke-width:0.00071642;stroke-miterlimit:4;stroke-dasharray:none;stroke-opacity:1"
     d="m 40.65842,446.05803 c 3.02e-4,-2.10149 0.03684,-2.92923 0.08118,-1.83941 0.04435,1.08982 0.0441,2.80922 -5.49e-4,3.8209 -0.04465,1.01167 -0.08094,0.12 -0.08064,-1.98149 z"
     id="path7354"
     inkscape:connector-curvature="0" />
  <path
     style="fill:#ff0000;stroke:#ff0000;stroke-width:0.00071642;stroke-miterlimit:4;stroke-dasharray:none;stroke-opacity:1"
     d="m 40.462346,492.50579 c -0.128438,-0.49061 -0.237842,-21.35128 -0.264888,-50.50746 l -0.04608,-49.67165 0.317484,42.38806 c 0.345214,46.09048 0.343743,59.12899 -0.0065,57.79105 z"
     id="path7356"
     inkscape:connector-curvature="0" />
  <path
     style="fill:#ff0000;stroke:#ff0000;stroke-width:0.00071642;stroke-miterlimit:4;stroke-dasharray:none;stroke-opacity:1"
     d="m 19.308022,351.37512 c -2.29639,-0.49817 -4.251897,-1.1499 -5.629285,-1.87612 -1.18984,-0.62734 -0.821467,-0.65264 0.758537,-0.0521 2.734536,1.03935 6.460364,1.42566 18.721494,1.94114 3.611941,0.15185 6.611941,0.31771 6.666668,0.36857 0.05472,0.0509 -4.082588,0.0849 -9.194031,0.0757 -8.096416,-0.0146 -9.555001,-0.0735 -11.323383,-0.45715 z"
     id="path7358"
     inkscape:connector-curvature="0" />
  <path
     style="fill:#ff0000;stroke:#ff0000;stroke-width:0.00071642;stroke-miterlimit:4;stroke-dasharray:none;stroke-opacity:1"
     d="m 1.9865586,337.23457 c -0.9078155,-2.18708 -1.3867388,-4.0479 -1.70714176,-6.63296 -0.33917541,-2.73653 -0.35078766,-83.58836 -0.0120053,-83.58836 0.15722921,0 0.24197414,6.83206 0.24808041,20 0.011666,25.15722 0.36838956,55.79205 0.70978575,60.95523 0.2923189,4.42094 0.7786858,7.91365 1.3406356,9.62741 0.5896547,1.79824 0.2218154,1.56884 -0.5793547,-0.36132 z"
     id="path7360"
     inkscape:connector-curvature="0" />
  <path
     style="fill:#ff0000;stroke:#ff0000;stroke-width:0.00071642;stroke-miterlimit:4;stroke-dasharray:none;stroke-opacity:1"
     d="m 8.9548093,346.49094 c -1.7809564,-1.42494 -4.3888902,-4.26033 -4.3888902,-4.77168 0,-0.12176 1.4776119,1.21735 3.283582,2.97579 1.8059702,1.75844 3.3283579,3.22776 3.3830849,3.26515 0.05473,0.0374 -0.0031,0.068 -0.128481,0.068 -0.12539,0 -1.092574,-0.69176 -2.1492957,-1.53724 z"
     id="path7362"
     inkscape:connector-curvature="0" />
  <path
     style="fill:#ff0000;stroke:#ff0000;stroke-width:0.00071642;stroke-miterlimit:4;stroke-dasharray:none;stroke-opacity:1"
     d=""
     id="path7364"
     inkscape:connector-curvature="0" />
  <path
     style="fill:#ff0000;stroke:#ff0000;stroke-width:0.00071642;stroke-miterlimit:4;stroke-dasharray:none;stroke-opacity:1"
     d=""
     id="path7366"
     inkscape:connector-curvature="0" />
  <path
     style="fill:#ff0000;stroke:#ff0000;stroke-width:0.00071642;stroke-miterlimit:4;stroke-dasharray:none;stroke-opacity:1"
     d="m 4.3316406,172.55953 c -0.015396,-1.03534 3.6340454,-7.08829 6.2034364,-10.289 7.101622,-8.84655 16.878945,-14.89693 27.657908,-17.11519 4.043912,-0.83222 7.229225,-1.06695 14.492337,-1.06796 l 6.447761,-9.1e-4 2.441596,1.0019 c 1.342877,0.55104 2.406739,1.03675 2.364138,1.07935 -0.0426,0.0426 -0.980124,-0.1347 -2.083386,-0.39401 -3.190095,-0.74977 -5.701954,-0.96947 -11.074293,-0.9686 -8.031238,10e-4 -12.962175,0.5868 -17.319697,2.05651 -6.73579,2.27186 -13.866311,6.80372 -19.464491,12.37081 -3.53645,3.51681 -5.6402863,6.34419 -8.2773986,11.12411 -0.7608608,1.3791 -1.3854206,2.37045 -1.3879108,2.20299 z"
     id="path7368"
     inkscape:connector-curvature="0" />
  <path
     style="fill:#ff0000;stroke:#ff0000;stroke-width:0.00071642;stroke-miterlimit:4;stroke-dasharray:none;stroke-opacity:1"
     d="m 0.02918541,219.62436 c 3.4856e-4,-16.77034 0.09811085,-29.18037 0.24514223,-31.11857 0.24278888,-3.2005 1.06068836,-7.72991 1.76801986,-9.79105 0.4193024,-1.22182 0.401483,-1.01243 -0.2133861,2.50747 -1.03443822,5.92177 -1.31780374,15.07898 -1.32048063,42.67247 -0.001484,15.29274 -0.0845272,23.38003 -0.24106919,23.47678 -0.15868463,0.0981 -0.23861144,-9.2113 -0.23822617,-27.7471 z"
     id="path7370"
     inkscape:connector-curvature="0" />
  <rect
     style="fill:#ff0000;stroke:#ff0000;stroke-width:0.003;stroke-miterlimit:4;stroke-dasharray:none;stroke-opacity:1"
     id="rect7372"
     width="2.0263367"
     height="1.8152522"
     x="169.15683"
     y="152.32539"
     ry="0.268657" />
  <path
     style="fill:#ff0000;stroke:#ff0000;stroke-width:0.00012665;stroke-miterlimit:4;stroke-dasharray:none;stroke-opacity:1"
     d="m 170.09915,152.25955 c -0.32673,-0.22133 -3.43614,-1.8922 -4.6648,-2.50668 -2.16161,-1.08107 -3.93479,-1.81887 -6.26897,-2.60848 -2.86496,-0.96915 -4.91423,-1.415 -8.21089,-1.78639 -3.65278,-0.41151 -7.97063,-0.55725 -12.55078,-0.42363 -1.28298,0.0374 -1.7419,0.0609 -2.99501,0.15295 l -0.36939,0.0271 v -0.55873 -0.55872 l 5.43523,0.0202 c 5.34235,0.0199 6.00527,0.0352 7.75706,0.17932 7.65934,0.63018 15.50476,3.34424 21.95198,7.59411 l 0.80209,0.52873 -0.40105,-0.001 c -0.26575,-8.7e-4 -0.42953,-0.0206 -0.48547,-0.0585 z"
     id="path7374"
     inkscape:connector-curvature="0" />
  <path
     style="fill:#ff0000;stroke:#ff0000;stroke-width:0.00035821;stroke-miterlimit:4;stroke-dasharray:none;stroke-opacity:1"
     d="m 96.885228,152.00043 c 4.606202,-0.0799 6.086872,-0.16595 9.253732,-0.53769 7.92258,-0.93 15.64983,-2.90639 22.90711,-5.85895 1.0407,-0.4234 2.26175,-0.95593 2.71344,-1.18339 0.77387,-0.38972 0.89031,-0.41358 2.01826,-0.41358 h 1.19701 v 0.57332 0.57331 l -1.46269,0.15068 c -0.80447,0.0829 -1.67761,0.17432 -1.94029,0.20322 -0.97795,0.10758 -2.20217,0.46701 -4.05971,1.19192 -7.70056,3.0052 -15.72032,4.71814 -24.83378,5.30423 -1.04962,0.0675 -3.843655,0.11283 -6.208955,0.10074 l -4.300545,-0.022 z"
     id="path7376"
     inkscape:connector-curvature="0" />
</svg>
