<?xml version="1.0" encoding="UTF-8" standalone="no"?>
<svg
   xmlns:dc="http://purl.org/dc/elements/1.1/"
   xmlns:cc="http://creativecommons.org/ns#"
   xmlns:rdf="http://www.w3.org/1999/02/22-rdf-syntax-ns#"
   xmlns:svg="http://www.w3.org/2000/svg"
   xmlns="http://www.w3.org/2000/svg"
   xmlns:sodipodi="http://sodipodi.sourceforge.net/DTD/sodipodi-0.dtd"
   xmlns:inkscape="http://www.inkscape.org/namespaces/inkscape"
   aria-hidden="true"
   focusable="false"
   data-prefix="fas"
   data-icon="male"
   class="svg-inline--fa fa-male fa-w-6"
   role="img"
   viewBox="0 0 192 512"
   version="1.1"
   id="svg3725"
   sodipodi:docname="male-solid_410.svg"
   inkscape:version="0.92.5 (2060ec1f9f, 2020-04-08)">
  <metadata
     id="metadata3731">
    <rdf:RDF>
      <cc:Work
         rdf:about="">
        <dc:format>image/svg+xml</dc:format>
        <dc:type
           rdf:resource="http://purl.org/dc/dcmitype/StillImage" />
        <dc:title></dc:title>
      </cc:Work>
    </rdf:RDF>
  </metadata>
  <defs
     id="defs3729" />
  <sodipodi:namedview
     pagecolor="#ffffff"
     bordercolor="#666666"
     borderopacity="1"
     objecttolerance="10"
     gridtolerance="10"
     guidetolerance="10"
     inkscape:pageopacity="0"
     inkscape:pageshadow="2"
     inkscape:window-width="1366"
     inkscape:window-height="705"
     id="namedview3727"
     showgrid="false"
     inkscape:zoom="1.4805048"
     inkscape:cx="-31.614411"
     inkscape:cy="327.09468"
     inkscape:window-x="-8"
     inkscape:window-y="-8"
     inkscape:window-maximized="1"
     inkscape:current-layer="svg3725" />
  <path
     fill="currentColor"
     d="M96 0c35.346 0 64 28.654 64 64s-28.654 64-64 64-64-28.654-64-64S60.654 0 96 0m48 144h-11.36c-22.711 10.443-49.59 10.894-73.28 0H48c-26.51 0-48 21.49-48 48v136c0 13.255 10.745 24 24 24h16v136c0 13.255 10.745 24 24 24h64c13.255 0 24-10.745 24-24V352h16c13.255 0 24-10.745 24-24V192c0-26.51-21.49-48-48-48z"
     id="path3723" />
  <rect
     style="fill:#ff0000"
     id="rect3733"
     width="1.0144672"
     height="198.15918"
     x="19.250191"
     y="153.42297"
     rx="0"
     ry="0" />
  <path
     style="fill:#ff0000;stroke-width:0.08443066"
     d="m 0.07578682,199.93823 c 0.03318251,-12.19666 0.02081277,-11.81879 0.492658,-15.04976 1.00394698,-6.87456 3.66674468,-13.7394 7.60895828,-19.61633 0.8316939,-1.23986 2.4358279,-3.34502 3.4525039,-4.53084 1.071695,-1.24999 3.77975,-3.97077 4.971384,-4.99474 0.884676,-0.7602 2.510683,-2.05522 2.5805,-2.05522 0.02027,0 0.03685,12.95588 0.03685,28.79085 v 28.79086 H 9.6317951 0.04494906 Z"
     id="path3735"
     inkscape:connector-curvature="0" />
  <path
     style="fill:#ff0000;stroke-width:0.08443066"
     d="M 0.05288163,238.29086 V 211.27305 H 9.6357616 19.218642 v 27.01781 27.01781 H 9.6357616 0.05288163 Z"
     id="path3737"
     inkscape:connector-curvature="0" />
  <path
     style="fill:#ff0000;stroke-width:0.08443066"
     d="M 0.05288163,282.1948 V 265.30867 H 9.6357616 19.218642 v 16.88613 16.88614 H 9.6357616 0.05288163 Z"
     id="path3739"
     inkscape:connector-curvature="0" />
  <path
     style="fill:#ff0000;stroke-width:0.08443066"
     d="m 0.05288163,312.58984 v -13.5089 H 9.6357616 19.218642 v 13.5089 13.50891 H 9.6357616 0.05288163 Z"
     id="path3741"
     inkscape:connector-curvature="0" />
  <path
     style="fill:#ff0000;stroke-width:0.08443066"
     d="m 18.205474,351.25101 c -1.269094,-0.3265 -2.765706,-0.83833 -3.830769,-1.31008 C 7.6383897,346.95716 2.6086855,341.04265 0.80904221,333.98883 0.29064814,331.95696 0.12863707,330.68347 0.0764882,328.23062 L 0.03116352,326.09875 H 9.6249021 19.218642 v 12.70681 c 0,6.98875 -0.0095,12.70421 -0.02111,12.70103 -0.01161,-0.003 -0.458036,-0.1182 -0.99206,-0.25558 z"
     id="path3743"
     inkscape:connector-curvature="0" />
  <rect
     style="fill:#ff0000"
     id="rect3755"
     width="5.1343284"
     height="6.029851"
     x="14.328359"
     y="209.49254" />
  <rect
     style="fill:#ff0000"
     id="rect3757"
     width="15.701492"
     height="3.522388"
     x="0.059701491"
     y="210.14925" />
  <rect
     style="fill:#ff0000"
     id="rect3759"
     width="0.89552242"
     height="7.1641793"
     x="18.746269"
     y="154.08955" />
  <rect
     style="fill:#ff0000"
     id="rect3761"
     width="0.65671641"
     height="0.77611941"
     x="18.38806"
     y="154.98508" />
  <rect
     style="fill:#ff0000"
     id="rect3763"
     width="0.59701538"
     height="0.89552307"
     x="19.044777"
     y="154.08955" />
  <rect
     style="fill:#ff0000"
     id="rect3765"
     width="1.6716418"
     height="27.343283"
     x="17.97015"
     y="160.47762" />
  <rect
     style="fill:#ff0000"
     id="rect3767"
     width="3.3432834"
     height="22.865673"
     x="16.119404"
     y="186.62686" />
  <rect
     style="fill:#ff0000"
     id="rect3769"
     width="2.6268656"
     height="24.179104"
     x="17.134329"
     y="215.10448" />
  <rect
     style="fill:#ff0000"
     id="rect3771"
     width="3.3432837"
     height="30.626865"
     x="16.298508"
     y="238.74626" />
  <rect
     style="fill:#ff0000"
     id="rect3773"
     width="17.731344"
     height="2.3880596"
     x="0.059701491"
     y="263.88058" />
  <rect
     style="fill:#ff0000"
     id="rect3775"
     width="1.4925373"
     height="24.238806"
     x="18.208956"
     y="268.83582" />
  <rect
     style="fill:#ff0000"
     id="rect3777"
     width="3.4626865"
     height="25.492537"
     x="16.238806"
     y="292.11942" />
  <rect
     style="fill:#ff0000"
     id="rect3779"
     width="17.97015"
     height="2.5671642"
     x="0.17910448"
     y="297.67163" />
  <rect
     style="fill:#ff0000"
     id="rect3781"
     width="2.5671642"
     height="28.716417"
     x="17.014925"
     y="316.17911" />
  <rect
     style="fill:#ff0000"
     id="rect3783"
     width="18.268658"
     height="1.4925373"
     x="0.059701491"
     y="325.43283" />
  <rect
     style="fill:#ff0000"
     id="rect3785"
     width="1.0746269"
     height="6.8059702"
     x="19.190031"
     y="344.77618" />
  <rect
     style="fill:#ff0000"
     id="rect3795"
     width="0.74226987"
     height="4.5970793"
     x="19.522388"
     y="346.98508" />
  <rect
     style="fill:#ff0000"
     id="rect3797"
     width="0.33235741"
     height="6.8059692"
     x="19.190031"
     y="344.77618" />
  <rect
     style="fill:#ff0000"
     id="rect3799"
     width="2.5671642"
     height="5.2537313"
     x="17.074627"
     y="345.49252" />
  <path
     style="fill:none;stroke:#ff0000;stroke-width:0.38344064px;stroke-linecap:butt;stroke-linejoin:miter;stroke-opacity:1"
     d="m 38.412821,36.268521 0.0063,55.527002"
     id="path4614"
     inkscape:connector-curvature="0" />
  <path
     style="fill:#ff0000;stroke:#ff0000;stroke-width:0.04221533;stroke-opacity:1"
     d="m 32.958311,75.002082 c -0.01299,-0.08707 -0.09103,-0.585737 -0.17343,-1.108152 -0.519485,-3.293472 -0.747166,-6.310106 -0.747166,-9.899495 0,-1.949289 0.03773,-3.099025 0.154468,-4.707009 0.501524,-6.908193 2.133668,-13.717544 4.811423,-20.07339 0.215205,-0.510805 0.458609,-1.075963 0.540897,-1.255906 l 0.149614,-0.327169 h 0.255694 0.255694 V 56.395675 75.16039 h -2.611792 -2.611792 z"
     id="path4616"
     inkscape:connector-curvature="0" />
  <path
     style="fill:#ff0000;stroke:#ff0000;stroke-width:0.04221533;stroke-opacity:1"
     d="m 37.847375,90.706185 c -1.751772,-3.786077 -3.213071,-8.052201 -4.160939,-12.147461 -0.216175,-0.933983 -0.673417,-3.168192 -0.673417,-3.290499 0,-0.05864 0.276219,-0.06562 2.596243,-0.06562 h 2.596243 v 8.105344 c 0,4.457938 -0.007,8.105343 -0.01548,8.105343 -0.0085,0 -0.162706,-0.318198 -0.34265,-0.707107 z"
     id="path4618"
     inkscape:connector-curvature="0" />
  <rect
     style="fill:#ff0000;stroke:#ff0000;stroke-opacity:1"
     id="rect4642"
     width="4.4537163"
     height="0.21108246"
     x="33.518974"
     y="74.775826" />
  <path
     style="fill:none;stroke:#fb0000;stroke-width:0.99971169px;stroke-linecap:butt;stroke-linejoin:miter;stroke-opacity:1"
     d="M 38.238806,145.01492 V 352"
     id="path4644"
     inkscape:connector-curvature="0" />
  <path
     style="fill:#ff0000;stroke:#fb0000;stroke-width:0.05970149;stroke-opacity:1"
     d="m 20.284017,163.77865 v -10.35821 h -0.397269 -0.397269 l 0.501746,-0.36486 c 2.855146,-2.07617 6.323056,-4.00454 9.755478,-5.42464 2.063155,-0.85359 4.842234,-1.76568 6.716418,-2.20433 0.279105,-0.0653 0.675373,-0.15821 0.880597,-0.20643 l 0.373135,-0.0877 v 14.50217 14.50217 h -8.716418 -8.716418 z"
     id="path4646"
     inkscape:connector-curvature="0" />
  <path
     style="fill:#ff0000;stroke:#fb0000;stroke-width:0.05970149;stroke-opacity:1"
     d="m 20.284017,186.10701 v -11.91045 h 8.716418 8.716418 v 11.91045 11.91044 h -8.716418 -8.716418 z"
     id="path4648"
     inkscape:connector-curvature="0" />
  <path
     style="fill:#ff0000;stroke:#fb0000;stroke-width:0.05970149;stroke-opacity:1"
     d="m 20.284017,217.15178 v -19.07463 h 8.716418 8.716418 v 19.07463 19.07463 h -8.716418 -8.716418 z"
     id="path4650"
     inkscape:connector-curvature="0" />
  <path
     style="fill:#ff0000;stroke:#fb0000;stroke-width:0.05970149;stroke-opacity:1"
     d="m 20.284017,248.19656 v -11.91045 h 8.716418 8.716418 v 11.91045 11.91045 h -8.716418 -8.716418 z"
     id="path4652"
     inkscape:connector-curvature="0" />
  <path
     style="fill:#ff0000;stroke:#fb0000;stroke-width:0.05970149;stroke-opacity:1"
     d="m 20.284017,274.46521 v -14.2985 h 8.716418 8.716418 v 14.2985 14.29851 h -8.716418 -8.716418 z"
     id="path4654"
     inkscape:connector-curvature="0" />
  <path
     style="fill:#ff0000;stroke:#fb0000;stroke-width:0.05970149;stroke-opacity:1"
     d="m 20.284017,305.50999 v -16.68657 h 8.716418 8.716418 v 16.68657 16.68657 h -8.716418 -8.716418 z"
     id="path4656"
     inkscape:connector-curvature="0" />
  <path
     style="fill:#ff0000;stroke:#fb0000;stroke-width:0.05970149;stroke-opacity:1"
     d="m 22.492972,351.92285 c -0.757382,-0.0479 -2.277914,-0.2239 -2.323383,-0.26886 -0.01368,-0.0135 0.0065,-0.0246 0.04478,-0.0246 0.05288,0 0.06965,-3.5366 0.06965,-14.68656 v -14.68657 h 8.716418 8.716418 v 14.86567 14.86567 l -7.238806,-0.009 c -3.981344,-0.005 -7.574627,-0.03 -7.985075,-0.056 z"
     id="path4658"
     inkscape:connector-curvature="0" />
  <rect
     style="fill:#ff0000;stroke:#fb0000;stroke-opacity:1"
     id="rect4660"
     width="19.522388"
     height="22.447754"
     x="18.38806"
     y="155.7612" />
  <rect
     style="fill:#ff0000;stroke:#fb0000;stroke-opacity:1"
     id="rect4666"
     width="1.0746269"
     height="11.283582"
     x="36.656715"
     y="146.02985" />
  <rect
     style="fill:#ff0000;stroke:#fb0000;stroke-opacity:1"
     id="rect4668"
     width="18.865665"
     height="170.98506"
     x="19.164179"
     y="177.85074" />
  <rect
     style="fill:#ff0000;stroke:#fb0000;stroke-opacity:1"
     id="rect4670"
     width="5.8507419"
     height="2.5074677"
     x="32.179104"
     y="348.83582" />
  <path
     style="fill:#ff0000;stroke:#fb0000;stroke-width:0.02110766;stroke-opacity:1"
     d="m 37.738378,37.504111 c 0.05181,-0.119231 0.271642,-0.593593 0.379042,-0.817922 l 0.0859,-0.179415 5.81e-4,0.543522 5.8e-4,0.543523 h -0.252542 -0.252541 z"
     id="path4672"
     inkscape:connector-curvature="0" />
  <path
     style="fill:none;stroke:#ff0000;stroke-width:0.99649328px;stroke-linecap:butt;stroke-linejoin:miter;stroke-opacity:1"
     d="M 57.611939,13.25373 V 114.86567"
     id="path4674"
     inkscape:connector-curvature="0" />
  <path
     style="fill:#ff0000;stroke:#ff0000;stroke-width:0.05970149;stroke-opacity:1"
     d="M 38.647678,48.38681 V 36.271372 l -0.153808,-0.01889 c -0.153046,-0.0188 -0.150983,-0.02443 0.416525,-1.137856 4.172958,-8.187146 10.064304,-15.434733 17.103538,-21.040929 0.479903,-0.382205 0.919566,-0.735107 0.977028,-0.784227 0.09948,-0.08504 0.104478,1.042709 0.104478,23.561734 v 23.651045 h -9.223881 -9.22388 z"
     id="path4676"
     inkscape:connector-curvature="0" />
  <path
     style="fill:#ff0000;stroke:#ff0000;stroke-width:0.05970149;stroke-opacity:1"
     d="M 44.815275,102.36792 C 42.77665,99.643753 41.034089,96.899654 39.441286,93.905233 38.888537,92.86608 38.408872,91.926852 38.408872,91.88367 c 0,-0.01332 0.05373,-0.03826 0.119403,-0.05544 0.119019,-0.03113 0.119403,-0.08143 0.119403,-15.648754 v -15.61753 h 9.22388 9.223881 v 21.462687 21.462687 h -5.721231 -5.721229 z"
     id="path4678"
     inkscape:connector-curvature="0" />
  <path
     style="fill:#ff0000;stroke:#ff0000;stroke-width:0.05970149;stroke-opacity:1"
     d="m 55.961111,113.88258 c -3.443934,-2.76038 -6.718635,-6.00713 -9.521302,-9.44003 l -0.706745,-0.86568 5.660982,-0.0152 c 3.113541,-0.008 5.670214,-0.006 5.681496,0.005 0.01128,0.0113 0.01366,2.5361 0.0053,5.61071 l -0.01523,5.5902 z"
     id="path4680"
     inkscape:connector-curvature="0" />
  <rect
     style="fill:#ff0000;stroke:#ff0000;stroke-opacity:1"
     id="rect4682"
     width="0.11940298"
     height="3.6417911"
     x="57.313435"
     y="13.850745" />
  <rect
     style="fill:#ff0000;stroke:#ff0000;stroke-opacity:1"
     id="rect4684"
     width="0.35821089"
     height="96.0597"
     x="56.895523"
     y="17.492537" />
  <rect
     style="fill:#ff0000;stroke:#ff0000;stroke-opacity:1"
     id="rect4686"
     width="9.6119404"
     height="2.9253731"
     x="47.582088"
     y="101.91045" />
  <rect
     style="fill:#ff0000;stroke:#ff0000;stroke-opacity:1"
     id="rect4688"
     width="19.283583"
     height="3.522388"
     x="37.313435"
     y="59.223881" />
  <rect
     style="fill:#ff0000;stroke:#ff0000;stroke-opacity:1"
     id="rect4690"
     width="1.7313437"
     height="26.925367"
     x="38.268658"
     y="62.985077" />
  <rect
     style="fill:#ff0000;stroke:#ff0000;stroke-opacity:1"
     id="rect4692"
     width="2.3318028"
     height="22.24964"
     x="38.205505"
     y="37.630962" />
  <path
     style="fill:none;stroke:#ff0000;stroke-width:0.92043549px;stroke-linecap:butt;stroke-linejoin:miter;stroke-opacity:1"
     d="m 57.235086,144.00647 0.03577,366.98286"
     id="path4694"
     inkscape:connector-curvature="0" />
  <path
     style="fill:#ff0000;stroke:#ff0000;stroke-width:0.95522386;stroke-opacity:1"
     d="m 51.852919,508.12599 c -3.637069,-2.21796 -7.969319,-7.29849 -9.656281,-11.32414 -1.041318,-2.48493 -1.288083,-16.61071 -1.288083,-73.73467 0,-46.07687 -0.332338,-70.86627 -0.955224,-71.25124 -0.627258,-0.38767 -0.955224,-35.94466 -0.955224,-103.56209 V 145.28213 l 5.871466,-0.61369 c 3.229306,-0.33753 7.097963,-0.61369 8.597015,-0.61369 h 2.725549 v 182.92537 c 0,100.60896 -0.322388,182.92377 -0.716418,182.9218 -0.39403,-0.002 -2.02429,-0.80114 -3.6228,-1.77593 z"
     id="path4696"
     inkscape:connector-curvature="0" />
  <rect
     style="fill:#ff0000;stroke:#ff0000;stroke-opacity:1"
     id="rect4698"
     width="6.1496277"
     height="205.383"
     x="36.656715"
     y="146.02985" />
  <rect
     style="fill:#ff0000;stroke:#ff0000;stroke-opacity:1"
     id="rect4700"
     width="1.7730446"
     height="365.1626"
     x="55.133221"
     y="144.47333" />
  <path
     style="fill:#ff0000;stroke:#ff0000;stroke-width:0.08443066;stroke-opacity:1"
     d="m 56.092771,510.62678 c -0.601624,-0.20767 -0.617351,-0.21989 -0.422154,-0.32806 0.111513,-0.0618 0.402219,-0.11371 0.646012,-0.11535 l 0.443261,-0.003 v 0.33772 c 0,0.18575 -0.0095,0.33472 -0.02111,0.33106 -0.01161,-0.004 -0.302314,-0.10374 -0.646011,-0.22238 z"
     id="path4702"
     inkscape:connector-curvature="0" />
  <path
     style="fill:#ff0000;stroke:#ff0000;stroke-width:0.23880596;stroke-opacity:1"
     d="m 40.541243,492.34673 c -0.347181,-1.89162 -0.381176,-6.40828 -0.33936,-45.08729 l 0.04647,-42.98507 0.164103,40.59701 c 0.103195,25.52919 0.26455,42.22821 0.434737,44.99192 0.148849,2.41719 0.227715,4.43782 0.175258,4.49027 -0.05246,0.0525 -0.269001,-0.85062 -0.481209,-2.00684 z"
     id="path4704"
     inkscape:connector-curvature="0" />
  <path
     style="fill:#ff0000;stroke:#ff0000;stroke-width:0.08443066;stroke-opacity:1"
     d="m 40.039225,395.68782 c -0.0038,-17.66923 0.02202,-30.66311 0.05738,-28.87529 0.105784,5.34799 0.245151,22.50215 0.245398,30.20507 2.03e-4,6.33434 -0.01493,7.19771 -0.126122,7.19771 -0.111475,0 -0.128906,1.38918 -0.14805,11.79919 -0.01193,6.48955 -0.02481,-2.65746 -0.02861,-20.32668 z"
     id="path4706"
     inkscape:connector-curvature="0" />
  <path
     style="fill:none;stroke:#ff0000;stroke-width:1px;stroke-linecap:butt;stroke-linejoin:miter;stroke-opacity:1"
     d="M 76.582529,2.8656706 V 125.13433"
     id="path4708"
     inkscape:connector-curvature="0" />
  <path
     style="fill:#ff0000;stroke:#ff0000;stroke-width:0.23880596;stroke-opacity:1"
     d="m 73.480736,123.81769 c -4.635341,-1.76561 -10.469243,-4.88941 -14.412713,-7.71738 -0.982196,-0.70435 -1.382186,-1.11524 -1.134329,-1.16522 0.349836,-0.0705 0.382863,-4.45226 0.382863,-50.794105 0,-47.008535 -0.02899,-50.733116 -0.396468,-50.938767 -0.325804,-0.18233 -0.06991,-0.450462 1.435737,-1.504404 4.304533,-3.0131417 9.266298,-5.647753 13.948858,-7.4066034 1.348145,-0.5063862 2.503449,-0.9207021 2.567343,-0.9207021 0.06389,0 0.116172,27.2955225 0.116172,60.6567165 0,33.361194 -0.0806,60.646005 -0.179105,60.632925 -0.09851,-0.0131 -1.146268,-0.3922 -2.328358,-0.84246 z"
     id="path4710"
     inkscape:connector-curvature="0" />
  <path
     style="fill:#ff0000;stroke:#ff0000;stroke-width:0.23880596;stroke-opacity:1"
     d="m 58.193888,63.907822 c -7e-6,-18.519403 0.02831,-26.13079 0.06294,-16.914194 0.03462,9.216596 0.03463,24.368835 1.1e-5,33.671641 -0.03462,9.302806 -0.06294,1.761956 -0.06295,-16.757447 z"
     id="path4712"
     inkscape:connector-curvature="0" />
  <path
     style="fill:#ff0000;stroke:#ff0000;stroke-width:0.02985075;stroke-opacity:1"
     d="m 58.123156,93.425275 c -0.004,-5.791101 0.004,-8.689629 0.02392,-8.677343 0.03345,0.02067 0.03461,10.994438 0.0016,15.000001 -0.01267,1.536887 -0.02166,-0.691101 -0.0255,-6.322658 z"
     id="path4714"
     inkscape:connector-curvature="0" />
  <path
     style="fill:#ff0000;stroke:#ff0000;stroke-width:0.02985075;stroke-opacity:1"
     d="m 44.243301,101.62107 c -0.508185,-0.69409 -1.077812,-1.51374 -1.607102,-2.312511 L 42.176925,98.615454 V 87.092141 75.568828 h 17.447761 17.447761 v 13.268657 13.268655 h -0.492432 -0.492433 l -0.0077,-4.17164 -0.0077,-4.171642 -0.0074,4.171642 -0.0074,4.17164 h -8.940299 -8.940298 l -0.0066,-1.81343 c -0.0046,-1.255824 -0.01174,-1.593144 -0.0232,-1.097016 -0.0091,0.39403 -0.01955,-2.627239 -0.0232,-6.713931 -0.0037,-4.086691 0.0034,-7.420275 0.01574,-7.407964 0.01231,0.01231 0.02923,2.026117 0.0376,4.475124 l 0.01521,4.452741 0.0072,-4.615748 c 0.0062,-4.008325 0.0015,-4.62049 -0.03624,-4.651781 -0.02678,-0.02223 -0.04745,-0.106549 -0.05395,-0.220073 -0.0058,-0.101222 -0.01312,3.815587 -0.01628,8.70402 l -0.0058,8.888058 h -6.744459 -6.744459 z"
     id="path4716"
     inkscape:connector-curvature="0" />
  <path
     style="fill:#ff0000;stroke:#ff0000;stroke-width:0.02985075;stroke-opacity:1"
     d="m 58.160049,103.74793 c 0,-0.41865 0.0042,-0.58992 0.0093,-0.38059 0.0051,0.20932 0.0051,0.55186 0,0.76119 -0.0051,0.20933 -0.0093,0.0381 -0.0093,-0.3806 z"
     id="path4718"
     inkscape:connector-curvature="0" />
  <path
     style="fill:#ff0000;stroke:#ff0000;stroke-width:0.02985075;stroke-opacity:1"
     d="m 58.131573,103.15092 c 0,-1.61717 0.0036,-2.27873 0.008,-1.47015 0.0044,0.80858 0.0044,2.13171 0,2.9403 -0.0044,0.80858 -0.008,0.14701 -0.008,-1.47015 z"
     id="path4720"
     inkscape:connector-curvature="0" />
  <path
     style="fill:#ff0000;stroke:#ff0000;stroke-width:0.02985075;stroke-opacity:1"
     d="m 57.671063,115.2376 c -0.23718,-0.17999 -0.437553,-0.33358 -0.445274,-0.3413 -0.0077,-0.008 0.109352,-0.014 0.260162,-0.014 0.270836,0 0.27399,8.4e-4 0.257051,0.0683 -0.0274,0.10918 0.03377,0.22275 0.230102,0.42721 0.100888,0.10507 0.171229,0.19014 0.156314,0.18904 -0.01492,-0.001 -0.221176,-0.14925 -0.458355,-0.32924 z"
     id="path4722"
     inkscape:connector-curvature="0" />
  <path
     style="fill:#ff0000;stroke:#ff0000;stroke-width:0.01055383;stroke-opacity:1"
     d="m 58.11657,106.66624 c -0.0016,-1.5115 -8.5e-5,-1.68597 0.01448,-1.68597 0.01726,0 0.01689,0.17781 -0.0052,2.56458 -0.0066,0.71735 -0.0077,0.61939 -0.0092,-0.87861 z"
     id="path4724"
     inkscape:connector-curvature="0" />
  <path
     style="fill:#ff0000;stroke:#ff0000;stroke-width:0.01055383;stroke-opacity:1"
     d="m 58.108431,108.2203 8.2e-5,-1.25063 0.0058,0.94984 c 0.0032,0.52242 0.0031,1.0852 -8.2e-5,1.25063 -0.0032,0.16543 -0.0058,-0.262 -0.0058,-0.94984 z"
     id="path4726"
     inkscape:connector-curvature="0" />
  <rect
     style="fill:#ff0000;stroke:#ff0000;stroke-opacity:1"
     id="rect4728"
     width="2.3440704"
     height="98.538933"
     x="57.432838"
     y="13.850745" />
  <path
     style="fill:#ff0000;stroke:#ff0000;stroke-width:0.05970149;stroke-opacity:1"
     d="m 57.166443,13.174113 c 0.01566,-0.02533 0.156421,-0.137946 0.312813,-0.250259 0.201664,-0.144823 0.272535,-0.173413 0.243718,-0.09832 -0.02235,0.05824 -0.04063,0.170855 -0.04063,0.250259 0,0.131582 -0.02411,0.144371 -0.27218,0.144371 -0.149699,0 -0.259372,-0.02072 -0.243718,-0.04605 z"
     id="path4730"
     inkscape:connector-curvature="0" />
  <path
     style="fill:#ff0000;stroke:#ff0000;stroke-width:0.05970149;stroke-opacity:1"
     d="m 75.998102,4.5783759 c -0.01091,-0.6156716 -0.04095,-1.1629511 -0.06675,-1.2161765 -0.03132,-0.064603 -0.01601,-0.1086352 0.04607,-0.1324547 0.08235,-0.031602 0.09298,0.1074117 0.09298,1.2161766 0,0.6885217 -0.0118,1.2518576 -0.02623,1.2518576 -0.01443,0 -0.03516,-0.5037313 -0.04607,-1.119403 z"
     id="path4732"
     inkscape:connector-curvature="0" />
  <path
     style="fill:#ff0000;stroke:#ff0000;stroke-width:0.05970149;stroke-opacity:1"
     d="m 35.353982,43.620525 c 0,-0.208612 1.291878,-3.57077 1.993994,-5.189442 0.216736,-0.499668 0.394066,-0.989967 0.394066,-1.089552 0,-0.123686 0.0293,-0.181065 0.09247,-0.181065 0.05099,0 0.142799,-0.11241 0.204651,-0.250561 l 0.112179,-0.250561 0.02412,0.235636 c 0.01629,0.159182 0.02737,0.105847 0.03415,-0.164384 0.0065,-0.258381 0.03796,-0.416923 0.08891,-0.447761 0.04338,-0.02626 0.126258,-0.168638 0.184166,-0.316399 0.14617,-0.37297 1.247392,-2.446047 1.966239,-3.701493 3.544745,-6.190791 8.125679,-11.783517 13.488198,-16.467337 1.257319,-1.098188 2.97953,-2.473938 3.115836,-2.489015 0.06705,-0.0074 0.262109,-0.01691 0.433466,-0.0211 0.258014,-0.0063 0.305323,-0.02387 0.275274,-0.102178 -0.02512,-0.06545 -0.04933,-0.07345 -0.07867,-0.02598 -0.02469,0.03995 -0.152055,0.06073 -0.305125,0.04978 l -0.262739,-0.0188 0.264569,-0.195392 c 0.145514,-0.107466 0.288548,-0.187399 0.317856,-0.17763 0.02931,0.0098 0.159483,-0.08326 0.28928,-0.206734 0.529444,-0.503649 3.113938,-2.24538 5.098444,-3.4359232 3.060685,-1.8361639 6.322835,-3.4570418 9.343283,-4.6424363 1.341427,-0.5264516 3.18381,-1.1950928 3.444136,-1.2499526 0.188531,-0.03973 0.190631,-0.03759 0.21345,0.2175539 0.01562,0.174595 0.02641,0.118119 0.03348,-0.1751572 l 0.01043,-0.4328358 h 0.477612 0.477612 V 23.279869 43.667928 H 56.219654 c -11.476119,0 -20.865672,-0.02133 -20.865672,-0.0474 z m 40.767016,-21.87797 c -0.005,-9.235075 -0.02917,-16.6164179 -0.0537,-16.402985 -0.04214,0.3666179 1.19e-4,33.19403 0.04275,33.19403 0.01103,0 0.01596,-7.55597 0.01095,-16.791045 z M 38.621654,36.490402 c -0.01261,-0.140421 -0.02311,-0.04038 -0.02332,0.222302 -2.15e-4,0.262687 0.0101,0.377576 0.02293,0.25531 0.01283,-0.122267 0.01301,-0.337192 3.94e-4,-0.477612 z"
     id="path4734"
     inkscape:connector-curvature="0" />
  <path
     style="fill:#ff0000;stroke:#ff0000;stroke-width:0.04221533;stroke-opacity:1"
     d="m 76.107525,113.62077 c 0,-6.33089 -0.0116,-11.4991 -0.02579,-11.48492 -0.01418,0.0142 -0.04134,4.03044 -0.06035,8.92502 -0.01901,4.89458 -0.04783,9.93636 -0.06405,11.20395 -0.0267,2.0871 -0.03635,2.31381 -0.102181,2.40108 -0.08779,0.11638 0.01139,0.14363 -1.457348,-0.40038 -3.553886,-1.31631 -6.827468,-2.86226 -10.384971,-4.90431 -2.265747,-1.30057 -4.820242,-2.96309 -5.701433,-3.71063 -0.144791,-0.12283 -0.274011,-0.21257 -0.287154,-0.19943 -0.01314,0.0131 -0.199627,-0.10678 -0.414407,-0.26649 l -0.39051,-0.29039 0.223475,-0.0129 c 0.122911,-0.007 0.24821,0.008 0.278441,0.0327 0.04065,0.0337 0.0614,0.0289 0.07968,-0.0188 0.02095,-0.0546 -0.0297,-0.0644 -0.332792,-0.0644 h -0.357506 l -0.0088,-0.4116 -0.0088,-0.4116 -0.01394,0.39112 -0.01394,0.39112 -0.937699,-0.75613 c -2.106347,-1.69848 -3.370266,-2.83454 -5.310329,-4.77313 -1.515514,-1.51437 -2.843202,-2.93978 -3.698222,-3.97045 -0.02889,-0.0348 -0.356778,-0.43376 -0.728636,-0.88652 l -0.676105,-0.8232 0.706233,-0.0227 0.706233,-0.0227 -0.738769,-0.0109 -0.738768,-0.0109 -0.811531,-1.08518 c -0.897051,-1.19955 -1.132975,-1.52955 -1.897049,-2.653536 L 42.419691,99.00855 v -1.333959 -1.333958 h 17.329393 17.329393 v 14.395427 14.39543 h -0.485476 -0.485476 z"
     id="path4736"
     inkscape:connector-curvature="0" />
  <path
     style="fill:#ff0000;stroke:#ff0000;stroke-width:0.04221533;stroke-opacity:1"
     d="m 75.907339,124.76592 c -0.03867,-0.0156 -0.04075,-0.043 -0.0079,-0.10436 0.07918,-0.14795 0.0889,-0.57776 0.120602,-5.33468 l 0.03123,-4.6859 0.007,5.07639 c 0.0056,4.03826 -0.0038,5.07571 -0.04574,5.07306 -0.02902,-0.002 -0.07636,-0.0129 -0.105201,-0.0245 z"
     id="path4738"
     inkscape:connector-curvature="0" />
  <path
     style="fill:#ff0000;stroke:#ff0000;stroke-width:0.04221533;stroke-opacity:1"
     d="m 76.099658,115.83356 c -0.0045,-5.27092 -0.02068,-8.63971 -0.03745,-7.77817 -0.01627,0.83586 -0.01928,4.83471 -0.0067,8.88632 0.01259,4.05162 0.0089,7.47691 -0.0081,7.61177 -0.02508,0.19834 -0.04448,0.24222 -0.101533,0.22968 -0.03879,-0.009 -0.06572,-0.0383 -0.05983,-0.0662 0.008,-0.038 -0.0079,-0.0391 -0.06378,-0.004 -0.08958,0.056 -0.192176,0.0235 -1.677752,-0.53153 -3.089507,-1.15417 -5.951801,-2.4833 -9.118511,-4.23427 -2.253245,-1.24588 -4.933936,-2.93077 -6.265805,-3.93824 -0.288486,-0.21822 -0.594947,-0.43674 -0.681024,-0.4856 -0.252615,-0.1434 -1.094313,-0.78076 -2.023929,-1.53257 -2.107375,-1.7043 -3.188855,-2.68119 -5.259167,-4.75052 -2.038693,-2.03773 -2.918755,-2.99957 -4.395795,-4.80427 l -0.699907,-0.85517 0.206579,-0.025 0.20658,-0.025 -0.238888,-0.007 -0.238888,-0.007 -0.839681,-1.12926 c -1.034607,-1.39141 -1.006916,-1.35279 -1.759514,-2.454157 l -0.616871,-0.902742 v -1.345224 -1.345224 h 17.329393 17.329393 v 14.395427 14.39543 h -0.485476 -0.485476 z m -0.13174,7.83175 c -0.0107,-0.0411 -0.02016,-0.0177 -0.02102,0.052 -8.61e-4,0.0697 0.0079,0.10327 0.01946,0.0747 0.01156,-0.0286 0.01227,-0.0856 0.0016,-0.12664 z"
     id="path4740"
     inkscape:connector-curvature="0" />
  <path
     style="fill:#ff0000;stroke:#ff0000;stroke-width:0.04221533;stroke-opacity:1"
     d="M 42.419691,50.938045 V 32.173331 h 17.357503 17.357502 l -0.0281,8.643589 c -0.01545,4.753974 -0.0281,13.198095 -0.02811,18.764714 l -1.2e-5,10.121126 H 59.749084 42.419691 Z"
     id="path4742"
     inkscape:connector-curvature="0" />
  <path
     style="fill:#ff0000;stroke:#ff0000;stroke-width:0.04221533;stroke-opacity:1"
     d="M 42.419691,50.938045 V 32.173331 h 17.357511 17.357511 l -0.02811,11.556447 c -0.01546,6.356045 -0.02811,14.800167 -0.02812,18.764714 l -9e-6,7.208268 H 59.749084 42.419691 Z"
     id="path4744"
     inkscape:connector-curvature="0" />
  <path
     style="fill:#ff0000;stroke:#ff0000;stroke-width:0.08443066;stroke-opacity:1"
     d="m 66.199072,120.60032 c -2.62141,-1.41205 -5.441706,-3.13374 -7.081504,-4.32302 -0.458499,-0.33252 -1.047403,-0.75049 -1.308675,-0.92881 -1.466382,-1.0008 -4.329282,-3.45877 -6.457011,-5.54372 -4.903513,-4.80492 -8.194376,-9.14479 -11.498263,-15.163495 -1.017895,-1.854302 -1.407025,-2.654134 -1.355985,-2.787142 0.02591,-0.06753 -0.0076,-0.11752 -0.0789,-0.11752 -0.09896,0 -0.123997,-0.139788 -0.123997,-0.692331 0,-0.708823 -0.132507,-0.848422 -0.184326,-0.194191 -0.0255,0.321997 -0.05194,0.280717 -0.567826,-0.886521 -5.802884,-13.129664 -7.049448,-27.800571 -3.54013,-41.664055 0.23475,-0.927375 0.459744,-1.772737 0.499986,-1.878582 l 0.07317,-0.192446 h 21.262755 21.262756 l 0.0018,37.529429 0.0018,37.529424 -4.819605,-0.002 -4.819606,-0.002 z M 38.605706,90.538753 c -0.02695,-0.06735 -0.04696,-0.04735 -0.05101,0.05101 -0.0037,0.089 0.01629,0.138871 0.04434,0.110815 0.02806,-0.02806 0.03106,-0.100878 0.0067,-0.161826 z m 37.492587,-17.60448 c -0.01495,-0.50172 -0.02724,-0.114349 -0.02731,0.860825 -6.9e-5,0.975174 0.01216,1.385673 0.02719,0.912218 0.01502,-0.473454 0.01508,-1.271324 8.5e-5,-1.773043 z"
     id="path4746"
     inkscape:connector-curvature="0" />
  <path
     style="fill:#ff0000;stroke:#ff0000;stroke-width:0.02110766;stroke-opacity:1"
     d="m 60.886278,25.68734 v -9.382357 h 7.586804 7.586804 l 0.0088,0.05805 0.0088,0.05805 0.0032,-0.05805 0.0032,-0.05805 h 0.506584 0.506584 v 7.914326 c 0,7.002684 0.0036,7.91636 0.03157,7.931992 0.02775,0.01553 0.02989,0.192909 0.01764,1.468032 l -0.01393,1.450364 H 69.00935 60.886366 Z"
     id="path4748"
     inkscape:connector-curvature="0" />
  <path
     style="fill:#ff0000;stroke:#ff0000;stroke-width:0.02110766;stroke-opacity:1"
     d="m 60.886278,18.573926 v -8.052705 l 0.248015,-0.161314 c 1.177498,-0.7658671 2.670941,-1.6626547 3.943826,-2.3682012 l 0.234154,-0.1297889 h 5.9029 5.9029 v 9.3823571 9.382357 h -8.115897 -8.115898 z"
     id="path4750"
     inkscape:connector-curvature="0" />
  <path
     style="fill:none;stroke:#ff0000;stroke-width:1px;stroke-linecap:butt;stroke-linejoin:miter;stroke-opacity:1"
     d="m 76.835821,149.91045 -0.02985,362.0597"
     id="path4752"
     inkscape:connector-curvature="0" />
  <path
     style="fill:#ff0000;stroke:#ff0000;stroke-width:0.11940298;stroke-opacity:1"
     d="m 61.122175,511.76062 c -1.676753,-0.20767 -4.225019,-0.77405 -3.482587,-0.77405 0.105811,0 0.139304,-8.19617 0.139304,-34.08956 v -34.08955 h 9.253731 9.253731 v 34.56717 34.56716 l -6.955224,-0.013 c -4.913488,-0.009 -7.323262,-0.0585 -8.208955,-0.16822 z"
     id="path4800"
     inkscape:connector-curvature="0" />
  <path
     style="fill:#ff0000;stroke:#ff0000;stroke-width:0.67544526;stroke-opacity:1"
     d="M 58.044082,293.39291 V 144.37848 l 1.519752,0.40086 c 0.835863,0.22047 4.935321,1.54769 9.109905,2.94938 l 7.590153,2.54853 0.0086,146.06504 0.0086,146.06505 H 67.16258 58.044069 Z"
     id="path4802"
     inkscape:connector-curvature="0" />
  <path
     style="fill:#ff0000;stroke:#ff0000;stroke-width:0.04221533;stroke-opacity:1"
     d="m 60.547504,144.70726 c -0.371495,-0.11536 -1.055383,-0.312 -1.519752,-0.43696 l -0.844306,-0.22721 0.599861,-0.003 0.599862,-0.003 0.962105,0.4265 c 0.529158,0.23458 0.970021,0.43405 0.979696,0.44326 0.04715,0.0449 -0.159349,-0.008 -0.777466,-0.20022 z"
     id="path4804"
     inkscape:connector-curvature="0" />
  <path
     style="fill:#ff0000;stroke:#ff0000;stroke-width:0.04221533;stroke-opacity:1"
     d="m 57.718868,160.83942 c 0,-9.27577 0.0048,-13.0704 0.01076,-8.43252 0.0059,4.63789 0.0059,12.22715 0,16.86503 -0.0059,4.63788 -0.01076,0.84325 -0.01076,-8.43251 z"
     id="path4806"
     inkscape:connector-curvature="0" />
  <rect
     style="fill:#ff0000;stroke:#ff0000;stroke-opacity:1"
     id="rect4808"
     width="2.1962354"
     height="357.27325"
     x="57.425053"
     y="144.53416" />
  <path
     style="fill:#ff0000;stroke:#ff0000;stroke-width:0.04221533;stroke-opacity:1"
     d="m 49.043323,506.74041 c -2.252631,-1.81658 -4.168829,-4.00803 -5.624134,-6.43202 -0.346385,-0.57694 -0.658997,-1.16084 -0.634577,-1.18525 0.0111,-0.0111 0.130964,0.16556 0.266372,0.39257 1.383008,2.31861 3.756539,5.16539 5.786466,6.94019 0.706139,0.61739 0.71494,0.6256 0.670241,0.62526 -0.02322,-1.6e-4 -0.232184,-0.15351 -0.464368,-0.34075 z"
     id="path4810"
     inkscape:connector-curvature="0" />
  <path
     style="fill:#ff0000;stroke:#ff0000;stroke-width:0.04221533;stroke-opacity:1"
     d="m 40.086661,456.75626 c 0.01546,-6.83008 0.02812,-15.2742 0.02812,-18.76471 v -6.34639 h 18.595853 18.595853 v 18.76471 18.76472 H 58.682514 40.058541 Z"
     id="path4812"
     inkscape:connector-curvature="0" />
</svg>
