<?xml version="1.0" encoding="UTF-8" standalone="no"?>
<svg
   xmlns:dc="http://purl.org/dc/elements/1.1/"
   xmlns:cc="http://creativecommons.org/ns#"
   xmlns:rdf="http://www.w3.org/1999/02/22-rdf-syntax-ns#"
   xmlns:svg="http://www.w3.org/2000/svg"
   xmlns="http://www.w3.org/2000/svg"
   xmlns:sodipodi="http://sodipodi.sourceforge.net/DTD/sodipodi-0.dtd"
   xmlns:inkscape="http://www.inkscape.org/namespaces/inkscape"
   aria-hidden="true"
   focusable="false"
   data-prefix="fas"
   data-icon="male"
   class="svg-inline--fa fa-male fa-w-6"
   role="img"
   viewBox="0 0 192 512"
   version="1.1"
   id="svg3725"
   sodipodi:docname="male-solid_610.svg"
   inkscape:version="0.92.5 (2060ec1f9f, 2020-04-08)">
  <metadata
     id="metadata3731">
    <rdf:RDF>
      <cc:Work
         rdf:about="">
        <dc:format>image/svg+xml</dc:format>
        <dc:type
           rdf:resource="http://purl.org/dc/dcmitype/StillImage" />
        <dc:title></dc:title>
      </cc:Work>
    </rdf:RDF>
  </metadata>
  <defs
     id="defs3729" />
  <sodipodi:namedview
     pagecolor="#ffffff"
     bordercolor="#666666"
     borderopacity="1"
     objecttolerance="10"
     gridtolerance="10"
     guidetolerance="10"
     inkscape:pageopacity="0"
     inkscape:pageshadow="2"
     inkscape:window-width="1366"
     inkscape:window-height="705"
     id="namedview3727"
     showgrid="false"
     inkscape:zoom="0.7402524"
     inkscape:cx="-157.67309"
     inkscape:cy="329.72671"
     inkscape:window-x="-8"
     inkscape:window-y="-8"
     inkscape:window-maximized="1"
     inkscape:current-layer="svg3725" />
  <path
     d="M 96,0 C 60.654,0 32,28.654 32,64 c 0,35.346 28.654,64 64,64 35.346,0 64,-28.654 64,-64 C 160,28.654 131.346,0 96,0 M 48,144 h 11.36 c 22.711,10.443 49.59,10.894 73.28,0 H 144 c 26.51,0 48,21.49 48,48 v 136 c 0,13.255 -10.745,24 -24,24 h -16 v 136 c 0,13.255 -10.745,24 -24,24 H 64 C 50.745,512 40,501.255 40,488 V 352 H 24 C 10.745,352 0,341.255 0,328 V 192 c 0,-26.51 21.49,-48 48,-48 z"
     id="path3723"
     inkscape:connector-curvature="0"
     style="fill:currentColor" />
  <rect
     style="fill:#ff0000"
     id="rect3733"
     width="1.0144672"
     height="198.15918"
     x="-172.74982"
     y="153.42297"
     rx="0"
     ry="0"
     transform="scale(-1,1)" />
  <path
     style="fill:#ff0000;stroke-width:0.08443066"
     d="m 191.92421,199.93823 c -0.0332,-12.19666 -0.0208,-11.81879 -0.49265,-15.04976 -1.00395,-6.87456 -3.66675,-13.7394 -7.60896,-19.61633 -0.8317,-1.23986 -2.43583,-3.34502 -3.45251,-4.53084 -1.07169,-1.24999 -3.77975,-3.97077 -4.97138,-4.99474 -0.88468,-0.7602 -2.51068,-2.05522 -2.5805,-2.05522 -0.0203,0 -0.0368,12.95588 -0.0368,28.79085 v 28.79086 h 9.58684 9.58685 z"
     id="path3735"
     inkscape:connector-curvature="0" />
  <path
     style="fill:#ff0000;stroke-width:0.08443066"
     d="m 191.94712,238.29086 v -27.01781 h -9.58288 -9.58288 v 27.01781 27.01781 h 9.58288 9.58288 z"
     id="path3737"
     inkscape:connector-curvature="0" />
  <path
     style="fill:#ff0000;stroke-width:0.08443066"
     d="m 191.94712,282.1948 v -16.88613 h -9.58288 -9.58288 v 16.88613 16.88614 h 9.58288 9.58288 z"
     id="path3739"
     inkscape:connector-curvature="0" />
  <path
     style="fill:#ff0000;stroke-width:0.08443066"
     d="m 191.94712,312.58984 v -13.5089 h -9.58288 -9.58288 v 13.5089 13.50891 h 9.58288 9.58288 z"
     id="path3741"
     inkscape:connector-curvature="0" />
  <path
     style="fill:#ff0000;stroke-width:0.08443066"
     d="m 173.79453,351.25101 c 1.26909,-0.3265 2.7657,-0.83833 3.83076,-1.31008 6.73632,-2.98377 11.76602,-8.89828 13.56567,-15.9521 0.51839,-2.03187 0.6804,-3.30536 0.73255,-5.75821 l 0.0453,-2.13187 h -9.59374 -9.59374 v 12.70681 c 0,6.98875 0.01,12.70421 0.0211,12.70103 0.0116,-0.003 0.45803,-0.1182 0.99206,-0.25558 z"
     id="path3743"
     inkscape:connector-curvature="0" />
  <rect
     style="fill:#ff0000"
     id="rect3755"
     width="5.1343284"
     height="6.029851"
     x="-177.67165"
     y="209.49254"
     transform="scale(-1,1)" />
  <rect
     style="fill:#ff0000"
     id="rect3757"
     width="15.701492"
     height="3.522388"
     x="-191.94029"
     y="210.14925"
     transform="scale(-1,1)" />
  <rect
     style="fill:#ff0000"
     id="rect3759"
     width="0.89552242"
     height="7.1641793"
     x="-173.25372"
     y="154.08955"
     transform="scale(-1,1)" />
  <rect
     style="fill:#ff0000"
     id="rect3761"
     width="0.65671641"
     height="0.77611941"
     x="-173.61194"
     y="154.98508"
     transform="scale(-1,1)" />
  <rect
     style="fill:#ff0000"
     id="rect3763"
     width="0.59701538"
     height="0.89552307"
     x="-172.95523"
     y="154.08955"
     transform="scale(-1,1)" />
  <rect
     style="fill:#ff0000"
     id="rect3765"
     width="1.6716418"
     height="27.343283"
     x="-174.02985"
     y="160.47762"
     transform="scale(-1,1)" />
  <rect
     style="fill:#ff0000"
     id="rect3767"
     width="3.3432834"
     height="22.865673"
     x="-175.8806"
     y="186.62686"
     transform="scale(-1,1)" />
  <rect
     style="fill:#ff0000"
     id="rect3769"
     width="2.6268656"
     height="24.179104"
     x="-174.86568"
     y="215.10448"
     transform="scale(-1,1)" />
  <rect
     style="fill:#ff0000"
     id="rect3771"
     width="3.3432837"
     height="30.626865"
     x="-175.70149"
     y="238.74626"
     transform="scale(-1,1)" />
  <rect
     style="fill:#ff0000"
     id="rect3773"
     width="17.731344"
     height="2.3880596"
     x="-191.94029"
     y="263.88058"
     transform="scale(-1,1)" />
  <rect
     style="fill:#ff0000"
     id="rect3775"
     width="1.4925373"
     height="24.238806"
     x="-173.79105"
     y="268.83582"
     transform="scale(-1,1)" />
  <rect
     style="fill:#ff0000"
     id="rect3777"
     width="3.4626865"
     height="25.492537"
     x="-175.7612"
     y="292.11942"
     transform="scale(-1,1)" />
  <rect
     style="fill:#ff0000"
     id="rect3779"
     width="17.97015"
     height="2.5671642"
     x="-191.82089"
     y="297.67163"
     transform="scale(-1,1)" />
  <rect
     style="fill:#ff0000"
     id="rect3781"
     width="2.5671642"
     height="28.716417"
     x="-174.98508"
     y="316.17911"
     transform="scale(-1,1)" />
  <rect
     style="fill:#ff0000"
     id="rect3783"
     width="18.268658"
     height="1.4925373"
     x="-191.94029"
     y="325.43283"
     transform="scale(-1,1)" />
  <rect
     style="fill:#ff0000"
     id="rect3785"
     width="1.0746269"
     height="6.8059702"
     x="-172.80997"
     y="344.77618"
     transform="scale(-1,1)" />
  <rect
     style="fill:#ff0000"
     id="rect3795"
     width="0.74226987"
     height="4.5970793"
     x="-172.47762"
     y="346.98508"
     transform="scale(-1,1)" />
  <rect
     style="fill:#ff0000"
     id="rect3797"
     width="0.33235741"
     height="6.8059692"
     x="-172.80997"
     y="344.77618"
     transform="scale(-1,1)" />
  <rect
     style="fill:#ff0000"
     id="rect3799"
     width="2.5671642"
     height="5.2537313"
     x="-174.92537"
     y="345.49252"
     transform="scale(-1,1)" />
  <path
     style="fill:none;stroke:#ff0000;stroke-width:0.38344064px;stroke-linecap:butt;stroke-linejoin:miter;stroke-opacity:1"
     d="m 153.58718,36.268521 -0.006,55.527002"
     id="path4614"
     inkscape:connector-curvature="0" />
  <path
     style="fill:#ff0000;stroke:#ff0000;stroke-width:0.04221533;stroke-opacity:1"
     d="m 159.04169,75.002082 c 0.013,-0.08707 0.091,-0.585737 0.17343,-1.108152 0.51948,-3.293472 0.74716,-6.310106 0.74716,-9.899495 0,-1.949289 -0.0377,-3.099025 -0.15446,-4.707009 -0.50153,-6.908193 -2.13367,-13.717544 -4.81143,-20.07339 -0.2152,-0.510805 -0.45861,-1.075963 -0.54089,-1.255906 l -0.14962,-0.327169 h -0.25569 -0.2557 V 56.395675 75.16039 h 2.6118 2.61179 z"
     id="path4616"
     inkscape:connector-curvature="0" />
  <path
     style="fill:#ff0000;stroke:#ff0000;stroke-width:0.04221533;stroke-opacity:1"
     d="m 154.15262,90.706185 c 1.75178,-3.786077 3.21308,-8.052201 4.16094,-12.147461 0.21618,-0.933983 0.67342,-3.168192 0.67342,-3.290499 0,-0.05864 -0.27622,-0.06562 -2.59624,-0.06562 h -2.59625 v 8.105344 c 0,4.457938 0.007,8.105343 0.0155,8.105343 0.008,0 0.16271,-0.318198 0.34265,-0.707107 z"
     id="path4618"
     inkscape:connector-curvature="0" />
  <rect
     style="fill:#ff0000;stroke:#ff0000;stroke-opacity:1"
     id="rect4642"
     width="4.4537163"
     height="0.21108246"
     x="-158.48102"
     y="74.775826"
     transform="scale(-1,1)" />
  <path
     style="fill:none;stroke:#fb0000;stroke-width:0.99971169px;stroke-linecap:butt;stroke-linejoin:miter;stroke-opacity:1"
     d="M 153.76119,145.01492 V 352"
     id="path4644"
     inkscape:connector-curvature="0" />
  <path
     style="fill:#ff0000;stroke:#fb0000;stroke-width:0.05970149;stroke-opacity:1"
     d="m 171.71598,163.77865 v -10.35821 h 0.39727 0.39727 l -0.50174,-0.36486 c -2.85515,-2.07617 -6.32306,-4.00454 -9.75548,-5.42464 -2.06316,-0.85359 -4.84224,-1.76568 -6.71642,-2.20433 -0.27911,-0.0653 -0.67537,-0.15821 -0.8806,-0.20643 l -0.37313,-0.0877 v 14.50217 14.50217 h 8.71642 8.71641 z"
     id="path4646"
     inkscape:connector-curvature="0" />
  <path
     style="fill:#ff0000;stroke:#fb0000;stroke-width:0.05970149;stroke-opacity:1"
     d="m 171.71598,186.10701 v -11.91045 h -8.71642 -8.71641 v 11.91045 11.91044 h 8.71641 8.71642 z"
     id="path4648"
     inkscape:connector-curvature="0" />
  <path
     style="fill:#ff0000;stroke:#fb0000;stroke-width:0.05970149;stroke-opacity:1"
     d="m 171.71598,217.15178 v -19.07463 h -8.71642 -8.71641 v 19.07463 19.07463 h 8.71641 8.71642 z"
     id="path4650"
     inkscape:connector-curvature="0" />
  <path
     style="fill:#ff0000;stroke:#fb0000;stroke-width:0.05970149;stroke-opacity:1"
     d="m 171.71598,248.19656 v -11.91045 h -8.71642 -8.71641 v 11.91045 11.91045 h 8.71641 8.71642 z"
     id="path4652"
     inkscape:connector-curvature="0" />
  <path
     style="fill:#ff0000;stroke:#fb0000;stroke-width:0.05970149;stroke-opacity:1"
     d="m 171.71598,274.46521 v -14.2985 h -8.71642 -8.71641 v 14.2985 14.29851 h 8.71641 8.71642 z"
     id="path4654"
     inkscape:connector-curvature="0" />
  <path
     style="fill:#ff0000;stroke:#fb0000;stroke-width:0.05970149;stroke-opacity:1"
     d="m 171.71598,305.50999 v -16.68657 h -8.71642 -8.71641 v 16.68657 16.68657 h 8.71641 8.71642 z"
     id="path4656"
     inkscape:connector-curvature="0" />
  <path
     style="fill:#ff0000;stroke:#fb0000;stroke-width:0.05970149;stroke-opacity:1"
     d="m 169.50703,351.92285 c 0.75738,-0.0479 2.27791,-0.2239 2.32338,-0.26886 0.0137,-0.0135 -0.006,-0.0246 -0.0448,-0.0246 -0.0529,0 -0.0696,-3.5366 -0.0696,-14.68656 v -14.68657 h -8.71642 -8.71642 v 14.86567 14.86567 l 7.23881,-0.009 c 3.98134,-0.005 7.57463,-0.03 7.98508,-0.056 z"
     id="path4658"
     inkscape:connector-curvature="0" />
  <rect
     style="fill:#ff0000;stroke:#fb0000;stroke-opacity:1"
     id="rect4660"
     width="19.522388"
     height="22.447754"
     x="-173.61194"
     y="155.7612"
     transform="scale(-1,1)" />
  <rect
     style="fill:#ff0000;stroke:#fb0000;stroke-opacity:1"
     id="rect4666"
     width="1.0746269"
     height="11.283582"
     x="-155.34329"
     y="146.02985"
     transform="scale(-1,1)" />
  <rect
     style="fill:#ff0000;stroke:#fb0000;stroke-opacity:1"
     id="rect4668"
     width="18.865665"
     height="170.98506"
     x="-172.83582"
     y="177.85074"
     transform="scale(-1,1)" />
  <rect
     style="fill:#ff0000;stroke:#fb0000;stroke-opacity:1"
     id="rect4670"
     width="5.8507419"
     height="2.5074677"
     x="-159.82089"
     y="348.83582"
     transform="scale(-1,1)" />
  <path
     style="fill:#ff0000;stroke:#fb0000;stroke-width:0.02110766;stroke-opacity:1"
     d="m 154.26162,37.504111 c -0.0518,-0.119231 -0.27164,-0.593593 -0.37904,-0.817922 l -0.0859,-0.179415 -5.8e-4,0.543522 -5.8e-4,0.543523 h 0.25254 0.25254 z"
     id="path4672"
     inkscape:connector-curvature="0" />
  <path
     style="fill:none;stroke:#ff0000;stroke-width:0.99649328px;stroke-linecap:butt;stroke-linejoin:miter;stroke-opacity:1"
     d="M 134.38806,13.25373 V 114.86567"
     id="path4674"
     inkscape:connector-curvature="0" />
  <path
     style="fill:#ff0000;stroke:#ff0000;stroke-width:0.05970149;stroke-opacity:1"
     d="M 153.35232,48.38681 V 36.271372 l 0.15381,-0.01889 c 0.15305,-0.0188 0.15098,-0.02443 -0.41653,-1.137856 -4.17295,-8.187146 -10.0643,-15.434733 -17.10353,-21.040929 -0.47991,-0.382205 -0.91957,-0.735107 -0.97703,-0.784227 -0.0995,-0.08504 -0.10448,1.042709 -0.10448,23.561734 v 23.651045 h 9.22388 9.22388 z"
     id="path4676"
     inkscape:connector-curvature="0" />
  <path
     style="fill:#ff0000;stroke:#ff0000;stroke-width:0.05970149;stroke-opacity:1"
     d="m 147.18473,102.36792 c 2.03862,-2.724167 3.78118,-5.468266 5.37398,-8.462687 0.55275,-1.039153 1.03242,-1.978381 1.03242,-2.021563 0,-0.01332 -0.0537,-0.03826 -0.11941,-0.05544 -0.11901,-0.03113 -0.1194,-0.08143 -0.1194,-15.648754 v -15.61753 h -9.22388 -9.22388 v 21.462687 21.462687 h 5.72123 5.72123 z"
     id="path4678"
     inkscape:connector-curvature="0" />
  <path
     style="fill:#ff0000;stroke:#ff0000;stroke-width:0.05970149;stroke-opacity:1"
     d="m 136.03889,113.88258 c 3.44393,-2.76038 6.71863,-6.00713 9.5213,-9.44003 l 0.70675,-0.86568 -5.66099,-0.0152 c -3.11354,-0.008 -5.67021,-0.006 -5.68149,0.005 -0.0113,0.0113 -0.0137,2.5361 -0.005,5.61071 l 0.0152,5.5902 z"
     id="path4680"
     inkscape:connector-curvature="0" />
  <rect
     style="fill:#ff0000;stroke:#ff0000;stroke-opacity:1"
     id="rect4682"
     width="0.11940298"
     height="3.6417911"
     x="-134.68657"
     y="13.850745"
     transform="scale(-1,1)" />
  <rect
     style="fill:#ff0000;stroke:#ff0000;stroke-opacity:1"
     id="rect4684"
     width="0.35821089"
     height="96.0597"
     x="-135.10448"
     y="17.492537"
     transform="scale(-1,1)" />
  <rect
     style="fill:#ff0000;stroke:#ff0000;stroke-opacity:1"
     id="rect4686"
     width="9.6119404"
     height="2.9253731"
     x="-144.41791"
     y="101.91045"
     transform="scale(-1,1)" />
  <rect
     style="fill:#ff0000;stroke:#ff0000;stroke-opacity:1"
     id="rect4688"
     width="19.283583"
     height="3.522388"
     x="-154.68657"
     y="59.223881"
     transform="scale(-1,1)" />
  <rect
     style="fill:#ff0000;stroke:#ff0000;stroke-opacity:1"
     id="rect4690"
     width="1.7313437"
     height="26.925367"
     x="-153.73134"
     y="62.985077"
     transform="scale(-1,1)" />
  <rect
     style="fill:#ff0000;stroke:#ff0000;stroke-opacity:1"
     id="rect4692"
     width="2.3318028"
     height="22.24964"
     x="-153.79449"
     y="37.630962"
     transform="scale(-1,1)" />
  <path
     style="fill:none;stroke:#ff0000;stroke-width:0.92043549px;stroke-linecap:butt;stroke-linejoin:miter;stroke-opacity:1"
     d="m 134.76491,144.00647 -0.0358,366.98286"
     id="path4694"
     inkscape:connector-curvature="0" />
  <path
     style="fill:#ff0000;stroke:#ff0000;stroke-width:0.95522386;stroke-opacity:1"
     d="m 140.14708,508.12599 c 3.63707,-2.21796 7.96932,-7.29849 9.65628,-11.32414 1.04132,-2.48493 1.28808,-16.61071 1.28808,-73.73467 0,-46.07687 0.33234,-70.86627 0.95523,-71.25124 0.62726,-0.38767 0.95522,-35.94466 0.95522,-103.56209 V 145.28213 l -5.87146,-0.61369 c -3.22931,-0.33753 -7.09797,-0.61369 -8.59702,-0.61369 h -2.72555 v 182.92537 c 0,100.60896 0.32239,182.92377 0.71642,182.9218 0.39403,-0.002 2.02429,-0.80114 3.6228,-1.77593 z"
     id="path4696"
     inkscape:connector-curvature="0" />
  <rect
     style="fill:#ff0000;stroke:#ff0000;stroke-opacity:1"
     id="rect4698"
     width="6.1496277"
     height="205.383"
     x="-155.34329"
     y="146.02985"
     transform="scale(-1,1)" />
  <rect
     style="fill:#ff0000;stroke:#ff0000;stroke-opacity:1"
     id="rect4700"
     width="1.7730446"
     height="365.1626"
     x="-136.86678"
     y="144.47333"
     transform="scale(-1,1)" />
  <path
     style="fill:#ff0000;stroke:#ff0000;stroke-width:0.08443066;stroke-opacity:1"
     d="m 135.90723,510.62678 c 0.60162,-0.20767 0.61735,-0.21989 0.42215,-0.32806 -0.11151,-0.0618 -0.40222,-0.11371 -0.64601,-0.11535 l -0.44326,-0.003 v 0.33772 c 0,0.18575 0.01,0.33472 0.0211,0.33106 0.0116,-0.004 0.30231,-0.10374 0.64601,-0.22238 z"
     id="path4702"
     inkscape:connector-curvature="0" />
  <path
     style="fill:#ff0000;stroke:#ff0000;stroke-width:0.23880596;stroke-opacity:1"
     d="m 151.45876,492.34673 c 0.34718,-1.89162 0.38117,-6.40828 0.33936,-45.08729 l -0.0465,-42.98507 -0.16411,40.59701 c -0.10319,25.52919 -0.26455,42.22821 -0.43473,44.99192 -0.14885,2.41719 -0.22772,4.43782 -0.17526,4.49027 0.0525,0.0525 0.269,-0.85062 0.48121,-2.00684 z"
     id="path4704"
     inkscape:connector-curvature="0" />
  <path
     style="fill:#ff0000;stroke:#ff0000;stroke-width:0.08443066;stroke-opacity:1"
     d="m 151.96077,395.68782 c 0.004,-17.66923 -0.022,-30.66311 -0.0574,-28.87529 -0.10578,5.34799 -0.24515,22.50215 -0.24539,30.20507 -2.1e-4,6.33434 0.0149,7.19771 0.12612,7.19771 0.11147,0 0.1289,1.38918 0.14805,11.79919 0.0119,6.48955 0.0248,-2.65746 0.0286,-20.32668 z"
     id="path4706"
     inkscape:connector-curvature="0" />
  <path
     style="fill:none;stroke:#ff0000;stroke-width:1px;stroke-linecap:butt;stroke-linejoin:miter;stroke-opacity:1"
     d="M 115.41747,2.8656706 V 125.13433"
     id="path4708"
     inkscape:connector-curvature="0" />
  <path
     style="fill:#ff0000;stroke:#ff0000;stroke-width:0.23880596;stroke-opacity:1"
     d="m 118.51926,123.81769 c 4.63535,-1.76561 10.46925,-4.88941 14.41272,-7.71738 0.98219,-0.70435 1.38218,-1.11524 1.13433,-1.16522 -0.34984,-0.0705 -0.38287,-4.45226 -0.38287,-50.794105 0,-47.008535 0.029,-50.733116 0.39647,-50.938767 0.3258,-0.18233 0.0699,-0.450462 -1.43574,-1.504404 -4.30453,-3.0131417 -9.26629,-5.647753 -13.94885,-7.4066034 -1.34815,-0.5063862 -2.50345,-0.9207021 -2.56735,-0.9207021 -0.0639,0 -0.11617,27.2955225 -0.11617,60.6567165 0,33.361194 0.0806,60.646005 0.17911,60.632925 0.0985,-0.0131 1.14626,-0.3922 2.32835,-0.84246 z"
     id="path4710"
     inkscape:connector-curvature="0" />
  <path
     style="fill:#ff0000;stroke:#ff0000;stroke-width:0.23880596;stroke-opacity:1"
     d="m 133.80611,63.907822 c 1e-5,-18.519403 -0.0283,-26.13079 -0.0629,-16.914194 -0.0346,9.216596 -0.0346,24.368835 -1e-5,33.671641 0.0346,9.302806 0.0629,1.761956 0.063,-16.757447 z"
     id="path4712"
     inkscape:connector-curvature="0" />
  <path
     style="fill:#ff0000;stroke:#ff0000;stroke-width:0.02985075;stroke-opacity:1"
     d="m 133.87684,93.425275 c 0.004,-5.791101 -0.004,-8.689629 -0.0239,-8.677343 -0.0335,0.02067 -0.0346,10.994438 -0.002,15.000001 0.0127,1.536887 0.0217,-0.691101 0.0255,-6.322658 z"
     id="path4714"
     inkscape:connector-curvature="0" />
  <path
     style="fill:#ff0000;stroke:#ff0000;stroke-width:0.02985075;stroke-opacity:1"
     d="m 147.7567,101.62107 c 0.50818,-0.69409 1.07781,-1.51374 1.6071,-2.312511 l 0.45928,-0.693105 V 87.092141 75.568828 h -17.44777 -17.44776 v 13.268657 13.268655 h 0.49243 0.49244 l 0.008,-4.17164 0.008,-4.171642 0.007,4.171642 0.007,4.17164 h 8.9403 8.94029 l 0.007,-1.81343 c 0.005,-1.255824 0.0117,-1.593144 0.0232,-1.097016 0.009,0.39403 0.0195,-2.627239 0.0232,-6.713931 0.004,-4.086691 -0.003,-7.420275 -0.0157,-7.407964 -0.0123,0.01231 -0.0292,2.026117 -0.0376,4.475124 l -0.0152,4.452741 -0.007,-4.615748 c -0.006,-4.008325 -0.001,-4.62049 0.0362,-4.651781 0.0268,-0.02223 0.0475,-0.106549 0.0539,-0.220073 0.006,-0.101222 0.0131,3.815587 0.0163,8.70402 l 0.006,8.888058 h 6.74446 6.74446 z"
     id="path4716"
     inkscape:connector-curvature="0" />
  <path
     style="fill:#ff0000;stroke:#ff0000;stroke-width:0.02985075;stroke-opacity:1"
     d="m 133.83995,103.74793 c 0,-0.41865 -0.004,-0.58992 -0.009,-0.38059 -0.005,0.20932 -0.005,0.55186 0,0.76119 0.005,0.20933 0.009,0.0381 0.009,-0.3806 z"
     id="path4718"
     inkscape:connector-curvature="0" />
  <path
     style="fill:#ff0000;stroke:#ff0000;stroke-width:0.02985075;stroke-opacity:1"
     d="m 133.86843,103.15092 c 0,-1.61717 -0.004,-2.27873 -0.008,-1.47015 -0.004,0.80858 -0.004,2.13171 0,2.9403 0.004,0.80858 0.008,0.14701 0.008,-1.47015 z"
     id="path4720"
     inkscape:connector-curvature="0" />
  <path
     style="fill:#ff0000;stroke:#ff0000;stroke-width:0.02985075;stroke-opacity:1"
     d="m 134.32894,115.2376 c 0.23718,-0.17999 0.43755,-0.33358 0.44527,-0.3413 0.008,-0.008 -0.10935,-0.014 -0.26016,-0.014 -0.27084,0 -0.27399,8.4e-4 -0.25705,0.0683 0.0274,0.10918 -0.0338,0.22275 -0.2301,0.42721 -0.10089,0.10507 -0.17123,0.19014 -0.15632,0.18904 0.0149,-0.001 0.22118,-0.14925 0.45836,-0.32924 z"
     id="path4722"
     inkscape:connector-curvature="0" />
  <path
     style="fill:#ff0000;stroke:#ff0000;stroke-width:0.01055383;stroke-opacity:1"
     d="m 133.88343,106.66624 c 0.002,-1.5115 8e-5,-1.68597 -0.0145,-1.68597 -0.0173,0 -0.0169,0.17781 0.005,2.56458 0.007,0.71735 0.008,0.61939 0.009,-0.87861 z"
     id="path4724"
     inkscape:connector-curvature="0" />
  <path
     style="fill:#ff0000;stroke:#ff0000;stroke-width:0.01055383;stroke-opacity:1"
     d="m 133.89157,108.2203 -8e-5,-1.25063 -0.006,0.94984 c -0.003,0.52242 -0.003,1.0852 8e-5,1.25063 0.003,0.16543 0.006,-0.262 0.006,-0.94984 z"
     id="path4726"
     inkscape:connector-curvature="0" />
  <rect
     style="fill:#ff0000;stroke:#ff0000;stroke-opacity:1"
     id="rect4728"
     width="2.3440704"
     height="98.538933"
     x="-134.56717"
     y="13.850745"
     transform="scale(-1,1)" />
  <path
     style="fill:#ff0000;stroke:#ff0000;stroke-width:0.05970149;stroke-opacity:1"
     d="m 134.83356,13.174113 c -0.0157,-0.02533 -0.15642,-0.137946 -0.31282,-0.250259 -0.20166,-0.144823 -0.27253,-0.173413 -0.24371,-0.09832 0.0224,0.05824 0.0406,0.170855 0.0406,0.250259 0,0.131582 0.0241,0.144371 0.27218,0.144371 0.14969,0 0.25937,-0.02072 0.24371,-0.04605 z"
     id="path4730"
     inkscape:connector-curvature="0" />
  <path
     style="fill:#ff0000;stroke:#ff0000;stroke-width:0.05970149;stroke-opacity:1"
     d="m 116.0019,4.5783759 c 0.0109,-0.6156716 0.0409,-1.1629511 0.0667,-1.2161765 0.0313,-0.064603 0.016,-0.1086352 -0.0461,-0.1324547 -0.0824,-0.031602 -0.093,0.1074117 -0.093,1.2161766 0,0.6885217 0.0118,1.2518576 0.0262,1.2518576 0.0144,0 0.0352,-0.5037313 0.0461,-1.119403 z"
     id="path4732"
     inkscape:connector-curvature="0" />
  <path
     style="fill:#ff0000;stroke:#ff0000;stroke-width:0.05970149;stroke-opacity:1"
     d="m 156.64602,43.620525 c 0,-0.208612 -1.29188,-3.57077 -1.994,-5.189442 -0.21673,-0.499668 -0.39406,-0.989967 -0.39406,-1.089552 0,-0.123686 -0.0293,-0.181065 -0.0925,-0.181065 -0.051,0 -0.1428,-0.11241 -0.20465,-0.250561 l -0.11218,-0.250561 -0.0241,0.235636 c -0.0163,0.159182 -0.0274,0.105847 -0.0342,-0.164384 -0.006,-0.258381 -0.038,-0.416923 -0.0889,-0.447761 -0.0434,-0.02626 -0.12626,-0.168638 -0.18417,-0.316399 -0.14617,-0.37297 -1.24739,-2.446047 -1.96624,-3.701493 -3.54474,-6.190791 -8.12568,-11.783517 -13.48819,-16.467337 -1.25732,-1.098188 -2.97954,-2.473938 -3.11584,-2.489015 -0.067,-0.0074 -0.26211,-0.01691 -0.43347,-0.0211 -0.25801,-0.0063 -0.30532,-0.02387 -0.27527,-0.102178 0.0251,-0.06545 0.0493,-0.07345 0.0787,-0.02598 0.0247,0.03995 0.15205,0.06073 0.30512,0.04978 l 0.26274,-0.0188 -0.26457,-0.195392 c -0.14551,-0.107466 -0.28854,-0.187399 -0.31785,-0.17763 -0.0293,0.0098 -0.15949,-0.08326 -0.28928,-0.206734 -0.52945,-0.503649 -3.11394,-2.24538 -5.09845,-3.4359232 -3.06068,-1.8361639 -6.32283,-3.4570418 -9.34328,-4.6424363 -1.34143,-0.5264516 -3.18381,-1.1950928 -3.44413,-1.2499526 -0.18854,-0.03973 -0.19064,-0.03759 -0.21345,0.2175539 -0.0156,0.174595 -0.0264,0.118119 -0.0335,-0.1751572 l -0.0104,-0.4328358 h -0.47762 -0.47761 V 23.279869 43.667928 h 20.86567 c 11.47611,0 20.86567,-0.02133 20.86567,-0.0474 z M 115.879,21.742555 c 0.005,-9.235075 0.0292,-16.6164179 0.0537,-16.402985 0.0421,0.3666179 -1.2e-4,33.19403 -0.0427,33.19403 -0.011,0 -0.016,-7.55597 -0.0109,-16.791045 z m 37.49935,14.747847 c 0.0126,-0.140421 0.0231,-0.04038 0.0233,0.222302 2.1e-4,0.262687 -0.0101,0.377576 -0.0229,0.25531 -0.0128,-0.122267 -0.013,-0.337192 -4e-4,-0.477612 z"
     id="path4734"
     inkscape:connector-curvature="0" />
  <path
     style="fill:#ff0000;stroke:#ff0000;stroke-width:0.04221533;stroke-opacity:1"
     d="m 115.89248,113.62077 c 0,-6.33089 0.0116,-11.4991 0.0258,-11.48492 0.0142,0.0142 0.0413,4.03044 0.0603,8.92502 0.019,4.89458 0.0478,9.93636 0.064,11.20395 0.0267,2.0871 0.0363,2.31381 0.10218,2.40108 0.0878,0.11638 -0.0114,0.14363 1.45734,-0.40038 3.55389,-1.31631 6.82747,-2.86226 10.38498,-4.90431 2.26574,-1.30057 4.82024,-2.96309 5.70143,-3.71063 0.14479,-0.12283 0.27401,-0.21257 0.28715,-0.19943 0.0131,0.0131 0.19963,-0.10678 0.41441,-0.26649 l 0.39051,-0.29039 -0.22348,-0.0129 c -0.12291,-0.007 -0.24821,0.008 -0.27844,0.0327 -0.0406,0.0337 -0.0614,0.0289 -0.0797,-0.0188 -0.0209,-0.0546 0.0297,-0.0644 0.33279,-0.0644 h 0.35751 l 0.009,-0.4116 0.009,-0.4116 0.0139,0.39112 0.0139,0.39112 0.9377,-0.75613 c 2.10635,-1.69848 3.37027,-2.83454 5.31033,-4.77313 1.51551,-1.51437 2.8432,-2.93978 3.69822,-3.97045 0.0289,-0.0348 0.35678,-0.43376 0.72864,-0.88652 l 0.6761,-0.8232 -0.70623,-0.0227 -0.70623,-0.0227 0.73876,-0.0109 0.73877,-0.0109 0.81153,-1.08518 c 0.89705,-1.19955 1.13298,-1.52955 1.89705,-2.653536 l 0.52082,-0.766014 v -1.333959 -1.333958 h -17.32939 -17.3294 v 14.395427 14.39543 h 0.48548 0.48548 z"
     id="path4736"
     inkscape:connector-curvature="0" />
  <path
     style="fill:#ff0000;stroke:#ff0000;stroke-width:0.04221533;stroke-opacity:1"
     d="m 116.09266,124.76592 c 0.0387,-0.0156 0.0408,-0.043 0.008,-0.10436 -0.0792,-0.14795 -0.0889,-0.57776 -0.1206,-5.33468 l -0.0312,-4.6859 -0.007,5.07639 c -0.006,4.03826 0.004,5.07571 0.0457,5.07306 0.029,-0.002 0.0764,-0.0129 0.1052,-0.0245 z"
     id="path4738"
     inkscape:connector-curvature="0" />
  <path
     style="fill:#ff0000;stroke:#ff0000;stroke-width:0.04221533;stroke-opacity:1"
     d="m 115.90034,115.83356 c 0.004,-5.27092 0.0207,-8.63971 0.0375,-7.77817 0.0163,0.83586 0.0193,4.83471 0.007,8.88632 -0.0126,4.05162 -0.009,7.47691 0.008,7.61177 0.0251,0.19834 0.0445,0.24222 0.10154,0.22968 0.0388,-0.009 0.0657,-0.0383 0.0598,-0.0662 -0.008,-0.038 0.008,-0.0391 0.0638,-0.004 0.0896,0.056 0.19217,0.0235 1.67775,-0.53153 3.0895,-1.15417 5.9518,-2.4833 9.11851,-4.23427 2.25324,-1.24588 4.93393,-2.93077 6.2658,-3.93824 0.28849,-0.21822 0.59495,-0.43674 0.68103,-0.4856 0.25261,-0.1434 1.09431,-0.78076 2.02393,-1.53257 2.10737,-1.7043 3.18885,-2.68119 5.25916,-4.75052 2.0387,-2.03773 2.91876,-2.99957 4.3958,-4.80427 l 0.6999,-0.85517 -0.20657,-0.025 -0.20658,-0.025 0.23888,-0.007 0.23889,-0.007 0.83968,-1.12926 c 1.03461,-1.39141 1.00692,-1.35279 1.75952,-2.454157 l 0.61687,-0.902742 v -1.345224 -1.345224 h -17.32939 -17.3294 v 14.395427 14.39543 h 0.48548 0.48547 z m 0.13174,7.83175 c 0.0107,-0.0411 0.0202,-0.0177 0.021,0.052 8.6e-4,0.0697 -0.008,0.10327 -0.0195,0.0747 -0.0116,-0.0286 -0.0123,-0.0856 -0.002,-0.12664 z"
     id="path4740"
     inkscape:connector-curvature="0" />
  <path
     style="fill:#ff0000;stroke:#ff0000;stroke-width:0.04221533;stroke-opacity:1"
     d="M 149.58031,50.938045 V 32.173331 h -17.3575 -17.35751 l 0.0281,8.643589 c 0.0155,4.753974 0.0281,13.198095 0.0281,18.764714 l 2e-5,10.121126 h 17.32939 17.32939 z"
     id="path4742"
     inkscape:connector-curvature="0" />
  <path
     style="fill:#ff0000;stroke:#ff0000;stroke-width:0.04221533;stroke-opacity:1"
     d="M 149.58031,50.938045 V 32.173331 H 132.2228 114.86529 l 0.0281,11.556447 c 0.0155,6.356045 0.0281,14.800167 0.0281,18.764714 l 1e-5,7.208268 h 17.32939 17.32939 z"
     id="path4744"
     inkscape:connector-curvature="0" />
  <path
     style="fill:#ff0000;stroke:#ff0000;stroke-width:0.08443066;stroke-opacity:1"
     d="m 125.80093,120.60032 c 2.62141,-1.41205 5.4417,-3.13374 7.0815,-4.32302 0.4585,-0.33252 1.0474,-0.75049 1.30868,-0.92881 1.46638,-1.0008 4.32928,-3.45877 6.45701,-5.54372 4.90351,-4.80492 8.19437,-9.14479 11.49826,-15.163495 1.0179,-1.854302 1.40703,-2.654134 1.35599,-2.787142 -0.0259,-0.06753 0.008,-0.11752 0.0789,-0.11752 0.099,0 0.12399,-0.139788 0.12399,-0.692331 0,-0.708823 0.13251,-0.848422 0.18433,-0.194191 0.0255,0.321997 0.0519,0.280717 0.56782,-0.886521 5.80289,-13.129664 7.04945,-27.800571 3.54013,-41.664055 -0.23475,-0.927375 -0.45974,-1.772737 -0.49998,-1.878582 l -0.0732,-0.192446 h -21.26276 -21.26275 l -0.002,37.529429 -0.002,37.529424 4.8196,-0.002 4.81961,-0.002 z m 27.59336,-30.061567 c 0.0269,-0.06735 0.047,-0.04735 0.051,0.05101 0.004,0.089 -0.0163,0.138871 -0.0443,0.110815 -0.0281,-0.02806 -0.0311,-0.100878 -0.007,-0.161826 z m -37.49258,-17.60448 c 0.0149,-0.50172 0.0272,-0.114349 0.0273,0.860825 7e-5,0.975174 -0.0122,1.385673 -0.0272,0.912218 -0.015,-0.473454 -0.0151,-1.271324 -9e-5,-1.773043 z"
     id="path4746"
     inkscape:connector-curvature="0" />
  <path
     style="fill:#ff0000;stroke:#ff0000;stroke-width:0.02110766;stroke-opacity:1"
     d="m 131.11372,25.68734 v -9.382357 h -7.5868 -7.58681 l -0.009,0.05805 -0.009,0.05805 -0.003,-0.05805 -0.003,-0.05805 h -0.50658 -0.50658 v 7.914326 c 0,7.002684 -0.004,7.91636 -0.0316,7.931992 -0.0277,0.01553 -0.0299,0.192909 -0.0176,1.468032 l 0.0139,1.450364 h 8.12298 8.12298 z"
     id="path4748"
     inkscape:connector-curvature="0" />
  <path
     style="fill:#ff0000;stroke:#ff0000;stroke-width:0.02110766;stroke-opacity:1"
     d="m 131.11372,18.573926 v -8.052705 l -0.24801,-0.161314 c -1.1775,-0.7658671 -2.67094,-1.6626547 -3.94383,-2.3682012 l -0.23415,-0.1297889 h -5.9029 -5.9029 v 9.3823571 9.382357 h 8.11589 8.1159 z"
     id="path4750"
     inkscape:connector-curvature="0" />
  <path
     style="fill:none;stroke:#ff0000;stroke-width:1px;stroke-linecap:butt;stroke-linejoin:miter;stroke-opacity:1"
     d="m 115.16418,149.91045 0.0298,362.0597"
     id="path4752"
     inkscape:connector-curvature="0" />
  <path
     style="fill:#ff0000;stroke:#ff0000;stroke-width:0.11940298;stroke-opacity:1"
     d="m 130.87782,511.76062 c 1.67676,-0.20767 4.22502,-0.77405 3.48259,-0.77405 -0.10581,0 -0.1393,-8.19617 -0.1393,-34.08956 v -34.08955 h -9.25373 -9.25373 v 34.56717 34.56716 l 6.95522,-0.013 c 4.91349,-0.009 7.32326,-0.0585 8.20895,-0.16822 z"
     id="path4800"
     inkscape:connector-curvature="0" />
  <path
     style="fill:#ff0000;stroke:#ff0000;stroke-width:0.67544526;stroke-opacity:1"
     d="M 133.95592,293.39291 V 144.37848 l -1.51975,0.40086 c -0.83587,0.22047 -4.93533,1.54769 -9.10991,2.94938 l -7.59015,2.54853 -0.009,146.06504 -0.009,146.06505 h 9.11851 9.11851 z"
     id="path4802"
     inkscape:connector-curvature="0" />
  <path
     style="fill:#ff0000;stroke:#ff0000;stroke-width:0.04221533;stroke-opacity:1"
     d="m 131.4525,144.70726 c 0.37149,-0.11536 1.05538,-0.312 1.51975,-0.43696 l 0.8443,-0.22721 -0.59986,-0.003 -0.59986,-0.003 -0.9621,0.4265 c -0.52916,0.23458 -0.97003,0.43405 -0.9797,0.44326 -0.0471,0.0449 0.15935,-0.008 0.77747,-0.20022 z"
     id="path4804"
     inkscape:connector-curvature="0" />
  <path
     style="fill:#ff0000;stroke:#ff0000;stroke-width:0.04221533;stroke-opacity:1"
     d="m 134.28113,160.83942 c 0,-9.27577 -0.005,-13.0704 -0.0108,-8.43252 -0.006,4.63789 -0.006,12.22715 0,16.86503 0.006,4.63788 0.0108,0.84325 0.0108,-8.43251 z"
     id="path4806"
     inkscape:connector-curvature="0" />
  <rect
     style="fill:#ff0000;stroke:#ff0000;stroke-opacity:1"
     id="rect4808"
     width="2.1962354"
     height="357.27325"
     x="-134.57495"
     y="144.53416"
     transform="scale(-1,1)" />
  <path
     style="fill:#ff0000;stroke:#ff0000;stroke-width:0.04221533;stroke-opacity:1"
     d="m 142.95668,506.74041 c 2.25263,-1.81658 4.16883,-4.00803 5.62413,-6.43202 0.34639,-0.57694 0.659,-1.16084 0.63458,-1.18525 -0.0111,-0.0111 -0.13097,0.16556 -0.26637,0.39257 -1.38301,2.31861 -3.75654,5.16539 -5.78647,6.94019 -0.70614,0.61739 -0.71494,0.6256 -0.67024,0.62526 0.0232,-1.6e-4 0.23218,-0.15351 0.46437,-0.34075 z"
     id="path4810"
     inkscape:connector-curvature="0" />
  <path
     style="fill:#ff0000;stroke:#ff0000;stroke-width:0.04221533;stroke-opacity:1"
     d="m 151.91334,456.75626 c -0.0155,-6.83008 -0.0281,-15.2742 -0.0281,-18.76471 v -6.34639 h -18.59585 -18.59586 v 18.76471 18.76472 h 18.62398 18.62397 z"
     id="path4812"
     inkscape:connector-curvature="0" />
  <path
     style="fill:#000000;stroke:#000000;stroke-width:0.16886133;stroke-opacity:1"
     d="M 92.165253,127.82861 C 79.566015,126.91757 68.400925,122.90399 58.481727,115.72019 55.763512,113.75158 54.049902,112.2875 51.243457,109.53595 41.739986,100.21837 35.4183,88.303233 33.080306,75.301983 c -0.694005,-3.859258 -0.92444,-6.6951 -0.923657,-11.366932 8.03e-4,-4.787279 0.225272,-7.392396 0.997965,-11.582043 C 37.514461,28.713306 54.972723,9.3971202 78.087935,2.6378434 83.383237,1.0894081 88.470498,0.31047164 94.27602,0.1592035 c 6.67348,-0.17388346 11.98376,0.44782088 18.53253,2.1697071 l 1.98412,0.5216902 V 63.960905 125.07121 l -0.46437,0.17813 c -1.76059,0.67535 -8.32666,1.98376 -11.77808,2.347 -1.78878,0.18826 -8.819063,0.3455 -10.384967,0.23227 z"
     id="path5593"
     inkscape:connector-curvature="0" />
  <path
     style="fill:#ff0000;stroke:#000000;stroke-width:0.16886133;stroke-opacity:1"
     d="M 89.940373,127.66929 C 70.425673,125.63963 53.495157,115.48453 42.803245,99.395929 40.718557,96.259006 39.661127,94.411705 38.238994,91.422309 32.304892,78.948525 30.607096,64.975147 33.350196,51.186021 34.965053,43.068391 38.676565,34.405601 43.512517,27.466836 47.789894,21.329527 53.977844,15.221645 60.095316,11.098603 68.565365,5.3899769 77.590854,1.9548627 87.679371,0.60007349 90.97047,0.15811094 97.748143,-0.01525429 101.04419,0.25821654 c 4.57656,0.37971498 9.1426,1.22244496 13.46669,2.48547826 0.28073,0.082 0.29551,3.1450658 0.29551,61.2654912 v 61.179174 l -1.98413,0.52182 c -2.34771,0.61744 -5.5149,1.26058 -7.98076,1.6206 -4.22444,0.61677 -10.791316,0.76595 -14.901127,0.33851 z"
     id="path5599"
     inkscape:connector-curvature="0" />
  <path
     style="fill:#000000;stroke:#000000;stroke-width:0.33772266;stroke-opacity:1"
     d="m 114.92874,64.003458 c 0,-41.890544 0.10963,-60.9589376 0.35046,-60.9589376 0.19275,0 1.6745,0.5114033 3.29279,1.1364518 22.52742,8.7010048 37.93295,28.4865338 40.91881,52.5525908 0.76544,6.169487 0.26681,15.332422 -1.16664,21.438617 -4.4947,19.146385 -16.59909,34.52057 -33.93705,43.10459 -3.524,1.74472 -8.33765,3.68563 -9.14077,3.68563 -0.19714,0 -0.3176,-23.12028 -0.3176,-60.958942 z"
     id="path5603"
     inkscape:connector-curvature="0" />
  <path
     style="fill:#ff0000;stroke:#000000;stroke-width:0.23880598;stroke-opacity:1"
     d="M 40.062963,396.97322 40.00264,351.8986 29.853387,351.7658 C 19.22355,351.62672 19.42778,351.64579 15.883237,350.46085 10.548382,348.6774 5.307517,343.96073 2.632956,338.53586 1.2159735,335.66177 0.55607483,333.34465 0.24585355,330.15396 0.1059027,328.71454 0.01253541,308.47381 0.00880094,278.76427 L 0.00263982,229.74934 H 57.316074 114.62951 V 335.8986 442.04785 H 77.376396 40.123283 Z"
     id="path5607"
     inkscape:connector-curvature="0" />
  <path
     style="fill:#ff0000;stroke:#000000;stroke-width:0.23880598;stroke-opacity:1"
     d="M 0.06509503,208.67471 C 0.17626568,185.81166 0.16453778,186.03148 1.5780738,180.3165 5.7141372,163.59424 19.01254,150.16012 35.827271,145.71777 c 4.873867,-1.28765 7.387606,-1.53242 15.996265,-1.55764 l 7.761194,-0.0227 3.462687,1.47277 c 7.111642,3.02476 15.228736,5.06408 24.238806,6.08968 1.450326,0.16509 5.407778,0.29822 8.835821,0.29725 6.474746,-0.002 10.563726,-0.34595 15.522386,-1.30624 1.31344,-0.25435 2.52239,-0.46279 2.68657,-0.46319 0.23761,-5.7e-4 0.29851,8.11034 0.29851,39.76048 v 39.76119 H 57.296064 -0.0373795 Z"
     id="path5609"
     inkscape:connector-curvature="0" />
  <path
     style="fill:#ff0000;stroke:#000000;stroke-width:0.23880598;stroke-opacity:1"
     d="m 59.253501,511.41033 c -4.842215,-1.05051 -9.022221,-3.38181 -12.47267,-6.95635 -2.814534,-2.91576 -4.783932,-6.44708 -6.013133,-10.78214 -0.516513,-1.8216 -0.520163,-1.98694 -0.590074,-26.72847 l -0.07035,-24.89552 h 37.261114 37.261122 v 34.86567 34.86568 l -26.92538,-0.019 c -21.998704,-0.0155 -27.204458,-0.0795 -28.450633,-0.34988 z"
     id="path5611"
     inkscape:connector-curvature="0" />
  <path
     style="fill:#000000;stroke:#000000;stroke-width:0.23880598;stroke-opacity:1"
     d="m 114.86916,423.30158 v -88.47761 h 37.97015 c 20.88359,0 37.97015,0.0572 37.97015,0.12711 0,0.0699 -0.32008,0.95647 -0.71129,1.97014 -1.58628,4.11024 -5.15101,8.45502 -8.99029,10.9576 -2.28354,1.48848 -3.73008,2.16487 -6.55237,3.06384 -1.949,0.62079 -2.2873,0.64934 -10.37291,0.87515 -4.59702,0.12838 -9.12653,0.18132 -10.06558,0.11763 -1.69365,-0.11486 -1.70847,-0.11067 -1.84325,0.5207 -0.34011,1.59326 -0.66852,22.31573 -0.5702,35.97977 0.0595,8.27463 0.0367,14.18507 -0.0506,13.13433 -0.0874,-1.05075 -0.15304,5.28955 -0.14591,14.08955 l 0.013,16 0.13092,-13.73134 c 0.072,-7.55224 0.11958,5.98806 0.10573,30.08955 -0.0225,39.05233 -0.066,43.96382 -0.40008,45.13433 l -0.3749,1.31343 -0.0576,-0.95522 c -0.0416,-0.68889 -0.1179,-0.42677 -0.27377,0.94013 -0.25523,2.23821 -0.6793,3.27294 -2.46266,6.00885 -3.20453,4.91619 -9.24172,9.78519 -12.00501,9.68206 -0.72138,-0.0269 -1.01492,0.0573 -1.01492,0.29122 0,0.34178 -1.08358,0.70513 -3.31618,1.11198 -0.70748,0.12893 -4.60242,0.23442 -8.65543,0.23442 h -7.36911 l -0.0623,-21.31344 -0.0623,-21.31343 -0.0584,21.31343 c -0.0514,18.76011 -0.10131,21.31344 -0.41661,21.31344 -0.31776,0 -0.35821,-9.99005 -0.35821,-88.47762 z m 19.51219,79.58488 c -0.0571,-0.29706 -0.10603,-0.11025 -0.10868,0.41512 -0.003,0.52538 0.0441,0.76842 0.10386,0.5401 0.0598,-0.22832 0.0619,-0.65817 0.005,-0.95522 z m 16.72027,-14.33115 c -0.053,-0.42686 -0.0963,-0.0776 -0.0963,0.77612 0,0.85374 0.0433,1.20299 0.0963,0.77612 0.053,-0.42686 0.053,-1.12537 0,-1.55224 z"
     id="path5613"
     inkscape:connector-curvature="0" />
  <path
     style="fill:#000000;stroke:#000000;stroke-width:0.47761196;stroke-opacity:1"
     d="m 115.12717,251.41114 c -7.5e-4,-45.77313 -0.13868,-87.2 -0.30651,-92.0597 l -0.30517,-8.83582 8.54532,-2.81387 c 4.69992,-1.54763 8.69118,-3.03998 8.86945,-3.31633 0.43743,-0.67811 9.69934,-0.5967 16.63109,0.14619 7.76408,0.83208 13.70378,2.81982 20.72956,6.93719 1.70749,1.00066 2.20328,1.56884 2.22939,2.55489 0.0272,1.02839 0.099,1.10186 0.37971,0.38874 0.31189,-0.79229 0.58041,-0.69412 2.71363,0.99209 6.16208,4.87085 11.83989,13.11177 14.52473,21.08158 2.53694,7.53078 2.43839,4.21442 2.44591,82.3091 0.004,39.86857 -0.13449,73.24239 -0.3074,74.16406 l -0.31437,1.67576 h -37.917 -37.91699 z"
     id="path5615"
     inkscape:connector-curvature="0" />
  <path
     style="fill:#ff0000;stroke:#ff0000;stroke-width:0.04221533;stroke-opacity:1"
     d="m -0.10030438,240.57172 c -0.0125525,-12.76585 0.0018527,-22.45351 0.03712984,-24.97037 l 0.02559125,-1.82581 h 0.10360002 c 0.0997307,0 0.10274813,0.008 0.08079061,0.22163 -0.0125452,0.12189 -0.0347443,3.69331 -0.0493314,7.93648 L 0.07095396,229.6485 H 30.512286 60.953618 v 0.10554 0.10554 H 30.537472 0.12132611 v 10.72269 10.7227 H 0.01578778 -0.08975054 Z"
     id="path5623"
     inkscape:connector-curvature="0" />
  <path
     style="fill:#ff0000;stroke:#ff0000;stroke-width:0.04221533;stroke-opacity:1"
     d="M 114.52696,240.24531 V 229.86033 H 87.762437 60.997917 v -0.10553 -0.10554 h 26.76452 26.764523 v -8.27421 -8.2742 h 0.10554 0.10553 v 18.76471 18.76472 h -0.10553 -0.10554 z"
     id="path5625"
     inkscape:connector-curvature="0" />
  <path
     style="fill:#ff0000;stroke:#ff0000;stroke-width:0.04221533;stroke-opacity:1"
     d="M 114.50698,456.11511 V 442.16294 H 84.428555 54.350132 v -0.10553 -0.10554 h 30.078423 30.078425 v -4.70701 -4.70701 h 0.10536 0.10535 l 0.0109,4.71756 0.0109,4.71757 0.0104,-4.71757 0.0104,-4.71756 h 0.37994 0.37994 v 18.76471 18.76472 h -0.37988 -0.37987 l -0.0107,-13.96272 -0.0107,-13.96272 -0.0105,13.96272 -0.0105,13.96272 h -0.10554 -0.10554 z"
     id="path5627"
     inkscape:connector-curvature="0" />
  <path
     style="fill:#000000;stroke:#000000;stroke-width:0.04221533;stroke-opacity:1"
     d="m 40.013885,451.30256 v -18.76471 h 0.105539 0.105538 v 4.70701 4.70701 h 7.04996 7.049961 v 0.10554 0.10553 H 47.27042 40.215956 l 0.02613,13.37171 c 0.01437,7.35444 0.03716,13.63291 0.05065,13.95217 l 0.02452,0.58046 h -0.151685 -0.151686 z"
     id="path5629"
     inkscape:connector-curvature="0" />
  <rect
     style="fill:#000000;stroke:#000000;stroke-opacity:1"
     id="rect5631"
     width="2.3880587"
     height="37.910461"
     x="115.04478"
     y="431.82089" />
  <rect
     style="fill:#ff0000;stroke:#ff0000;stroke-opacity:1"
     id="rect5637"
     width="113.8395"
     height="1.6052231"
     x="0.42916292"
     y="229.55894" />
  <rect
     style="fill:#ff0000;stroke:#ff0000;stroke-opacity:1"
     id="rect5639"
     width="72.865677"
     height="1.8208923"
     x="41.134338"
     y="441.07462" />
</svg>
