<?xml version="1.0" encoding="UTF-8" standalone="no"?>
<svg
   xmlns:dc="http://purl.org/dc/elements/1.1/"
   xmlns:cc="http://creativecommons.org/ns#"
   xmlns:rdf="http://www.w3.org/1999/02/22-rdf-syntax-ns#"
   xmlns:svg="http://www.w3.org/2000/svg"
   xmlns="http://www.w3.org/2000/svg"
   xmlns:sodipodi="http://sodipodi.sourceforge.net/DTD/sodipodi-0.dtd"
   xmlns:inkscape="http://www.inkscape.org/namespaces/inkscape"
   aria-hidden="true"
   focusable="false"
   data-prefix="fas"
   data-icon="male"
   class="svg-inline--fa fa-male fa-w-6"
   role="img"
   viewBox="0 0 192 512"
   version="1.1"
   id="svg3725"
   sodipodi:docname="male-solid_710.svg"
   inkscape:version="0.92.5 (2060ec1f9f, 2020-04-08)">
  <metadata
     id="metadata3731">
    <rdf:RDF>
      <cc:Work
         rdf:about="">
        <dc:format>image/svg+xml</dc:format>
        <dc:type
           rdf:resource="http://purl.org/dc/dcmitype/StillImage" />
        <dc:title></dc:title>
      </cc:Work>
    </rdf:RDF>
  </metadata>
  <defs
     id="defs3729" />
  <sodipodi:namedview
     pagecolor="#ffffff"
     bordercolor="#666666"
     borderopacity="1"
     objecttolerance="10"
     gridtolerance="10"
     guidetolerance="10"
     inkscape:pageopacity="0"
     inkscape:pageshadow="2"
     inkscape:window-width="1366"
     inkscape:window-height="705"
     id="namedview3727"
     showgrid="false"
     inkscape:zoom="0.74025241"
     inkscape:cx="-47.637686"
     inkscape:cy="217.11289"
     inkscape:window-x="-8"
     inkscape:window-y="-8"
     inkscape:window-maximized="1"
     inkscape:current-layer="svg3725" />
  <path
     d="M 96,0 C 60.654,0 32,28.654 32,64 c 0,35.346 28.654,64 64,64 35.346,0 64,-28.654 64,-64 C 160,28.654 131.346,0 96,0 M 48,144 h 11.36 c 22.711,10.443 49.59,10.894 73.28,0 H 144 c 26.51,0 48,21.49 48,48 v 136 c 0,13.255 -10.745,24 -24,24 h -16 v 136 c 0,13.255 -10.745,24 -24,24 H 64 C 50.745,512 40,501.255 40,488 V 352 H 24 C 10.745,352 0,341.255 0,328 V 192 c 0,-26.51 21.49,-48 48,-48 z"
     id="path3723"
     inkscape:connector-curvature="0"
     style="fill:currentColor" />
  <rect
     style="fill:#ff0000"
     id="rect3733"
     width="1.0144672"
     height="198.15918"
     x="-172.74982"
     y="153.42297"
     rx="0"
     ry="0"
     transform="scale(-1,1)" />
  <path
     style="fill:#ff0000;stroke-width:0.08443066"
     d="m 191.92421,199.93823 c -0.0332,-12.19666 -0.0208,-11.81879 -0.49265,-15.04976 -1.00395,-6.87456 -3.66675,-13.7394 -7.60896,-19.61633 -0.8317,-1.23986 -2.43583,-3.34502 -3.45251,-4.53084 -1.07169,-1.24999 -3.77975,-3.97077 -4.97138,-4.99474 -0.88468,-0.7602 -2.51068,-2.05522 -2.5805,-2.05522 -0.0203,0 -0.0368,12.95588 -0.0368,28.79085 v 28.79086 h 9.58684 9.58685 z"
     id="path3735"
     inkscape:connector-curvature="0" />
  <path
     style="fill:#ff0000;stroke-width:0.08443066"
     d="m 191.94712,238.29086 v -27.01781 h -9.58288 -9.58288 v 27.01781 27.01781 h 9.58288 9.58288 z"
     id="path3737"
     inkscape:connector-curvature="0" />
  <path
     style="fill:#ff0000;stroke-width:0.08443066"
     d="m 191.94712,282.1948 v -16.88613 h -9.58288 -9.58288 v 16.88613 16.88614 h 9.58288 9.58288 z"
     id="path3739"
     inkscape:connector-curvature="0" />
  <path
     style="fill:#ff0000;stroke-width:0.08443066"
     d="m 191.94712,312.58984 v -13.5089 h -9.58288 -9.58288 v 13.5089 13.50891 h 9.58288 9.58288 z"
     id="path3741"
     inkscape:connector-curvature="0" />
  <path
     style="fill:#ff0000;stroke-width:0.08443066"
     d="m 173.79453,351.25101 c 1.26909,-0.3265 2.7657,-0.83833 3.83076,-1.31008 6.73632,-2.98377 11.76602,-8.89828 13.56567,-15.9521 0.51839,-2.03187 0.6804,-3.30536 0.73255,-5.75821 l 0.0453,-2.13187 h -9.59374 -9.59374 v 12.70681 c 0,6.98875 0.01,12.70421 0.0211,12.70103 0.0116,-0.003 0.45803,-0.1182 0.99206,-0.25558 z"
     id="path3743"
     inkscape:connector-curvature="0" />
  <rect
     style="fill:#ff0000"
     id="rect3755"
     width="5.1343284"
     height="6.029851"
     x="-177.67165"
     y="209.49254"
     transform="scale(-1,1)" />
  <rect
     style="fill:#ff0000"
     id="rect3757"
     width="15.701492"
     height="3.522388"
     x="-191.94029"
     y="210.14925"
     transform="scale(-1,1)" />
  <rect
     style="fill:#ff0000"
     id="rect3759"
     width="0.89552242"
     height="7.1641793"
     x="-173.25372"
     y="154.08955"
     transform="scale(-1,1)" />
  <rect
     style="fill:#ff0000"
     id="rect3761"
     width="0.65671641"
     height="0.77611941"
     x="-173.61194"
     y="154.98508"
     transform="scale(-1,1)" />
  <rect
     style="fill:#ff0000"
     id="rect3763"
     width="0.59701538"
     height="0.89552307"
     x="-172.95523"
     y="154.08955"
     transform="scale(-1,1)" />
  <rect
     style="fill:#ff0000"
     id="rect3765"
     width="1.6716418"
     height="27.343283"
     x="-174.02985"
     y="160.47762"
     transform="scale(-1,1)" />
  <rect
     style="fill:#ff0000"
     id="rect3767"
     width="3.3432834"
     height="22.865673"
     x="-175.8806"
     y="186.62686"
     transform="scale(-1,1)" />
  <rect
     style="fill:#ff0000"
     id="rect3769"
     width="2.6268656"
     height="24.179104"
     x="-174.86568"
     y="215.10448"
     transform="scale(-1,1)" />
  <rect
     style="fill:#ff0000"
     id="rect3771"
     width="3.3432837"
     height="30.626865"
     x="-175.70149"
     y="238.74626"
     transform="scale(-1,1)" />
  <rect
     style="fill:#ff0000"
     id="rect3773"
     width="17.731344"
     height="2.3880596"
     x="-191.94029"
     y="263.88058"
     transform="scale(-1,1)" />
  <rect
     style="fill:#ff0000"
     id="rect3775"
     width="1.4925373"
     height="24.238806"
     x="-173.79105"
     y="268.83582"
     transform="scale(-1,1)" />
  <rect
     style="fill:#ff0000"
     id="rect3777"
     width="3.4626865"
     height="25.492537"
     x="-175.7612"
     y="292.11942"
     transform="scale(-1,1)" />
  <rect
     style="fill:#ff0000"
     id="rect3779"
     width="17.97015"
     height="2.5671642"
     x="-191.82089"
     y="297.67163"
     transform="scale(-1,1)" />
  <rect
     style="fill:#ff0000"
     id="rect3781"
     width="2.5671642"
     height="28.716417"
     x="-174.98508"
     y="316.17911"
     transform="scale(-1,1)" />
  <rect
     style="fill:#ff0000"
     id="rect3783"
     width="18.268658"
     height="1.4925373"
     x="-191.94029"
     y="325.43283"
     transform="scale(-1,1)" />
  <rect
     style="fill:#ff0000"
     id="rect3785"
     width="1.0746269"
     height="6.8059702"
     x="-172.80997"
     y="344.77618"
     transform="scale(-1,1)" />
  <rect
     style="fill:#ff0000"
     id="rect3795"
     width="0.74226987"
     height="4.5970793"
     x="-172.47762"
     y="346.98508"
     transform="scale(-1,1)" />
  <rect
     style="fill:#ff0000"
     id="rect3797"
     width="0.33235741"
     height="6.8059692"
     x="-172.80997"
     y="344.77618"
     transform="scale(-1,1)" />
  <rect
     style="fill:#ff0000"
     id="rect3799"
     width="2.5671642"
     height="5.2537313"
     x="-174.92537"
     y="345.49252"
     transform="scale(-1,1)" />
  <path
     style="fill:none;stroke:#ff0000;stroke-width:0.38344064px;stroke-linecap:butt;stroke-linejoin:miter;stroke-opacity:1"
     d="m 153.58718,36.268521 -0.006,55.527002"
     id="path4614"
     inkscape:connector-curvature="0" />
  <path
     style="fill:#ff0000;stroke:#ff0000;stroke-width:0.04221533;stroke-opacity:1"
     d="m 159.04169,75.002082 c 0.013,-0.08707 0.091,-0.585737 0.17343,-1.108152 0.51948,-3.293472 0.74716,-6.310106 0.74716,-9.899495 0,-1.949289 -0.0377,-3.099025 -0.15446,-4.707009 -0.50153,-6.908193 -2.13367,-13.717544 -4.81143,-20.07339 -0.2152,-0.510805 -0.45861,-1.075963 -0.54089,-1.255906 l -0.14962,-0.327169 h -0.25569 -0.2557 V 56.395675 75.16039 h 2.6118 2.61179 z"
     id="path4616"
     inkscape:connector-curvature="0" />
  <path
     style="fill:#ff0000;stroke:#ff0000;stroke-width:0.04221533;stroke-opacity:1"
     d="m 154.15262,90.706185 c 1.75178,-3.786077 3.21308,-8.052201 4.16094,-12.147461 0.21618,-0.933983 0.67342,-3.168192 0.67342,-3.290499 0,-0.05864 -0.27622,-0.06562 -2.59624,-0.06562 h -2.59625 v 8.105344 c 0,4.457938 0.007,8.105343 0.0155,8.105343 0.008,0 0.16271,-0.318198 0.34265,-0.707107 z"
     id="path4618"
     inkscape:connector-curvature="0" />
  <rect
     style="fill:#ff0000;stroke:#ff0000;stroke-opacity:1"
     id="rect4642"
     width="4.4537163"
     height="0.21108246"
     x="-158.48102"
     y="74.775826"
     transform="scale(-1,1)" />
  <path
     style="fill:none;stroke:#fb0000;stroke-width:0.99971169px;stroke-linecap:butt;stroke-linejoin:miter;stroke-opacity:1"
     d="M 153.76119,145.01492 V 352"
     id="path4644"
     inkscape:connector-curvature="0" />
  <path
     style="fill:#ff0000;stroke:#fb0000;stroke-width:0.05970149;stroke-opacity:1"
     d="m 171.71598,163.77865 v -10.35821 h 0.39727 0.39727 l -0.50174,-0.36486 c -2.85515,-2.07617 -6.32306,-4.00454 -9.75548,-5.42464 -2.06316,-0.85359 -4.84224,-1.76568 -6.71642,-2.20433 -0.27911,-0.0653 -0.67537,-0.15821 -0.8806,-0.20643 l -0.37313,-0.0877 v 14.50217 14.50217 h 8.71642 8.71641 z"
     id="path4646"
     inkscape:connector-curvature="0" />
  <path
     style="fill:#ff0000;stroke:#fb0000;stroke-width:0.05970149;stroke-opacity:1"
     d="m 171.71598,186.10701 v -11.91045 h -8.71642 -8.71641 v 11.91045 11.91044 h 8.71641 8.71642 z"
     id="path4648"
     inkscape:connector-curvature="0" />
  <path
     style="fill:#ff0000;stroke:#fb0000;stroke-width:0.05970149;stroke-opacity:1"
     d="m 171.71598,217.15178 v -19.07463 h -8.71642 -8.71641 v 19.07463 19.07463 h 8.71641 8.71642 z"
     id="path4650"
     inkscape:connector-curvature="0" />
  <path
     style="fill:#ff0000;stroke:#fb0000;stroke-width:0.05970149;stroke-opacity:1"
     d="m 171.71598,248.19656 v -11.91045 h -8.71642 -8.71641 v 11.91045 11.91045 h 8.71641 8.71642 z"
     id="path4652"
     inkscape:connector-curvature="0" />
  <path
     style="fill:#ff0000;stroke:#fb0000;stroke-width:0.05970149;stroke-opacity:1"
     d="m 171.71598,274.46521 v -14.2985 h -8.71642 -8.71641 v 14.2985 14.29851 h 8.71641 8.71642 z"
     id="path4654"
     inkscape:connector-curvature="0" />
  <path
     style="fill:#ff0000;stroke:#fb0000;stroke-width:0.05970149;stroke-opacity:1"
     d="m 171.71598,305.50999 v -16.68657 h -8.71642 -8.71641 v 16.68657 16.68657 h 8.71641 8.71642 z"
     id="path4656"
     inkscape:connector-curvature="0" />
  <path
     style="fill:#ff0000;stroke:#fb0000;stroke-width:0.05970149;stroke-opacity:1"
     d="m 169.50703,351.92285 c 0.75738,-0.0479 2.27791,-0.2239 2.32338,-0.26886 0.0137,-0.0135 -0.006,-0.0246 -0.0448,-0.0246 -0.0529,0 -0.0696,-3.5366 -0.0696,-14.68656 v -14.68657 h -8.71642 -8.71642 v 14.86567 14.86567 l 7.23881,-0.009 c 3.98134,-0.005 7.57463,-0.03 7.98508,-0.056 z"
     id="path4658"
     inkscape:connector-curvature="0" />
  <rect
     style="fill:#ff0000;stroke:#fb0000;stroke-opacity:1"
     id="rect4660"
     width="19.522388"
     height="22.447754"
     x="-173.61194"
     y="155.7612"
     transform="scale(-1,1)" />
  <rect
     style="fill:#ff0000;stroke:#fb0000;stroke-opacity:1"
     id="rect4666"
     width="1.0746269"
     height="11.283582"
     x="-155.34329"
     y="146.02985"
     transform="scale(-1,1)" />
  <rect
     style="fill:#ff0000;stroke:#fb0000;stroke-opacity:1"
     id="rect4668"
     width="18.865665"
     height="170.98506"
     x="-172.83582"
     y="177.85074"
     transform="scale(-1,1)" />
  <rect
     style="fill:#ff0000;stroke:#fb0000;stroke-opacity:1"
     id="rect4670"
     width="5.8507419"
     height="2.5074677"
     x="-159.82089"
     y="348.83582"
     transform="scale(-1,1)" />
  <path
     style="fill:#ff0000;stroke:#fb0000;stroke-width:0.02110766;stroke-opacity:1"
     d="m 154.26162,37.504111 c -0.0518,-0.119231 -0.27164,-0.593593 -0.37904,-0.817922 l -0.0859,-0.179415 -5.8e-4,0.543522 -5.8e-4,0.543523 h 0.25254 0.25254 z"
     id="path4672"
     inkscape:connector-curvature="0" />
  <path
     style="fill:none;stroke:#ff0000;stroke-width:0.99649328px;stroke-linecap:butt;stroke-linejoin:miter;stroke-opacity:1"
     d="M 134.38806,13.25373 V 114.86567"
     id="path4674"
     inkscape:connector-curvature="0" />
  <path
     style="fill:#ff0000;stroke:#ff0000;stroke-width:0.05970149;stroke-opacity:1"
     d="M 153.35232,48.38681 V 36.271372 l 0.15381,-0.01889 c 0.15305,-0.0188 0.15098,-0.02443 -0.41653,-1.137856 -4.17295,-8.187146 -10.0643,-15.434733 -17.10353,-21.040929 -0.47991,-0.382205 -0.91957,-0.735107 -0.97703,-0.784227 -0.0995,-0.08504 -0.10448,1.042709 -0.10448,23.561734 v 23.651045 h 9.22388 9.22388 z"
     id="path4676"
     inkscape:connector-curvature="0" />
  <path
     style="fill:#ff0000;stroke:#ff0000;stroke-width:0.05970149;stroke-opacity:1"
     d="m 147.18473,102.36792 c 2.03862,-2.724167 3.78118,-5.468266 5.37398,-8.462687 0.55275,-1.039153 1.03242,-1.978381 1.03242,-2.021563 0,-0.01332 -0.0537,-0.03826 -0.11941,-0.05544 -0.11901,-0.03113 -0.1194,-0.08143 -0.1194,-15.648754 v -15.61753 h -9.22388 -9.22388 v 21.462687 21.462687 h 5.72123 5.72123 z"
     id="path4678"
     inkscape:connector-curvature="0" />
  <path
     style="fill:#ff0000;stroke:#ff0000;stroke-width:0.05970149;stroke-opacity:1"
     d="m 136.03889,113.88258 c 3.44393,-2.76038 6.71863,-6.00713 9.5213,-9.44003 l 0.70675,-0.86568 -5.66099,-0.0152 c -3.11354,-0.008 -5.67021,-0.006 -5.68149,0.005 -0.0113,0.0113 -0.0137,2.5361 -0.005,5.61071 l 0.0152,5.5902 z"
     id="path4680"
     inkscape:connector-curvature="0" />
  <rect
     style="fill:#ff0000;stroke:#ff0000;stroke-opacity:1"
     id="rect4682"
     width="0.11940298"
     height="3.6417911"
     x="-134.68657"
     y="13.850745"
     transform="scale(-1,1)" />
  <rect
     style="fill:#ff0000;stroke:#ff0000;stroke-opacity:1"
     id="rect4684"
     width="0.35821089"
     height="96.0597"
     x="-135.10448"
     y="17.492537"
     transform="scale(-1,1)" />
  <rect
     style="fill:#ff0000;stroke:#ff0000;stroke-opacity:1"
     id="rect4686"
     width="9.6119404"
     height="2.9253731"
     x="-144.41791"
     y="101.91045"
     transform="scale(-1,1)" />
  <rect
     style="fill:#ff0000;stroke:#ff0000;stroke-opacity:1"
     id="rect4688"
     width="19.283583"
     height="3.522388"
     x="-154.68657"
     y="59.223881"
     transform="scale(-1,1)" />
  <rect
     style="fill:#ff0000;stroke:#ff0000;stroke-opacity:1"
     id="rect4690"
     width="1.7313437"
     height="26.925367"
     x="-153.73134"
     y="62.985077"
     transform="scale(-1,1)" />
  <rect
     style="fill:#ff0000;stroke:#ff0000;stroke-opacity:1"
     id="rect4692"
     width="2.3318028"
     height="22.24964"
     x="-153.79449"
     y="37.630962"
     transform="scale(-1,1)" />
  <path
     style="fill:none;stroke:#ff0000;stroke-width:0.92043549px;stroke-linecap:butt;stroke-linejoin:miter;stroke-opacity:1"
     d="m 134.76491,144.00647 -0.0358,366.98286"
     id="path4694"
     inkscape:connector-curvature="0" />
  <path
     style="fill:#ff0000;stroke:#ff0000;stroke-width:0.95522386;stroke-opacity:1"
     d="m 140.14708,508.12599 c 3.63707,-2.21796 7.96932,-7.29849 9.65628,-11.32414 1.04132,-2.48493 1.28808,-16.61071 1.28808,-73.73467 0,-46.07687 0.33234,-70.86627 0.95523,-71.25124 0.62726,-0.38767 0.95522,-35.94466 0.95522,-103.56209 V 145.28213 l -5.87146,-0.61369 c -3.22931,-0.33753 -7.09797,-0.61369 -8.59702,-0.61369 h -2.72555 v 182.92537 c 0,100.60896 0.32239,182.92377 0.71642,182.9218 0.39403,-0.002 2.02429,-0.80114 3.6228,-1.77593 z"
     id="path4696"
     inkscape:connector-curvature="0" />
  <rect
     style="fill:#ff0000;stroke:#ff0000;stroke-opacity:1"
     id="rect4698"
     width="6.1496277"
     height="205.383"
     x="-155.34329"
     y="146.02985"
     transform="scale(-1,1)" />
  <rect
     style="fill:#ff0000;stroke:#ff0000;stroke-opacity:1"
     id="rect4700"
     width="1.7730446"
     height="365.1626"
     x="-136.86678"
     y="144.47333"
     transform="scale(-1,1)" />
  <path
     style="fill:#ff0000;stroke:#ff0000;stroke-width:0.08443066;stroke-opacity:1"
     d="m 135.90723,510.62678 c 0.60162,-0.20767 0.61735,-0.21989 0.42215,-0.32806 -0.11151,-0.0618 -0.40222,-0.11371 -0.64601,-0.11535 l -0.44326,-0.003 v 0.33772 c 0,0.18575 0.01,0.33472 0.0211,0.33106 0.0116,-0.004 0.30231,-0.10374 0.64601,-0.22238 z"
     id="path4702"
     inkscape:connector-curvature="0" />
  <path
     style="fill:#ff0000;stroke:#ff0000;stroke-width:0.23880596;stroke-opacity:1"
     d="m 151.45876,492.34673 c 0.34718,-1.89162 0.38117,-6.40828 0.33936,-45.08729 l -0.0465,-42.98507 -0.16411,40.59701 c -0.10319,25.52919 -0.26455,42.22821 -0.43473,44.99192 -0.14885,2.41719 -0.22772,4.43782 -0.17526,4.49027 0.0525,0.0525 0.269,-0.85062 0.48121,-2.00684 z"
     id="path4704"
     inkscape:connector-curvature="0" />
  <path
     style="fill:#ff0000;stroke:#ff0000;stroke-width:0.08443066;stroke-opacity:1"
     d="m 151.96077,395.68782 c 0.004,-17.66923 -0.022,-30.66311 -0.0574,-28.87529 -0.10578,5.34799 -0.24515,22.50215 -0.24539,30.20507 -2.1e-4,6.33434 0.0149,7.19771 0.12612,7.19771 0.11147,0 0.1289,1.38918 0.14805,11.79919 0.0119,6.48955 0.0248,-2.65746 0.0286,-20.32668 z"
     id="path4706"
     inkscape:connector-curvature="0" />
  <path
     style="fill:#ff0000;stroke:#000000;stroke-width:0.16886131;stroke-opacity:1"
     d="M 92.72811,127.85657 C 87.276624,127.48517 82.538974,126.6721 77.952744,125.32083 60.610587,120.2112 46.052153,107.77973 38.281553,91.445533 35.331677,85.244744 33.420351,78.639962 32.501685,71.472604 32.12636,68.54435 32.071376,60.175398 32.408494,57.288253 34.647965,38.108983 44.667757,21.509771 60.391167,10.930978 68.645542,5.3773907 77.805951,1.9513068 88.168854,0.54184859 91.200612,0.12949929 98.457112,0.03226558 101.84662,0.35857295 113.15621,1.4473447 123.61165,5.2935016 132.8138,11.750215 c 1.61181,1.130931 1.78885,1.301801 1.43532,1.385258 l -0.40328,0.0952 -0.0425,50.782769 -0.0425,50.782768 0.36633,0.13552 c 0.32431,0.11997 0.17902,0.26611 -1.26668,1.27406 -6.67866,4.6564 -13.88998,7.96189 -21.38453,9.80213 -5.07138,1.24525 -8.95134,1.74706 -14.273045,1.846 -1.950349,0.0362 -3.96402,0.0374 -4.474825,0.003 z"
     id="path5771"
     inkscape:connector-curvature="0" />
  <path
     style="fill:#000000;stroke:#000000;stroke-width:0.16886131;stroke-opacity:1"
     d="M 133.98743,64.029979 V 13.274426 l 0.5488,0.05178 c 0.39707,0.03747 0.99232,0.423824 2.15299,1.397442 5.60367,4.700611 10.04704,9.813259 13.80511,15.884514 1.25785,2.032089 3.24988,5.822219 3.24988,6.183383 0,0.159299 0.0795,0.316127 0.17662,0.348508 0.1853,0.06177 0.90413,1.718415 2.03821,4.697387 1.50001,3.940166 2.81375,9.307185 3.47205,14.184351 0.43925,3.254243 0.43775,12.962342 -0.002,16.041826 -0.80339,5.619941 -2.07583,10.60241 -3.85964,15.113088 -1.13453,2.868849 -1.52702,3.669618 -1.68024,3.428055 -0.0891,-0.14046 -0.14029,-0.0118 -0.14194,0.356739 -0.005,1.025954 -2.92664,6.181771 -5.79821,10.230701 -1.53818,2.16883 -1.56596,2.19641 -2.31323,2.29648 l -0.75637,0.10128 0.65073,0.0254 0.65072,0.0254 -0.53828,0.63323 c -0.29606,0.34827 -0.89001,1.05116 -1.31989,1.56196 -1.33234,1.58315 -5.60304,5.76331 -7.46323,7.305 -1.47333,1.22107 -1.79159,1.41945 -1.88782,1.17672 -0.0951,-0.23989 -0.11785,-0.2242 -0.1276,0.088 -0.009,0.28952 -0.11232,0.37993 -0.43402,0.37993 h -0.42216 z m 19.36721,-27.55067 c -0.0428,-0.164297 -0.0806,-0.07076 -0.0841,0.207863 -0.003,0.278621 0.0316,0.413045 0.0778,0.298721 0.0463,-0.114324 0.0491,-0.342287 0.006,-0.506584 z"
     id="path5773"
     inkscape:connector-curvature="0" />
  <path
     style="fill:#ff0000;stroke:#ff0000;stroke-width:0.23880596;stroke-opacity:1"
     d="M 88.188497,127.26638 C 73.822118,125.27694 61.144982,119.11052 51.225798,109.28697 41.265194,99.422385 35.159694,87.327319 32.881588,72.946865 32.306623,69.317425 32.298116,58.514784 32.867494,55.050504 35.223784,40.714086 41.284163,28.60189 50.9048,19.001374 59.106976,10.816352 69.22497,5.0545937 80.295451,2.264673 86.474183,0.70754327 88.401918,0.48626762 95.830288,0.48149983 c 6.408522,-0.004113 7.028202,0.0348172 10.611442,0.66664977 6.70316,1.1819673 12.04569,2.9329234 18.04462,5.9139293 4.43106,2.2018954 9.73529,5.6188071 9.33842,6.0156781 -0.40682,0.406819 -0.37164,101.821513 0.0354,101.962713 0.46919,0.16277 -5.33541,3.85098 -8.89552,5.65218 -6.19995,3.13679 -11.60311,4.94219 -18.38806,6.14416 -2.99605,0.53075 -4.29943,0.62443 -9.671645,0.69511 -4.517734,0.0594 -6.89195,-0.0129 -8.716418,-0.26554 z"
     id="path5775"
     inkscape:connector-curvature="0" />
  <path
     style="fill:#ff0000;stroke:#ff0000;stroke-width:0.23880596;stroke-opacity:1"
     d="m 89.263124,127.47943 c -1.98742,-0.21155 -6.553844,-1.0847 -9.313433,-1.78083 -8.097801,-2.04274 -17.129593,-6.58154 -24,-12.06087 -2.570909,-2.05036 -7.518733,-7.00241 -9.637858,-9.64609 C 38.767589,94.579959 33.573869,81.868188 32.554419,70.319999 31.808248,61.867467 32.533378,54.135548 34.817511,46.189114 38.863963,32.111617 47.854721,19.679656 60.009392,11.355071 67.573977,6.1741787 76.711394,2.5163458 86.039243,0.93496517 89.067764,0.42153033 99.361908,0.1930514 102.75566,0.5639437 113.0236,1.6860936 123.9135,5.7247478 132.17516,11.474525 l 1.74468,1.214227 -0.19198,18.009654 c -0.16853,15.810118 -0.0725,83.430674 0.11969,84.285494 0.0891,0.39641 -2.89166,2.4682 -6.46642,4.49447 -6.40625,3.63125 -13.34876,6.10351 -20.98239,7.47195 -2.33165,0.41798 -3.94009,0.51404 -9.493825,0.56701 -3.677612,0.0351 -7.116418,0.018 -7.641791,-0.0379 z"
     id="path5777"
     inkscape:connector-curvature="0" />
  <path
     style="fill:#ff0000;stroke:#ff0000;stroke-width:0.04221533;stroke-opacity:1"
     d="m 49.33529,107.76853 c -3.766772,-4.04417 -6.81037,-8.231231 -9.430592,-12.973609 -0.625488,-1.132079 -1.80766,-3.503 -2.303409,-4.619632 -2.567046,-5.782057 -4.180345,-11.470937 -5.040112,-17.772654 -0.184292,-1.350781 -0.219392,-1.730829 -0.159854,-1.730829 0.02475,0 0.05601,0.09973 0.06947,0.22163 0.402231,3.643796 1.017858,6.793194 1.986671,10.163341 1.956635,6.806413 4.734779,12.848171 8.570227,18.638069 2.070903,3.126184 3.531604,4.950174 6.279688,7.841494 0.524197,0.55152 0.614814,0.66489 0.531446,0.66489 -0.07311,0 -0.210347,-0.11793 -0.503531,-0.4327 z"
     id="path5779"
     inkscape:connector-curvature="0" />
  <path
     style="fill:#ff0000;stroke:#ff0000;stroke-width:0.04221533;stroke-opacity:1"
     d=""
     id="path5781"
     inkscape:connector-curvature="0" />
  <path
     style="fill:#ff0000;stroke:#ff0000;stroke-width:0.02985075;stroke-opacity:1"
     d=""
     id="path5785"
     inkscape:connector-curvature="0" />
  <path
     style="fill:#ff0000;stroke:#ff0000;stroke-width:0.02985075;stroke-opacity:1"
     d="m 87.852661,127.47286 c -9.315674,-1.19933 -18.112382,-4.36563 -26.014926,-9.36386 -2.92639,-1.85089 -5.809393,-4.02586 -8.41791,-6.35057 -1.353784,-1.20649 -3.689002,-3.49275 -3.589553,-3.51429 0.02873,-0.006 0.05224,-0.0331 0.05224,-0.0597 0,-0.0266 0.567537,0.51569 1.261194,1.20504 2.589576,2.57352 4.034499,3.8579 6.005966,5.33865 2.519773,1.89259 5.220131,3.62401 8.195527,5.25481 4.34145,2.37952 9.07658,4.32765 13.522388,5.56337 2.468866,0.68623 6.448806,1.4956 9.835821,2.00024 0.145137,0.0216 0.15646,0.0268 0.0597,0.0274 -0.06567,3.9e-4 -0.475373,-0.0451 -0.910447,-0.10113 z"
     id="path5787"
     inkscape:connector-curvature="0" />
  <path
     style="fill:#ff0000;stroke:#ff0000;stroke-width:0.02110766;stroke-opacity:1"
     d="m 38.921884,35.048668 c 0,-0.02138 0.529136,-1.025959 0.860495,-1.633679 3.389377,-6.216207 7.767743,-11.811903 12.976148,-16.583944 0.607397,-0.556508 0.586166,-0.539579 0.666658,-0.53156 0.06513,0.0065 0.0588,0.01394 -0.247427,0.291564 -1.416975,1.284618 -3.156933,3.025421 -4.462897,4.465066 -3.681198,4.058013 -6.906146,8.701303 -9.422262,13.566204 l -0.226524,0.437984 h -0.0721 c -0.03965,0 -0.0721,-0.0052 -0.0721,-0.01163 z"
     id="path5789"
     inkscape:connector-curvature="0" />
  <path
     style="fill:#ff0000;stroke:#000000;stroke-width:0.02985075;stroke-opacity:1"
     d="M 118.79396,4.3630973 C 113.70704,2.4208998 108.08138,1.0281269 103.07754,0.47210351 101.62608,0.31081748 100.76063,0.27728369 97.480528,0.2552326 93.91165,0.2312402 92.29838,0.27660458 89.316349,0.48480539 c -0.697762,0.0487166 -1.561725,0.11684006 -1.91992,0.15138549 -0.358195,0.0345454 -0.656947,0.0571258 -0.663894,0.0501786 -0.01456,-0.0145621 1.366336,-0.21092451 1.942023,-0.27615385 0.51906,-0.0588132 2.397054,-0.21271001 3.268656,-0.26785822 2.570764,-0.16265782 5.510058,-0.16264857 8.134326,2.561e-5 6.04725,0.37485855 12.12845,1.64367318 17.80597,3.71513308 1.3065,0.4766788 1.32658,0.4853585 1.33781,0.5782776 0.005,0.042994 -0.002,0.077562 -0.0149,0.076818 -0.0134,-7.433e-4 -0.199,-0.068025 -0.41243,-0.1495146 z"
     id="path5791"
     inkscape:connector-curvature="0" />
  <path
     style="fill:#ff0000;stroke:#000000;stroke-width:0.47761193;stroke-opacity:1"
     d="m 58.578903,511.12216 c -8.279011,-2.03284 -15.33378,-8.89435 -17.439812,-16.96207 -0.756863,-2.89937 -0.822665,-8.54453 -0.848061,-72.7552 L 40.2635,351.79295 h -9.451893 c -10.289055,0 -12.828548,-0.39501 -17.679554,-2.75003 -3.6265562,-1.76059 -8.1846138,-6.30185 -10.0631607,-10.02608 -3.11179319,-6.16916 -2.961986,-1.82347 -2.81564083,-81.67768 L 0.38606385,184.86758 1.6514851,180.33026 C 4.7234611,169.31534 10.826731,160.25158 19.681625,153.5543 l 3.149037,-2.38173 32.955224,0.26518 c 45.969394,0.36991 45.513124,0.36996 62.808364,-0.007 l 15.52478,-0.3382 -0.1655,179.7531 c -0.10469,113.69873 -0.33365,179.9286 -0.62307,180.2307 -0.73536,0.76758 -71.635077,0.81085 -74.751557,0.0456 z"
     id="path5793"
     inkscape:connector-curvature="0" />
  <path
     style="fill:#ff0000;stroke:#000000;stroke-width:0.47761193;stroke-opacity:1"
     d="M 133.87544,293.47992 V 151.1072 l -13.25373,0.27529 c -12.71503,0.26411 -13.09843,0.2463 -9.43284,-0.43817 5.51917,-1.03058 12.21639,-2.976 17.48757,-5.07981 2.52562,-1.00801 4.83607,-1.83275 5.13433,-1.83275 0.40345,0 0.54228,37.35459 0.54228,145.91044 0,80.25075 -0.10746,145.91045 -0.23881,145.91045 -0.13134,0 -0.2388,-64.06772 -0.2388,-142.37273 z"
     id="path5797"
     inkscape:connector-curvature="0" />
  <path
     style="fill:#000000;stroke:#000000;stroke-width:0.47761193;stroke-opacity:1"
     d="m 134.67568,303.18756 0.058,-159.28357 4.06263,-1e-5 c 6.167,-2e-5 15.85878,1.28261 19.87244,2.62995 15.63896,5.24983 27.18629,17.52088 31.62909,33.61143 l 1.26858,4.59443 0.13274,72.71054 c 0.14498,79.41332 0.25783,75.84203 -2.57322,81.42885 -1.61777,3.1925 -6.21193,7.97757 -9.24343,9.62752 -5.24961,2.85719 -6.93936,3.15846 -17.71495,3.15846 h -9.90912 l -0.32921,4.89553 c -0.18107,2.69253 -0.36295,27.62372 -0.40417,55.40265 l -0.075,50.50712 -8.41625,3.4e-4 -8.41625,3.3e-4 z"
     id="path5799"
     inkscape:connector-curvature="0" />
  <path
     style="fill:#ff0000;stroke:#ff0000;stroke-width:0.47761193;stroke-opacity:1"
     d="m 134.49492,486.88782 v -23.93907 h 8.30368 8.30368 l 0.35065,13.55938 c 0.19286,7.45766 0.23437,13.85169 0.0922,14.20896 -0.14213,0.35726 -0.30845,-0.3176 -0.3696,-1.49969 -0.0649,-1.2544 -0.24567,-0.26013 -0.43418,2.38806 -0.39577,5.55954 -1.5707,8.12477 -5.78452,12.62935 -2.96475,3.16933 -7.65165,6.31485 -8.56666,5.74935 -0.27737,-0.17142 -0.81727,-0.0519 -1.1998,0.26553 -0.60734,0.50406 -0.69549,-2.4569 -0.69549,-23.36187 z"
     id="path5801"
     inkscape:connector-curvature="0" />
  <path
     style="fill:#ff0000;stroke:#ff0000;stroke-width:0.47761193;stroke-opacity:1"
     d="m 31.184031,151.15748 -7.605809,-0.25728 2.352078,-1.26217 c 7.141462,-3.83222 13.704926,-5.1856 25.148672,-5.1856 h 8.623015 l 4.308375,1.70371 c 4.853561,1.91928 11.141608,3.67363 16.809328,4.68974 3.544029,0.63538 2.159685,0.68081 -19.104477,0.62694 -12.608956,-0.0319 -26.347987,-0.17384 -30.531182,-0.31534 z"
     id="path5803"
     inkscape:connector-curvature="0" />
  <path
     style="fill:#ff0000;stroke:#ff0000;stroke-width:0.05970149;stroke-opacity:1"
     d="m 0.00507149,201.13812 c 0.00233236,-4.91717 0.02961884,-9.61194 0.06063659,-10.43284 0.03101774,-0.82089 0.07209506,-2.48657 0.09128291,-3.70149 l 0.034887,-2.20896 0.85514951,-3.07462 c 0.982449,-3.53233 1.2600693,-4.4484 1.8002292,-5.9403 2.4552992,-6.78144 6.2390888,-12.7145 11.3544673,-17.80404 l 0.977013,-0.97208 h 0.349678 0.349678 l -1.15402,1.14925 c -0.634712,0.63209 -1.437205,1.46349 -1.783318,1.84756 -4.1879451,4.64716 -7.4161425,9.99923 -9.6436176,15.98826 -0.7345977,1.97512 -1.0206212,2.89619 -2.0675548,6.65801 l -0.63173688,2.26994 -3.874e-5,7.5211 c -2.132e-5,4.13661 -0.0178794,9.79797 -0.0396845,12.5808 l -0.0396459,5.05971 H 0.25965371 8.308063e-4 Z"
     id="path5805"
     inkscape:connector-curvature="0" />
  <path
     style="fill:#ff0000;stroke:#ff0000;stroke-width:0.16886131;stroke-opacity:1"
     d="m 0.12969023,329.01561 c -0.06191582,-0.0619 -0.11257422,-26.80955 -0.11257422,-59.43919 0,-52.5249 0.0289328,-59.32661 0.25236081,-59.32661 0.22347753,0 0.24763574,6.33429 0.21107666,55.3443 -0.0227063,30.43936 0.0218579,57.187 0.0990316,59.43919 0.11935451,3.48316 0.10463961,4.09488 -0.0985024,4.09488 -0.13134999,0 -0.28947658,-0.0507 -0.35139245,-0.11257 z"
     id="path5807"
     inkscape:connector-curvature="0" />
  <path
     style="fill:#ff0000;stroke:#ff0000;stroke-width:0.16886131;stroke-opacity:1"
     d="M 40.037249,367.55535 V 351.9469 l -9.58288,-0.0695 c -8.949471,-0.0649 -9.688913,-0.0929 -11.187062,-0.4226 -9.8298468,-2.16355 -17.1373823,-9.70367 -18.83413908,-19.4336 -0.35626066,-2.04295 -0.33362229,-2.72415 0.0905321,-2.72415 0.29058333,0 0.33772264,0.11258 0.33772264,0.80653 0,1.26599 0.31846684,3.55216 0.68208704,4.89648 0.3642558,1.34667 1.7967853,4.3006 2.8196008,5.81412 2.3341552,3.45399 6.1968675,6.86044 9.4787815,8.35916 4.656636,2.12649 6.890481,2.41341 18.789981,2.41341 h 7.743099 v 15.78853 c 0,10.41312 -0.05749,15.78854 -0.168861,15.78854 -0.111356,0 -0.168862,-5.3154 -0.168862,-15.60846 z"
     id="path5809"
     inkscape:connector-curvature="0" />
  <path
     style="fill:#ff0000;stroke:#ff0000;stroke-width:0.16886131;stroke-opacity:1"
     d="m 40.037249,420.3133 c 0,-20.43222 0.06344,-37.14949 0.140972,-37.14949 0.16883,0 0.36541,29.99106 0.365528,55.76645 7.4e-5,16.36082 -0.0296,18.53253 -0.253208,18.53253 -0.224381,0 -0.253292,-4.2403 -0.253292,-37.14949 z"
     id="path5811"
     inkscape:connector-curvature="0" />
  <path
     style="fill:#ff0000;stroke:#ff0000;stroke-width:0.16886131;stroke-opacity:1"
     d="m 40.607691,479.75248 c 0,-1.06805 0.02742,-1.50498 0.06093,-0.97095 0.03351,0.53402 0.03351,1.40788 0,1.9419 -0.03351,0.53403 -0.06093,0.0971 -0.06093,-0.97095 z"
     id="path5813"
     inkscape:connector-curvature="0" />
  <path
     style="fill:#ff0000;stroke:#ff0000;stroke-width:0.11940298;stroke-opacity:1"
     d="m 40.550653,469.31059 c 0,-1.93731 0.01642,-2.72985 0.03649,-1.7612 0.02007,0.96866 0.02007,2.55374 0,3.52239 -0.02007,0.96866 -0.03649,0.17612 -0.03649,-1.76119 z"
     id="path5815"
     inkscape:connector-curvature="0" />
  <path
     style="fill:#ff0000;stroke:#ff0000;stroke-width:0.05970149;stroke-opacity:1"
     d="m 42.331259,498.25186 c -1.086372,-2.30316 -1.718718,-4.46667 -2.125447,-7.27199 l -0.129993,-0.89661 -0.0096,-16.68656 c -0.0053,-9.17762 0.0099,-16.51725 0.03373,-16.31029 0.04876,0.42322 0.125435,0.54959 0.263788,0.43476 0.04867,-0.0404 0.09763,-0.13194 0.108784,-0.20344 0.02695,-0.1727 0.106146,5.7922 0.106224,8.00082 3.9e-5,1.09749 -0.02204,1.7564 -0.05964,1.77964 -0.07557,0.0467 -0.08203,4.3403 -0.0067,4.42089 0.08214,0.0878 0.152958,6.92857 0.07224,6.97846 -0.09409,0.0582 -0.09058,2.43237 0.0037,2.52668 0.04926,0.0493 0.08315,0.88613 0.117122,2.89254 0.07849,4.63532 0.191876,7.20099 0.387292,8.76352 0.202685,1.62065 0.90158,3.73381 1.87926,5.68206 l 0.294367,0.58659 H 42.96325 42.660058 Z"
     id="path5817"
     inkscape:connector-curvature="0" />
  <path
     style="fill:#ff0000;stroke:#ff0000;stroke-width:0.11940298;stroke-opacity:1"
     d=""
     id="path5819"
     inkscape:connector-curvature="0" />
  <path
     style="fill:#ff0000;stroke:#ff0000;stroke-width:0.11940298;stroke-opacity:1"
     d="m 15.684502,156.60661 c 0.557929,-0.60164 3.053661,-2.62864 4.967517,-4.03457 l 1.931778,-1.41909 0.993595,0.0311 c 0.546478,0.0171 1.987625,0.0708 3.202551,0.1193 l 2.208955,0.0882 -3.066213,0.006 -3.066213,0.006 -2.127817,1.60983 c -1.170299,0.8854 -2.731237,2.12621 -3.468751,2.75735 -0.811308,0.69429 -1.444404,1.14753 -1.602903,1.14753 h -0.261969 z"
     id="path5821"
     inkscape:connector-curvature="0" />
  <rect
     style="fill:#ff0000;stroke:#ff0000;stroke-opacity:1"
     id="rect5827"
     width="22.305094"
     height="8.2230778"
     x="110.94865"
     y="151.35901" />
  <path
     style="fill:#ff0000;stroke:#ff0000;stroke-width:0.04221533;stroke-opacity:1"
     d="m 82.879742,151.87271 c -2.704947,-0.0206 -6.760785,-0.0534 -9.012973,-0.0729 l -4.094887,-0.0354 3.16615,-0.008 c 3.843976,-0.01 7.832093,-0.0713 8.597088,-0.13259 0.620917,-0.0498 0.843334,-0.0956 0.941677,-0.19393 0.0774,-0.0774 0.08637,-0.31667 0.01456,-0.38847 -0.0709,-0.0709 -0.07271,-0.0711 1.106042,0.0957 2.569051,0.36346 1.248757,0.32812 12.453522,0.33334 l 9.941719,0.005 1.18202,-0.15824 c 1.12926,-0.15117 3.02999,-0.43451 3.20837,-0.47827 0.0814,-0.02 0.084,-0.003 0.0715,0.48343 l -0.013,0.50414 -1.14796,0.0255 c -2.00704,0.0446 -21.301295,0.0601 -26.413832,0.0211 z"
     id="path5829"
     inkscape:connector-curvature="0" />
  <rect
     style="fill:#ff0000;stroke:#ff0000;stroke-opacity:1"
     id="rect5833"
     width="0.00056666788"
     height="0.45222208"
     x="133.10437"
     y="144.48547" />
  <path
     style="fill:#ff0000;stroke:#ff0000;stroke-width:0.02110766;stroke-opacity:1"
     d="m 110.47026,150.83971 c -0.007,-0.0116 -0.008,-0.0211 -10e-4,-0.0211 0.007,0 0.31341,-0.0526 0.68197,-0.11693 3.77566,-0.65881 9.11447,-2.08303 13.56476,-3.61862 1.49455,-0.51571 2.46868,-0.8761 4.02314,-1.48843 0.55143,-0.21723 1.26382,-0.49393 1.58307,-0.61491 0.98357,-0.3727 1.17495,-0.45031 1.71997,-0.69749 0.29006,-0.13155 0.53465,-0.23918 0.54353,-0.23918 0.009,0 0.0161,0.13182 0.0161,0.29293 v 0.29293 l -0.12137,0.0441 c -0.0667,0.0242 -0.38539,0.13975 -0.70809,0.25667 -0.7599,0.27533 -1.77518,0.66274 -2.95098,1.12604 -0.5178,0.20403 -1.24443,0.48446 -1.61473,0.62318 -4.31804,1.6176 -9.45066,3.11991 -13.96634,4.08793 l -0.43849,0.094 h -1.15917 c -0.75001,0 -1.16378,-0.007 -1.17222,-0.0211 z"
     id="path5835"
     inkscape:connector-curvature="0" />
  <path
     style="fill:#000000;stroke:#000000;stroke-width:0.02110766;stroke-opacity:1"
     d="m 134.39617,159.86852 c -0.008,-0.10739 -0.02,-2.1828 -0.0277,-4.61203 -0.008,-2.42923 -0.0219,-4.41678 -0.0316,-4.41678 -0.01,0 -0.0177,-1.534 -0.0177,-3.40888 v -3.40889 h 0.0844 0.0844 v 8.02091 c 0,7.79315 -10e-4,8.02091 -0.0391,8.02091 -0.0343,0 -0.0408,-0.0242 -0.0528,-0.19524 z"
     id="path6382"
     inkscape:connector-curvature="0" />
  <path
     style="fill:#000000;stroke:#000000;stroke-width:0.02110766;stroke-opacity:1"
     d="m 134.45189,170.61734 c 8e-5,-1.68245 -0.0338,-8.06063 -0.0512,-9.63746 -0.008,-0.76561 -0.005,-0.93169 0.0171,-0.91309 0.0151,0.0125 0.0336,0.0165 0.0413,0.009 0.008,-0.008 0.0139,2.7185 0.0139,6.05808 0,3.33959 -0.005,6.07197 -0.0105,6.07197 -0.006,0 -0.0105,-0.71476 -0.0105,-1.58835 z"
     id="path6384"
     inkscape:connector-curvature="0" />
  <path
     style="fill:#000000;stroke:#000000;stroke-width:0.02110766;stroke-opacity:1"
     d="m 133.64972,166.14779 v -6.0579 h 0.0528 0.0528 v -3.32445 -3.32446 h 6.58559 6.58559 v 9.38236 9.38235 h -6.21621 -6.2162 v -6.39914 c 0,-3.51952 -0.005,-6.39415 -0.0111,-6.38806 -0.006,0.006 -0.0107,2.75333 -0.0103,6.10496 4.2e-4,3.35163 -0.006,6.22626 -0.0133,6.38806 l -0.014,0.29418 h -0.39779 -0.3978 z m 0.79678,3.08561 c -0.003,-0.21691 -0.006,-0.0334 -0.006,0.40771 1e-5,0.44115 0.003,0.61862 0.006,0.39438 0.003,-0.22424 0.003,-0.58518 -10e-6,-0.80209 z m -0.0211,-4.28347 c -0.003,-0.31054 -0.006,-0.0565 -0.006,0.56463 0,0.6211 0.003,0.87518 0.006,0.56463 0.003,-0.31054 0.003,-0.81871 0,-1.12926 z m -0.0211,-3.08034 c -0.003,-0.21843 -0.006,-0.0457 -0.006,0.38384 -1e-5,0.42954 0.003,0.60826 0.006,0.39715 0.003,-0.21111 0.003,-0.56255 2e-5,-0.78099 z m 0.009,-1.83536 c -0.004,-0.11624 -0.0251,-0.11385 -0.0251,0.003 0,0.0561 0.006,0.0957 0.014,0.0881 0.008,-0.008 0.0127,-0.0486 0.0111,-0.0909 z m -0.0304,-1.09074 c -0.004,-0.17632 -0.006,-0.0261 -0.006,0.33376 1e-5,0.35988 0.003,0.50414 0.006,0.32057 0.004,-0.18357 0.004,-0.47802 -2e-5,-0.65433 z m -0.0211,-4.15846 c -0.003,-0.43158 -0.006,-0.0723 -0.006,0.79838 0,0.87069 0.003,1.2238 0.006,0.7847 0.003,-0.43911 0.003,-1.15149 -10e-6,-1.58308 z"
     id="path6386"
     inkscape:connector-curvature="0" />
  <path
     style="fill:#000000;stroke:#000000;stroke-width:0.01055383;stroke-opacity:1"
     d="m 133.64558,175.98839 c 0,-1.06418 -0.003,-3.17521 -0.007,-4.69118 l -0.007,-2.7563 h 3.61116 3.61116 v 4.69118 4.69118 h -3.18198 -3.18198 l -0.002,-4.4933 c -0.002,-3.49976 -0.004,-4.13742 -0.009,-2.88383 -0.004,0.93626 -0.0116,1.6227 -0.0173,1.64112 -0.006,0.0194 -0.007,0.70227 -0.002,1.75721 0.004,0.94905 0.008,2.23253 0.009,2.85217 l 8.8e-4,1.12663 h -0.4116 -0.4116 z"
     id="path6388"
     inkscape:connector-curvature="0" />
  <path
     style="fill:#000000;stroke:#000000;stroke-width:0.01055383;stroke-opacity:1"
     d="m 134.4626,172.46693 c 0,-0.10738 0.002,-0.15131 0.003,-0.0976 0.002,0.0537 0.002,0.14155 0,0.19525 -0.002,0.0537 -0.003,0.01 -0.003,-0.0976 z"
     id="path6390"
     inkscape:connector-curvature="0" />
  <path
     style="fill:#000000;stroke:#000000;stroke-width:0.01055383;stroke-opacity:1"
     d="m 134.47391,174.05529 c 0,-0.81265 0.001,-1.14354 0.003,-0.73531 0.002,0.40823 0.002,1.07312 0,1.47754 -0.002,0.40442 -0.003,0.0704 -0.003,-0.74223 z"
     id="path6392"
     inkscape:connector-curvature="0" />
  <path
     style="fill:#000000;stroke:#000000;stroke-width:0.01055383;stroke-opacity:1"
     d="m 134.4734,172.8627 c -1e-5,-0.15672 0.001,-0.22231 0.003,-0.14574 0.002,0.0766 0.002,0.20479 10e-6,0.28495 -0.002,0.0802 -0.003,0.0175 -0.003,-0.13921 z"
     id="path6394"
     inkscape:connector-curvature="0" />
  <path
     style="fill:#000000;stroke:#000000;stroke-width:0.01055383;stroke-opacity:1"
     d="m 133.63502,173.23209 v -4.69118 h 3.60941 3.60941 v 4.69118 4.69118 h -3.18198 -3.18198 v -1.47754 c 0,-1.05993 -0.003,-1.47754 -0.0115,-1.47754 -0.008,0 -0.0105,0.41541 -0.008,1.47754 l 0.004,1.47754 h -0.41951 -0.41952 z m 0.83626,-0.21636 c 0.003,-0.64141 0.002,-1.07121 -0.002,-0.95512 -0.008,0.24657 -0.0152,2.13439 -0.008,2.1266 0.003,-0.003 0.007,-0.53007 0.01,-1.17148 z"
     id="path6396"
     inkscape:connector-curvature="0" />
  <path
     style="fill:#ff0000;stroke:#ff0000;stroke-width:0.95522386;stroke-opacity:1"
     d="m 134.05161,486.53813 v -23.8806 h 8.59701 8.59702 l 0.0796,8.35821 c 0.0438,4.59702 0.18497,9.29959 0.31375,10.45016 0.55582,4.96581 -1.41158,15.04174 -3.69922,18.9453 -2.5906,4.42053 -9.38258,10.00753 -12.1659,10.00753 -1.61361,0 -1.72226,-1.50658 -1.72226,-23.8806 z"
     id="path6398"
     inkscape:connector-curvature="0" />
  <rect
     style="fill:#ff0000;stroke:#ff0000;stroke-opacity:1"
     id="rect6400"
     width="54.795502"
     height="6.5855675"
     x="24.653753"
     y="151.22778"
     ry="0.33772263" />
  <path
     style="fill:#ff0000;stroke:#ff0000;stroke-width:0.01492537;stroke-opacity:1"
     d="m 36.560192,145.40238 c 0,-0.0263 -0.0059,-0.0247 0.567033,-0.15727 2.644469,-0.61202 5.376084,-1.00356 8.067295,-1.15634 1.371066,-0.0778 1.767166,-0.0821 7.615672,-0.0823 l 5.376866,-1.8e-4 v 0.0949 0.095 l -4.44403,0.009 c -4.669548,0.009 -5.519352,0.0193 -7.197761,0.0856 -0.660404,0.0261 -1.759367,0.0827 -2.156717,0.11102 -0.05746,0.004 -0.201866,0.0143 -0.320895,0.0225 -2.669713,0.1862 -5.077395,0.50072 -7.195756,0.93998 -0.159125,0.033 -0.294356,0.06 -0.300513,0.06 -0.0062,2e-5 -0.01119,-0.01 -0.01119,-0.0218 z"
     id="path6402"
     inkscape:connector-curvature="0" />
  <path
     style="fill:#ff0000;stroke:#ff0000;stroke-width:0.04221533;stroke-opacity:1"
     d="m 58.215803,144.11737 c 0,-0.0806 0.02755,-0.0844 0.601568,-0.0827 0.511067,0.002 0.623797,0.0139 0.749323,0.0827 l 0.147753,0.0809 -0.749322,0.002 c -0.721768,0.002 -0.749322,-10e-4 -0.749322,-0.0827 z"
     id="path6404"
     inkscape:connector-curvature="0" />
  <path
     style="fill:#000000;stroke:#000000;stroke-width:0.08443066;stroke-opacity:1"
     d="m 134.24834,510.19601 c -0.022,-0.42955 -0.10043,-1.12293 -0.17436,-1.54086 -0.38689,-2.1871 -0.47011,-7.31719 -0.47422,-29.23412 l -0.003,-17.24496 h 0.33733 0.33734 l 0.0219,-8.92854 0.0219,-8.92855 0.0207,8.92776 0.0207,8.92776 8.69637,0.0219 8.69636,0.0219 -1e-5,-8.92854 c 0,-5.89608 0.0287,-8.92854 0.0844,-8.92854 0.056,0 0.0845,5.77659 0.0846,17.16053 1.7e-4,12.79706 0.027,17.56843 0.10554,18.76471 0.13005,1.98036 0.12141,5.11877 -0.0172,6.24787 -0.057,0.46437 -0.1364,1.58519 -0.17642,2.49071 -0.04,0.90552 -0.11254,1.98834 -0.16115,2.40627 -0.16253,1.39734 -0.5266,2.99729 -0.68203,2.99729 -0.0451,0 -0.0821,-0.2153 -0.0821,-0.47844 0,-0.26314 -0.0202,-0.45819 -0.045,-0.43345 -0.0247,0.0248 -0.1026,0.5155 -0.17301,1.09056 -0.16227,1.32533 -0.30854,1.95872 -0.62296,2.69758 -0.34357,0.80739 -1.76818,3.41082 -2.2877,4.18072 -1.75044,2.59404 -4.74117,5.50358 -7.7246,7.51489 -1.8527,1.24902 -3.19275,1.81576 -4.32315,1.82837 -0.33667,0.004 -0.61212,0.0386 -0.61212,0.0775 0,0.0389 -0.1863,0.0707 -0.414,0.0707 h -0.41401 z"
     id="path6406"
     inkscape:connector-curvature="0" />
</svg>
