<?xml version="1.0" encoding="UTF-8" standalone="no"?>
<svg
   xmlns:dc="http://purl.org/dc/elements/1.1/"
   xmlns:cc="http://creativecommons.org/ns#"
   xmlns:rdf="http://www.w3.org/1999/02/22-rdf-syntax-ns#"
   xmlns:svg="http://www.w3.org/2000/svg"
   xmlns="http://www.w3.org/2000/svg"
   xmlns:sodipodi="http://sodipodi.sourceforge.net/DTD/sodipodi-0.dtd"
   xmlns:inkscape="http://www.inkscape.org/namespaces/inkscape"
   aria-hidden="true"
   focusable="false"
   data-prefix="fas"
   data-icon="male"
   class="svg-inline--fa fa-male fa-w-6"
   role="img"
   viewBox="0 0 192 512"
   version="1.1"
   id="svg3725"
   sodipodi:docname="male-solid_810.svg"
   inkscape:version="0.92.5 (2060ec1f9f, 2020-04-08)">
  <metadata
     id="metadata3731">
    <rdf:RDF>
      <cc:Work
         rdf:about="">
        <dc:format>image/svg+xml</dc:format>
        <dc:type
           rdf:resource="http://purl.org/dc/dcmitype/StillImage" />
        <dc:title></dc:title>
      </cc:Work>
    </rdf:RDF>
  </metadata>
  <defs
     id="defs3729" />
  <sodipodi:namedview
     pagecolor="#ffffff"
     bordercolor="#666666"
     borderopacity="1"
     objecttolerance="10"
     gridtolerance="10"
     guidetolerance="10"
     inkscape:pageopacity="0"
     inkscape:pageshadow="2"
     inkscape:window-width="1366"
     inkscape:window-height="705"
     id="namedview3727"
     showgrid="false"
     inkscape:zoom="1.046875"
     inkscape:cx="328.3188"
     inkscape:cy="366.45165"
     inkscape:window-x="-8"
     inkscape:window-y="-8"
     inkscape:window-maximized="1"
     inkscape:current-layer="svg3725" />
  <path
     d="M 96,0 C 60.654,0 32,28.654 32,64 c 0,35.346 28.654,64 64,64 35.346,0 64,-28.654 64,-64 C 160,28.654 131.346,0 96,0 M 48,144 h 11.36 c 22.711,10.443 49.59,10.894 73.28,0 H 144 c 26.51,0 48,21.49 48,48 v 136 c 0,13.255 -10.745,24 -24,24 h -16 v 136 c 0,13.255 -10.745,24 -24,24 H 64 C 50.745,512 40,501.255 40,488 V 352 H 24 C 10.745,352 0,341.255 0,328 V 192 c 0,-26.51 21.49,-48 48,-48 z"
     id="path3723"
     inkscape:connector-curvature="0"
     style="fill:currentColor" />
  <rect
     style="fill:#ff0000"
     id="rect3733"
     width="1.0144672"
     height="198.15918"
     x="-172.74982"
     y="153.42297"
     rx="0"
     ry="0"
     transform="scale(-1,1)" />
  <path
     style="fill:#ff0000;stroke-width:0.08443066"
     d="m 191.92421,199.93823 c -0.0332,-12.19666 -0.0208,-11.81879 -0.49265,-15.04976 -1.00395,-6.87456 -3.66675,-13.7394 -7.60896,-19.61633 -0.8317,-1.23986 -2.43583,-3.34502 -3.45251,-4.53084 -1.07169,-1.24999 -3.77975,-3.97077 -4.97138,-4.99474 -0.88468,-0.7602 -2.51068,-2.05522 -2.5805,-2.05522 -0.0203,0 -0.0368,12.95588 -0.0368,28.79085 v 28.79086 h 9.58684 9.58685 z"
     id="path3735"
     inkscape:connector-curvature="0" />
  <path
     style="fill:#ff0000;stroke-width:0.08443066"
     d="m 191.94712,238.29086 v -27.01781 h -9.58288 -9.58288 v 27.01781 27.01781 h 9.58288 9.58288 z"
     id="path3737"
     inkscape:connector-curvature="0" />
  <path
     style="fill:#ff0000;stroke-width:0.08443066"
     d="m 191.94712,282.1948 v -16.88613 h -9.58288 -9.58288 v 16.88613 16.88614 h 9.58288 9.58288 z"
     id="path3739"
     inkscape:connector-curvature="0" />
  <path
     style="fill:#ff0000;stroke-width:0.08443066"
     d="m 191.94712,312.58984 v -13.5089 h -9.58288 -9.58288 v 13.5089 13.50891 h 9.58288 9.58288 z"
     id="path3741"
     inkscape:connector-curvature="0" />
  <path
     style="fill:#ff0000;stroke-width:0.08443066"
     d="m 173.79453,351.25101 c 1.26909,-0.3265 2.7657,-0.83833 3.83076,-1.31008 6.73632,-2.98377 11.76602,-8.89828 13.56567,-15.9521 0.51839,-2.03187 0.6804,-3.30536 0.73255,-5.75821 l 0.0453,-2.13187 h -9.59374 -9.59374 v 12.70681 c 0,6.98875 0.01,12.70421 0.0211,12.70103 0.0116,-0.003 0.45803,-0.1182 0.99206,-0.25558 z"
     id="path3743"
     inkscape:connector-curvature="0" />
  <rect
     style="fill:#ff0000"
     id="rect3755"
     width="5.1343284"
     height="6.029851"
     x="-177.67165"
     y="209.49254"
     transform="scale(-1,1)" />
  <rect
     style="fill:#ff0000"
     id="rect3757"
     width="15.701492"
     height="3.522388"
     x="-191.94029"
     y="210.14925"
     transform="scale(-1,1)" />
  <rect
     style="fill:#ff0000"
     id="rect3759"
     width="0.89552242"
     height="7.1641793"
     x="-173.25372"
     y="154.08955"
     transform="scale(-1,1)" />
  <rect
     style="fill:#ff0000"
     id="rect3761"
     width="0.65671641"
     height="0.77611941"
     x="-173.61194"
     y="154.98508"
     transform="scale(-1,1)" />
  <rect
     style="fill:#ff0000"
     id="rect3763"
     width="0.59701538"
     height="0.89552307"
     x="-172.95523"
     y="154.08955"
     transform="scale(-1,1)" />
  <rect
     style="fill:#ff0000"
     id="rect3765"
     width="1.6716418"
     height="27.343283"
     x="-174.02985"
     y="160.47762"
     transform="scale(-1,1)" />
  <rect
     style="fill:#ff0000"
     id="rect3767"
     width="3.3432834"
     height="22.865673"
     x="-175.8806"
     y="186.62686"
     transform="scale(-1,1)" />
  <rect
     style="fill:#ff0000"
     id="rect3769"
     width="2.6268656"
     height="24.179104"
     x="-174.86568"
     y="215.10448"
     transform="scale(-1,1)" />
  <rect
     style="fill:#ff0000"
     id="rect3771"
     width="3.3432837"
     height="30.626865"
     x="-175.70149"
     y="238.74626"
     transform="scale(-1,1)" />
  <rect
     style="fill:#ff0000"
     id="rect3773"
     width="17.731344"
     height="2.3880596"
     x="-191.94029"
     y="263.88058"
     transform="scale(-1,1)" />
  <rect
     style="fill:#ff0000"
     id="rect3775"
     width="1.4925373"
     height="24.238806"
     x="-173.79105"
     y="268.83582"
     transform="scale(-1,1)" />
  <rect
     style="fill:#ff0000"
     id="rect3777"
     width="3.4626865"
     height="25.492537"
     x="-175.7612"
     y="292.11942"
     transform="scale(-1,1)" />
  <rect
     style="fill:#ff0000"
     id="rect3779"
     width="17.97015"
     height="2.5671642"
     x="-191.82089"
     y="297.67163"
     transform="scale(-1,1)" />
  <rect
     style="fill:#ff0000"
     id="rect3781"
     width="2.5671642"
     height="28.716417"
     x="-174.98508"
     y="316.17911"
     transform="scale(-1,1)" />
  <rect
     style="fill:#ff0000"
     id="rect3783"
     width="18.268658"
     height="1.4925373"
     x="-191.94029"
     y="325.43283"
     transform="scale(-1,1)" />
  <rect
     style="fill:#ff0000"
     id="rect3785"
     width="1.0746269"
     height="6.8059702"
     x="-172.80997"
     y="344.77618"
     transform="scale(-1,1)" />
  <rect
     style="fill:#ff0000"
     id="rect3795"
     width="0.74226987"
     height="4.5970793"
     x="-172.47762"
     y="346.98508"
     transform="scale(-1,1)" />
  <rect
     style="fill:#ff0000"
     id="rect3797"
     width="0.33235741"
     height="6.8059692"
     x="-172.80997"
     y="344.77618"
     transform="scale(-1,1)" />
  <rect
     style="fill:#ff0000"
     id="rect3799"
     width="2.5671642"
     height="5.2537313"
     x="-174.92537"
     y="345.49252"
     transform="scale(-1,1)" />
  <path
     style="fill:none;stroke:#ff0000;stroke-width:0.38344064px;stroke-linecap:butt;stroke-linejoin:miter;stroke-opacity:1"
     d="m 153.58718,36.268521 -0.006,55.527002"
     id="path4614"
     inkscape:connector-curvature="0" />
  <path
     style="fill:#ff0000;stroke:#ff0000;stroke-width:0.04221533;stroke-opacity:1"
     d="m 159.04169,75.002082 c 0.013,-0.08707 0.091,-0.585737 0.17343,-1.108152 0.51948,-3.293472 0.74716,-6.310106 0.74716,-9.899495 0,-1.949289 -0.0377,-3.099025 -0.15446,-4.707009 -0.50153,-6.908193 -2.13367,-13.717544 -4.81143,-20.07339 -0.2152,-0.510805 -0.45861,-1.075963 -0.54089,-1.255906 l -0.14962,-0.327169 h -0.25569 -0.2557 V 56.395675 75.16039 h 2.6118 2.61179 z"
     id="path4616"
     inkscape:connector-curvature="0" />
  <path
     style="fill:#ff0000;stroke:#ff0000;stroke-width:0.04221533;stroke-opacity:1"
     d="m 154.15262,90.706185 c 1.75178,-3.786077 3.21308,-8.052201 4.16094,-12.147461 0.21618,-0.933983 0.67342,-3.168192 0.67342,-3.290499 0,-0.05864 -0.27622,-0.06562 -2.59624,-0.06562 h -2.59625 v 8.105344 c 0,4.457938 0.007,8.105343 0.0155,8.105343 0.008,0 0.16271,-0.318198 0.34265,-0.707107 z"
     id="path4618"
     inkscape:connector-curvature="0" />
  <rect
     style="fill:#ff0000;stroke:#ff0000;stroke-opacity:1"
     id="rect4642"
     width="4.4537163"
     height="0.21108246"
     x="-158.48102"
     y="74.775826"
     transform="scale(-1,1)" />
  <path
     style="fill:none;stroke:#fb0000;stroke-width:0.99971169px;stroke-linecap:butt;stroke-linejoin:miter;stroke-opacity:1"
     d="M 153.76119,145.01492 V 352"
     id="path4644"
     inkscape:connector-curvature="0" />
  <path
     style="fill:#ff0000;stroke:#fb0000;stroke-width:0.05970149;stroke-opacity:1"
     d="m 171.71598,163.77865 v -10.35821 h 0.39727 0.39727 l -0.50174,-0.36486 c -2.85515,-2.07617 -6.32306,-4.00454 -9.75548,-5.42464 -2.06316,-0.85359 -4.84224,-1.76568 -6.71642,-2.20433 -0.27911,-0.0653 -0.67537,-0.15821 -0.8806,-0.20643 l -0.37313,-0.0877 v 14.50217 14.50217 h 8.71642 8.71641 z"
     id="path4646"
     inkscape:connector-curvature="0" />
  <path
     style="fill:#ff0000;stroke:#fb0000;stroke-width:0.05970149;stroke-opacity:1"
     d="m 171.71598,186.10701 v -11.91045 h -8.71642 -8.71641 v 11.91045 11.91044 h 8.71641 8.71642 z"
     id="path4648"
     inkscape:connector-curvature="0" />
  <path
     style="fill:#ff0000;stroke:#fb0000;stroke-width:0.05970149;stroke-opacity:1"
     d="m 171.71598,217.15178 v -19.07463 h -8.71642 -8.71641 v 19.07463 19.07463 h 8.71641 8.71642 z"
     id="path4650"
     inkscape:connector-curvature="0" />
  <path
     style="fill:#ff0000;stroke:#fb0000;stroke-width:0.05970149;stroke-opacity:1"
     d="m 171.71598,248.19656 v -11.91045 h -8.71642 -8.71641 v 11.91045 11.91045 h 8.71641 8.71642 z"
     id="path4652"
     inkscape:connector-curvature="0" />
  <path
     style="fill:#ff0000;stroke:#fb0000;stroke-width:0.05970149;stroke-opacity:1"
     d="m 171.71598,274.46521 v -14.2985 h -8.71642 -8.71641 v 14.2985 14.29851 h 8.71641 8.71642 z"
     id="path4654"
     inkscape:connector-curvature="0" />
  <path
     style="fill:#ff0000;stroke:#fb0000;stroke-width:0.05970149;stroke-opacity:1"
     d="m 171.71598,305.50999 v -16.68657 h -8.71642 -8.71641 v 16.68657 16.68657 h 8.71641 8.71642 z"
     id="path4656"
     inkscape:connector-curvature="0" />
  <path
     style="fill:#ff0000;stroke:#fb0000;stroke-width:0.05970149;stroke-opacity:1"
     d="m 169.50703,351.92285 c 0.75738,-0.0479 2.27791,-0.2239 2.32338,-0.26886 0.0137,-0.0135 -0.006,-0.0246 -0.0448,-0.0246 -0.0529,0 -0.0696,-3.5366 -0.0696,-14.68656 v -14.68657 h -8.71642 -8.71642 v 14.86567 14.86567 l 7.23881,-0.009 c 3.98134,-0.005 7.57463,-0.03 7.98508,-0.056 z"
     id="path4658"
     inkscape:connector-curvature="0" />
  <rect
     style="fill:#ff0000;stroke:#fb0000;stroke-opacity:1"
     id="rect4660"
     width="19.522388"
     height="22.447754"
     x="-173.61194"
     y="155.7612"
     transform="scale(-1,1)" />
  <rect
     style="fill:#ff0000;stroke:#fb0000;stroke-opacity:1"
     id="rect4666"
     width="1.0746269"
     height="11.283582"
     x="-155.34329"
     y="146.02985"
     transform="scale(-1,1)" />
  <rect
     style="fill:#ff0000;stroke:#fb0000;stroke-opacity:1"
     id="rect4668"
     width="18.865665"
     height="170.98506"
     x="-172.83582"
     y="177.85074"
     transform="scale(-1,1)" />
  <rect
     style="fill:#ff0000;stroke:#fb0000;stroke-opacity:1"
     id="rect4670"
     width="5.8507419"
     height="2.5074677"
     x="-159.82089"
     y="348.83582"
     transform="scale(-1,1)" />
  <path
     style="fill:#ff0000;stroke:#fb0000;stroke-width:0.02110766;stroke-opacity:1"
     d="m 154.26162,37.504111 c -0.0518,-0.119231 -0.27164,-0.593593 -0.37904,-0.817922 l -0.0859,-0.179415 -5.8e-4,0.543522 -5.8e-4,0.543523 h 0.25254 0.25254 z"
     id="path4672"
     inkscape:connector-curvature="0" />
  <path
     style="fill:#ff0000;stroke:#000000;stroke-width:0.33772263;stroke-opacity:1"
     d="M 89.194477,127.4727 C 74.64701,125.83713 61.236739,119.38714 50.907032,109.05743 25.872456,84.022851 25.977267,43.685181 51.141844,18.68779 70.33693,-0.37976885 99.386379,-5.2111521 123.81105,6.6017517 135.48974,12.250111 145.03403,21.224769 151.63171,32.762013 l 1.73007,3.025331 v 28.22674 28.226744 l -1.80495,3.152999 c -5.45949,9.536983 -13.52743,17.776113 -23.01766,23.506053 -11.29585,6.82013 -26.1488,10.05644 -39.344693,8.57282 z"
     id="path6506"
     inkscape:connector-curvature="0" />
  <path
     style="fill:#000000;stroke:#000000;stroke-width:0.16886131;stroke-opacity:1"
     d="m 153.61854,63.959797 c 0.001,-25.691899 0.008,-26.344897 0.0876,-8.696358 l 0.0862,19.08133 0.0837,-18.725519 0.0837,-18.72552 0.87429,2.092679 c 2.50076,5.98577 4.11638,12.312992 4.80302,18.80995 0.31291,2.960791 0.26351,10.083878 -0.0907,13.083568 -0.80827,6.844238 -2.24737,12.304674 -4.87231,18.487204 l -0.71427,1.682316 -0.0829,-7.845754 -0.0828,-7.845757 -0.0885,8.189775 c -0.0486,4.504375 -0.0878,-4.310186 -0.0871,-19.587914 z"
     id="path6508"
     inkscape:connector-curvature="0" />
  <path
     style="fill:#000000;stroke:#000000;stroke-width:0.02110766;stroke-opacity:1"
     d="m 153.77256,50.528397 c -0.001,-3.065504 -0.0374,-7.349296 -0.0623,-7.3959 -0.0215,-0.04022 -0.0271,-0.04096 -0.0845,-0.01126 -0.0338,0.01748 -0.0667,0.03178 -0.0731,0.03178 -0.006,0 -0.0116,-1.548247 -0.0116,-3.440549 v -3.440549 h 0.11609 0.11609 v 0.675445 c 0,0.661373 8.8e-4,0.675445 0.0422,0.675445 0.0417,0 0.0422,0.01385 0.0416,1.145091 -0.001,2.431705 -0.0599,13.402392 -0.0715,13.413997 -0.007,0.0067 -0.0126,-0.737349 -0.0129,-1.653509 z"
     id="path6510"
     inkscape:connector-curvature="0" />
  <path
     style="fill:#000000;stroke:#000000;stroke-width:0.02110766;stroke-opacity:1"
     d="m 153.20335,43.556376 v -7.723101 l -0.90932,-1.590656 c -0.50013,-0.874861 -0.92834,-1.621526 -0.95157,-1.659256 l -0.0422,-0.0686 h 0.21137 0.21136 l 0.29377,0.532969 c 0.16158,0.293132 0.39641,0.722937 0.52186,0.955122 0.12545,0.232184 0.39758,0.718802 0.60474,1.081374 0.33605,0.588157 0.37665,0.669552 0.37665,0.755067 0,0.126515 0.14856,0.432633 0.20996,0.432633 0.0391,0 0.0409,0.02501 0.0473,0.661152 0.006,0.596149 0.0103,0.664782 0.0436,0.698061 0.0342,0.03418 0.0373,0.127015 0.042,1.254368 l 0.005,1.21746 0.0108,-1.604183 0.0108,-1.604182 0.0739,-0.0062 0.0739,-0.0062 0.289,0.692151 c 0.15895,0.380683 0.38069,0.910615 0.49275,1.177627 1.62559,3.87323 2.87368,7.828917 3.74417,11.866737 0.0706,0.327384 0.12832,0.609963 0.12832,0.627953 0,0.02935 -0.2502,0.03271 -2.4375,0.03271 h -2.4375 l -0.006,-0.427431 -0.006,-0.42743 -0.005,0.42743 -0.005,0.427431 h -0.12939 -0.12939 l 0.009,-4.04036 c 0.008,-3.477587 0.0135,-4.045579 0.0397,-4.077831 0.0189,-0.02324 0.0204,-0.03145 0.004,-0.02162 -0.0145,0.0087 -0.0284,0.01292 -0.0308,0.0093 -0.002,-0.0036 -0.01,-1.55477 -0.0163,-3.447072 -0.009,-2.713084 -0.0129,-1.852844 -0.0167,4.068503 l -0.005,7.509052 h -0.1583 -0.15831 z m 0.56461,5.659827 c -0.003,-0.275719 -0.006,-0.05013 -0.006,0.501307 0,0.551438 0.003,0.777026 0.006,0.501307 0.003,-0.275719 0.003,-0.726895 0,-1.002614 z m 0.0633,-1.476011 c -0.003,-0.369431 -0.006,-0.07329 -0.006,0.658089 0,0.731381 0.003,1.033643 0.006,0.671694 0.003,-0.361949 0.003,-0.960351 0,-1.329783 z m -0.0845,-1.922323 c -0.004,-0.159627 -0.007,-0.02902 -0.007,0.290231 0,0.319253 0.003,0.449857 0.007,0.29023 0.004,-0.159627 0.004,-0.420834 0,-0.580461 z m 0.10556,-2.290181 c -0.003,-0.223478 -0.006,-0.04063 -0.006,0.406322 0,0.446955 0.003,0.6298 0.006,0.406323 0.003,-0.223478 0.003,-0.589168 0,-0.812645 z"
     id="path6512"
     inkscape:connector-curvature="0" />
  <path
     style="fill:#000000;stroke:#000000;stroke-width:0.02110766;stroke-opacity:1"
     d="m 153.80812,37.459234 c -0.007,-0.07836 -0.0131,-0.322948 -0.0126,-0.543523 l 8.9e-4,-0.401045 0.0823,0.158307 c 0.0453,0.08707 0.0828,0.163907 0.0834,0.17075 5.7e-4,0.0068 -0.0227,0.02326 -0.0517,0.03649 l -0.0528,0.02404 v 0.348729 c 0,0.356287 -0.0254,0.462024 -0.0496,0.206253 z"
     id="path6514"
     inkscape:connector-curvature="0" />
  <path
     style="fill:#000000;stroke:#000000;stroke-width:0.02110766;stroke-opacity:1"
     d="m 153.20335,43.564303 v -7.715175 l -0.94457,-1.650396 c -0.51951,-0.907719 -0.94773,-1.657951 -0.9516,-1.667183 -0.004,-0.0092 0.0883,-0.01679 0.20486,-0.01679 h 0.21191 l 0.0825,0.142477 c 0.0454,0.07836 0.28463,0.512916 0.5317,0.965676 0.24707,0.452759 0.61107,1.108152 0.80889,1.456428 0.31116,0.547804 0.36204,0.650192 0.37717,0.758955 0.0214,0.15368 0.13597,0.394017 0.20158,0.422803 0.0397,0.01741 0.0475,0.03736 0.0475,0.121369 0,0.05529 -8.1e-4,0.106595 -0.002,0.114004 -9.9e-4,0.0074 0.007,0.01928 0.0184,0.02639 0.034,0.02168 0.17561,0.319353 0.16226,0.340956 -0.007,0.01113 0.0105,0.02023 0.0385,0.02023 0.0475,0 0.086,0.08336 0.5533,1.19786 0.58751,1.40121 0.81151,1.953982 1.11867,2.760648 1.24054,3.25796 2.20909,6.522856 2.92175,9.848986 0.0588,0.274511 0.10694,0.519096 0.10694,0.543522 v 0.04441 h -2.744 -2.74399 z m 0.33236,0.903772 c -0.004,-0.113793 -0.007,-0.02643 -0.007,0.19415 -2e-5,0.220575 0.003,0.313678 0.007,0.206896 0.004,-0.106783 0.004,-0.287253 5e-5,-0.401046 z m 0.021,-1.193679 c -0.004,-0.07256 -0.007,-0.01319 -0.007,0.131922 0,0.145116 0.003,0.204481 0.007,0.131923 0.004,-0.07256 0.004,-0.191288 0,-0.263845 z m 0.31739,-5.846824 c -0.004,-0.398605 -0.006,-0.448204 -0.0111,-0.196739 -0.004,0.184926 -0.0151,0.346718 -0.0257,0.359538 -0.0117,0.01414 -0.0116,0.03549 2.3e-4,0.05426 0.0108,0.01702 0.0197,0.09507 0.0199,0.17343 1.7e-4,0.07836 0.005,0.142477 0.0109,0.142477 0.006,0 0.008,-0.239836 0.006,-0.532969 z m -0.0651,0.07428 c -0.005,-0.02054 -0.0101,-0.0088 -0.0105,0.02598 -4.3e-4,0.03483 0.004,0.05163 0.01,0.03734 0.006,-0.01429 0.006,-0.04279 7.8e-4,-0.06332 z"
     id="path6516"
     inkscape:connector-curvature="0" />
  <path
     style="fill:#000000;stroke:#000000;stroke-width:0.02110766;stroke-opacity:1"
     d="m 153.80341,52.303199 c 2e-5,-0.267012 0.003,-0.373333 0.007,-0.23627 0.004,0.137063 0.004,0.355528 -3e-5,0.485476 -0.004,0.129949 -0.007,0.01781 -0.007,-0.249206 z"
     id="path6518"
     inkscape:connector-curvature="0" />
  <path
     style="fill:#000000;stroke:#000000;stroke-width:0.02110766;stroke-opacity:1"
     d="m 153.20335,52.028664 v -9.382492 l 1.56696,0.0054 1.56696,0.0054 0.27532,0.823199 c 0.8219,2.457515 1.58947,5.275166 2.0125,7.387683 0.69832,3.487285 1.09289,6.292139 1.20551,8.569712 0.0301,0.608665 0.0636,1.542261 0.0637,1.778321 l 1.5e-4,0.195246 h -3.17666 -3.17666 l -0.005,-5.060563 -0.005,-5.060563 -0.005,5.060563 -0.005,5.060563 h -0.1583 -0.15831 z m 0.60649,1.467118 c -5e-5,-0.458564 -0.007,-0.947734 -0.0146,-1.087044 -0.008,-0.139311 -0.0145,0.454342 -0.0144,1.319229 1.3e-4,1.028068 0.005,1.404435 0.0146,1.087044 0.008,-0.267011 0.0144,-0.860665 0.0144,-1.319229 z m 2.1e-4,-2.032649 c -0.004,-0.09521 -0.007,-0.01163 -0.007,0.185729 2e-5,0.197356 0.003,0.275252 0.007,0.173102 0.004,-0.102151 0.004,-0.263625 -4e-5,-0.358831 z"
     id="path6520"
     inkscape:connector-curvature="0" />
  <path
     style="fill:#000000;stroke:#000000;stroke-width:0.04221533;stroke-opacity:1"
     d="m 153.56589,88.257015 v -3.503872 h 0.0991 c 0.0961,0 0.1,0.01373 0.12665,0.449828 0.0151,0.247405 0.0275,1.059523 0.0276,1.804705 1.2e-4,2.346821 0.0474,4.077766 0.1114,4.077766 0.0426,0 0.0385,0.03345 -0.0174,0.142688 l -0.073,0.142688 -0.0241,-0.300995 -0.024,-0.300996 -0.008,0.364107 c -0.0103,0.491253 -0.0406,0.627953 -0.13953,0.627953 -0.0768,0 -0.0791,-0.106007 -0.0791,-3.503872 z"
     id="path6522"
     inkscape:connector-curvature="0" />
  <path
     style="fill:#000000;stroke:#000000;stroke-width:0.04221533;stroke-opacity:1"
     d="m 153.58131,84.098805 c 1.1e-4,-0.232184 0.007,-0.321783 0.0157,-0.199108 0.009,0.122675 0.008,0.312644 -2e-4,0.422154 -0.009,0.109509 -0.0157,0.0091 -0.0155,-0.223046 z"
     id="path6524"
     inkscape:connector-curvature="0" />
  <path
     style="fill:#000000;stroke:#000000;stroke-width:0.04221533;stroke-opacity:1"
     d="m 153.5925,91.665903 c -0.014,-0.05224 -0.0257,-1.628984 -0.026,-3.503872 -5.4e-4,-3.218392 0.004,-3.408925 0.0733,-3.409535 0.063,-5.51e-4 0.0645,-0.0066 0.0105,-0.04067 -0.0558,-0.03529 -0.0648,-0.95384 -0.0761,-7.766974 l -0.0128,-7.726953 h 3.10587 3.10587 l -0.0195,0.09499 c -0.0107,0.05224 -0.0308,0.284953 -0.0447,0.517137 -0.0516,0.862923 -0.31913,2.920608 -0.61467,4.728117 -0.73437,4.491435 -1.92826,8.774866 -3.65936,13.128968 -0.59819,1.504585 -1.36055,3.286263 -1.429,3.339665 -0.0331,0.02578 -0.0601,0.06763 -0.0601,0.093 0,0.02537 -0.0229,0.09632 -0.0508,0.157653 -0.0452,0.09929 -0.054,0.102979 -0.0801,0.03365 -0.0188,-0.04983 -0.0291,-0.01555 -0.0287,0.09518 9.7e-4,0.280226 -0.13814,0.466758 -0.19364,0.259651 z m 0.25826,-4.556702 c -0.007,-0.332267 -0.013,-0.07221 -0.013,0.577907 -2e-5,0.650116 0.006,0.921972 0.013,0.604123 0.007,-0.317849 0.007,-0.849762 4e-5,-1.18203 z m -0.0395,-2.788766 -0.008,-0.85486 -0.0238,0.63323 c -0.0224,0.596536 -0.0119,1.076491 0.0237,1.076491 0.009,0 0.0123,-0.384687 0.008,-0.854861 z"
     id="path6526"
     inkscape:connector-curvature="0" />
  <path
     style="fill:#000000;stroke:#000000;stroke-width:0.04221533;stroke-opacity:1"
     d="m 143.2095,106.60668 c 0.0656,-0.0774 0.38516,-0.44305 0.71026,-0.81265 1.90714,-2.16819 3.59779,-4.36945 5.20123,-6.772106 1.08107,-1.619913 1.71286,-2.662057 3.27635,-5.404366 l 0.83083,-1.457233 V 80.689113 69.217901 h 3.27424 3.27424 l -0.0268,0.306061 c -0.14393,1.646183 -0.3328,3.122514 -0.63591,4.970855 -0.74903,4.567507 -1.90654,8.744828 -3.62627,13.086753 -0.54682,1.380596 -1.16478,2.840343 -1.45649,3.440549 -0.13541,0.278621 -0.25819,0.560088 -0.27285,0.625481 -0.0185,0.08249 -0.0488,0.11463 -0.099,0.104961 -0.0681,-0.01311 -0.0729,-0.644193 -0.0821,-10.672729 -0.005,-5.862337 -0.0167,-10.706286 -0.0253,-10.764332 -0.009,-0.05805 -0.0185,4.751335 -0.022,10.687514 -0.004,7.58571 0.007,10.797496 0.0385,10.808002 0.0317,0.01055 0.0317,0.04965 0,0.132913 -0.0247,0.06488 -0.0448,0.162454 -0.0448,0.216832 0,0.05438 -0.13478,0.333346 -0.29952,0.619928 -0.16474,0.286582 -0.59541,1.052971 -0.95704,1.703087 -2.40131,4.316921 -4.69458,7.645074 -7.65046,11.102874 -1.02678,1.20114 -0.98221,1.16068 -1.27873,1.16068 h -0.24758 z"
     id="path6528"
     inkscape:connector-curvature="0" />
  <path
     style="fill:#ff0000;stroke:#ff0000;stroke-width:0.05970149;stroke-opacity:1"
     d="m 37.976801,90.976124 c -0.0289,-0.07388 -0.16485,-0.376119 -0.302119,-0.671642 -0.97929,-2.108288 -2.123475,-5.151841 -2.901201,-7.717252 -2.863913,-9.446916 -3.496083,-19.535374 -1.839612,-29.357375 0.810336,-4.804859 2.22036,-9.625739 4.144319,-14.169451 0.432969,-1.022519 0.434226,-1.024579 0.624919,-1.024579 h 0.191078 l -0.490513,1.149254 c -2.491686,5.837932 -4.124115,12.232008 -4.742886,18.577458 -0.242174,2.483478 -0.269945,3.130332 -0.269334,6.273288 6.13e-4,3.151039 0.03084,3.849845 0.272451,6.298508 0.665281,6.742466 2.476698,13.52895 5.257504,19.697259 0.258005,0.572298 0.469099,1.049164 0.469099,1.059701 0,0.01054 -0.08126,0.01916 -0.180582,0.01916 -0.131902,0 -0.194746,-0.03621 -0.233123,-0.134329 z"
     id="path6530"
     inkscape:connector-curvature="0" />
  <path
     style="fill:#ff0000;stroke:#ff0000;stroke-width:0.23880596;stroke-opacity:1"
     d=""
     id="path6532"
     inkscape:connector-curvature="0" />
  <path
     style="fill:#ff0000;stroke:#ff0000;stroke-width:0.23880596;stroke-opacity:1"
     d="m 41.883997,98.134576 c -0.08756,-0.08756 -0.159204,-0.270248 -0.159204,-0.40597 0,-0.149637 0.111229,-0.135537 0.282587,0.03582 0.155423,0.155423 0.227065,0.338109 0.159204,0.40597 -0.06786,0.06786 -0.195024,0.05174 -0.282587,-0.03582 z"
     id="path6534"
     inkscape:connector-curvature="0" />
  <rect
     style="fill:#ff0000;stroke:#ff0000;stroke-opacity:1"
     id="rect6545"
     width="0.92537314"
     height="1.4477612"
     x="151.7612"
     y="91.567162"
     ry="0.33772299" />
  <path
     style="fill:#ff0000;stroke:#ff0000;stroke-width:0.04221533;stroke-opacity:1"
     d=""
     id="path6547"
     inkscape:connector-curvature="0" />
  <path
     style="fill:#ff0000;stroke:#ff0000;stroke-width:0.04221533;stroke-opacity:1"
     d="m 134.41254,114.70779 c 2.0031,-1.57174 3.21998,-2.60255 4.77313,-4.04324 4.18911,-3.88581 7.97914,-8.4773 11.02636,-13.358051 0.4453,-0.713237 0.95016,-1.568031 1.88871,-3.197811 0.23028,-0.399885 0.37034,-0.601569 0.41775,-0.601569 0.0392,0 0.14228,-0.03803 0.22901,-0.08451 0.0867,-0.04648 0.15768,-0.07739 0.15768,-0.06869 0,0.02477 -1.39624,2.498552 -1.73609,3.075923 -4.02566,6.839148 -9.41471,12.995058 -15.67291,17.903178 l -0.62841,0.49284 -0.30033,-0.002 -0.30033,-0.002 z"
     id="path6549"
     inkscape:connector-curvature="0" />
  <path
     style="fill:#ff0000;stroke:#ff0000;stroke-width:0.08443066;stroke-opacity:1"
     d="m 93.147396,127.91194 c -9.384763,-0.41366 -18.983663,-3.03789 -27.162137,-7.42583 -5.46535,-2.93228 -10.282251,-6.46569 -14.675623,-10.76522 -3.329333,-3.25821 -6.032426,-6.51217 -8.617398,-10.373557 -0.527337,-0.787725 -0.597342,-0.934083 -0.495503,-1.035923 0.10184,-0.101839 0.223704,0.03758 0.862556,0.986814 2.421749,3.598336 4.614412,6.247776 7.899704,9.545366 2.665353,2.67533 4.32577,4.12795 7.051114,6.16867 9.040615,6.76955 19.90018,11.05948 31.154914,12.30732 2.70736,0.30017 4.3,0.36718 7.514329,0.31613 3.781778,-0.0601 6.139908,-0.27113 9.709528,-0.8691 7.88761,-1.32131 15.47724,-4.05624 21.95197,-7.91041 1.19969,-0.71413 3.80459,-2.44725 4.89351,-3.25579 0.63924,-0.47466 0.9981,-0.68703 1.16092,-0.68703 0.12961,0 0.23565,0.0169 0.23565,0.0376 0,0.0626 -1.98755,1.48294 -3.33903,2.38605 -7.67781,5.13065 -16.67291,8.57918 -25.91619,9.93573 -3.85912,0.56637 -8.443604,0.806 -12.228314,0.63918 z"
     id="path6551"
     inkscape:connector-curvature="0" />
  <path
     style="fill:#ff0000;stroke:#ff0000;stroke-width:0.08443066;stroke-opacity:1"
     d="m 92.868491,127.90971 c -8.607234,-0.40885 -17.728643,-2.79824 -25.444363,-6.66528 -8.856803,-4.43893 -16.756869,-11.06112 -22.711586,-19.03786 -1.371215,-1.83684 -2.533182,-3.565133 -2.533182,-3.767822 0,-0.08702 -0.0511,-0.158209 -0.11356,-0.158209 -0.184587,0 -0.408789,-0.308287 -0.378701,-0.520728 0.01996,-0.140936 0.07397,-0.188945 0.189931,-0.168843 0.150834,0.02615 0.153152,0.01447 0.03353,-0.168861 -0.492098,-0.75416 -1.763406,-3.019042 -2.551242,-4.54513 -0.818848,-1.586162 -0.962254,-1.815259 -1.136276,-1.815259 -0.171748,0 -0.256915,-0.127813 -0.618855,-0.928737 -3.01703,-6.67628 -4.913327,-14.356138 -5.435979,-22.015295 l -0.05617,-0.823199 h 60.504609 60.504613 l 0.0191,12.179123 c 0.0105,6.698517 0.007,12.483073 -0.007,12.854568 -0.0224,0.579267 -0.0553,0.706334 -0.23134,0.892375 -0.11288,0.119313 -0.18462,0.23754 -0.15944,0.26273 0.11451,0.114503 -2.39619,4.345077 -3.81029,6.420413 -3.56528,5.232434 -7.97,9.990464 -13.03484,14.080404 -0.94943,0.76668 -1.08633,0.85013 -1.36357,0.83123 -0.23023,-0.0157 -0.37974,0.0371 -0.59102,0.20886 l -0.28282,0.22988 0.2955,-0.17003 c 0.29692,-0.17084 0.72535,-0.23527 0.63936,-0.0962 -0.0756,0.1223 -1.93415,1.44293 -3.42557,2.43409 -7.42259,4.93287 -15.90909,8.2413 -24.94926,9.72638 -4.09526,0.67276 -9.149345,0.96096 -13.351526,0.76135 z m -0.642856,-0.38993 c -0.08127,-0.0212 -0.214243,-0.0212 -0.295508,0 -0.08126,0.0212 -0.01478,0.0386 0.147754,0.0386 0.162529,0 0.229018,-0.0174 0.147754,-0.0386 z m -1.224245,-0.0821 c -0.05805,-0.0234 -0.153031,-0.0234 -0.211077,0 -0.05805,0.0234 -0.01055,0.0426 0.105539,0.0426 0.116092,0 0.163584,-0.0192 0.105538,-0.0426 z m 9.58112,0.005 c -0.028,-0.0281 -0.10088,-0.0311 -0.16182,-0.007 -0.0674,0.0269 -0.0473,0.047 0.051,0.051 0.089,0.004 0.13887,-0.0163 0.11081,-0.0443 z m 1.14318,-0.0888 c -0.0572,-0.0231 -0.17114,-0.0245 -0.25329,-0.003 -0.0821,0.0214 -0.0354,0.0403 0.10393,0.0421 0.13931,0.002 0.20652,-0.0158 0.14936,-0.0389 z m 0.84431,-0.0844 c -0.0572,-0.0231 -0.17115,-0.0245 -0.25329,-0.003 -0.0821,0.0214 -0.0354,0.0403 0.10393,0.0421 0.13931,0.002 0.20652,-0.0158 0.14936,-0.0389 z m 0.67384,-0.085 c -0.0581,-0.0234 -0.15303,-0.0234 -0.21108,0 -0.058,0.0234 -0.0105,0.0426 0.10554,0.0426 0.11609,0 0.16358,-0.0192 0.10554,-0.0426 z m 0.67544,-0.0844 c -0.058,-0.0234 -0.15303,-0.0234 -0.21108,0 -0.058,0.0234 -0.0106,0.0426 0.10554,0.0426 0.11609,0 0.16359,-0.0192 0.10554,-0.0426 z m 0.63147,-0.0795 c -0.028,-0.0281 -0.10088,-0.0311 -0.16182,-0.007 -0.0674,0.0269 -0.0474,0.047 0.051,0.051 0.089,0.004 0.13887,-0.0163 0.11081,-0.0443 z m 0.59102,-0.0844 c -0.0281,-0.0281 -0.10088,-0.0311 -0.16183,-0.007 -0.0674,0.0269 -0.0473,0.047 0.051,0.051 0.089,0.004 0.13887,-0.0163 0.11082,-0.0443 z m 29.41551,-12.33919 c 0.10501,-0.13391 0.10203,-0.13689 -0.0319,-0.0319 -0.0813,0.0637 -0.14776,0.13022 -0.14776,0.14775 0,0.0695 0.0693,0.0248 0.17964,-0.11588 z m 0.36916,-0.2744 c 0.084,-0.0929 0.13382,-0.16886 0.11061,-0.16886 -0.0232,0 -0.11099,0.076 -0.19504,0.16886 -0.084,0.0929 -0.13382,0.16887 -0.1106,0.16887 0.0232,0 0.11098,-0.076 0.19503,-0.16887 z m 0.42215,-0.33772 c 0.0841,-0.0929 0.13383,-0.16886 0.11061,-0.16886 -0.0232,0 -0.11099,0.076 -0.19504,0.16886 -0.084,0.0929 -0.13382,0.16886 -0.1106,0.16886 0.0232,0 0.11098,-0.076 0.19503,-0.16886 z m 0.42216,-0.33772 c 0.0841,-0.0929 0.13382,-0.16886 0.1106,-0.16886 -0.0232,0 -0.11098,0.076 -0.19503,0.16886 -0.084,0.0929 -0.13383,0.16886 -0.11061,0.16886 0.0232,0 0.11099,-0.076 0.19504,-0.16886 z m 0.47514,-0.40105 c 0.10501,-0.13391 0.10203,-0.13689 -0.0319,-0.0319 -0.0813,0.0637 -0.14775,0.13022 -0.14775,0.14775 0,0.0695 0.0693,0.0248 0.17963,-0.11588 z m -80.388763,0.0315 c 0,-0.0175 -0.06649,-0.084 -0.147753,-0.14775 -0.133912,-0.10503 -0.136899,-0.10204 -0.03188,0.0319 0.110298,0.14064 0.179631,0.18537 0.179631,0.11588 z m 80.884573,-0.43249 c 0.10906,-0.11609 0.1793,-0.21108 0.15608,-0.21108 -0.0232,0 -0.13145,0.095 -0.24051,0.21108 -0.10906,0.11609 -0.1793,0.21107 -0.15608,0.21107 0.0232,0 0.13145,-0.095 0.24051,-0.21107 z m 0.55411,-0.48548 0.24798,-0.2744 -0.2744,0.24798 c -0.25578,0.23116 -0.31321,0.30082 -0.24798,0.30082 0.0145,0 0.13801,-0.12348 0.2744,-0.2744 z m -82.45185,0.0764 c 0,-0.016 -0.08549,-0.10151 -0.189969,-0.18997 l -0.189969,-0.16084 0.160839,0.18997 c 0.15115,0.17852 0.219099,0.22841 0.219099,0.16084 z m 83.07977,-0.6041 c 0.15753,-0.16253 0.26742,-0.29551 0.2442,-0.29551 -0.0232,0 -0.1711,0.13298 -0.32863,0.29551 -0.15753,0.16253 -0.26742,0.29551 -0.2442,0.29551 0.0232,0 0.1711,-0.13298 0.32863,-0.29551 z m 0.88652,-0.80209 c 0.18138,-0.18575 0.31078,-0.33772 0.28756,-0.33772 -0.0232,0 -0.19062,0.15197 -0.37199,0.33772 -0.18137,0.18575 -0.31078,0.33772 -0.28756,0.33772 0.0232,0 0.19062,-0.15197 0.37199,-0.33772 z m 2.02634,-1.94191 c 0.7884,-0.78942 1.41446,-1.43532 1.39124,-1.43532 -0.0232,0 -0.68727,0.6459 -1.47567,1.43532 -0.78841,0.78943 -1.41446,1.43533 -1.39124,1.43533 0.0232,0 0.68726,-0.6459 1.47567,-1.43533 z m 2.94813,-3.14504 c 0.40589,-0.47598 0.54175,-0.65645 0.30191,-0.40104 -0.52785,0.56208 -1.12648,1.26646 -1.07634,1.26646 0.02,0 0.36854,-0.38944 0.77443,-0.86542 z m 1.2314,-1.41447 c 0.19428,-0.23204 0.33531,-0.4219 0.31341,-0.4219 -0.0219,0 -0.22491,0.21692 -0.45112,0.48205 -0.22622,0.26512 -0.36726,0.45497 -0.31342,0.42189 0.0539,-0.0331 0.25685,-0.25 0.45113,-0.48204 z m 0.76059,-0.92965 c 0.14661,-0.1851 0.24894,-0.33655 0.22741,-0.33655 -0.0215,0 -0.18557,0.1787 -0.36454,0.39711 -0.17897,0.21841 -0.28131,0.36986 -0.22742,0.33655 0.0539,-0.0333 0.21794,-0.21201 0.36455,-0.39711 z m 0.46344,-0.58984 c 0.084,-0.0929 0.13382,-0.16887 0.1106,-0.16887 -0.0232,0 -0.11098,0.076 -0.19503,0.16887 -0.084,0.0929 -0.13382,0.16886 -0.11061,0.16886 0.0232,0 0.11099,-0.076 0.19504,-0.16886 z m 0.30628,-0.40105 c 0.10502,-0.13391 0.10203,-0.1369 -0.0319,-0.0319 -0.0813,0.0637 -0.14775,0.13022 -0.14775,0.14776 0,0.0695 0.0693,0.0248 0.17963,-0.11588 z m 0.28473,-0.35883 c 0.0841,-0.0929 0.13383,-0.16886 0.11061,-0.16886 -0.0232,0 -0.11099,0.076 -0.19504,0.16886 -0.0841,0.0929 -0.13382,0.16886 -0.1106,0.16886 0.0232,0 0.11098,-0.076 0.19503,-0.16886 z m -101.527865,0.0525 c 0,-0.0175 -0.06649,-0.084 -0.147754,-0.14775 -0.133912,-0.10502 -0.136898,-0.10203 -0.03188,0.0319 0.110297,0.14064 0.179631,0.18536 0.179631,0.11587 z m -0.253292,-0.33772 c 0,-0.0175 -0.06649,-0.084 -0.147754,-0.14775 -0.133912,-0.10502 -0.136898,-0.10204 -0.03188,0.0319 0.110297,0.14065 0.179631,0.18537 0.179631,0.11588 z m 102.087447,-0.11588 c 0.10501,-0.13391 0.10203,-0.13689 -0.0319,-0.0319 -0.14063,0.11029 -0.18536,0.17963 -0.11587,0.17963 0.0175,0 0.084,-0.0665 0.14776,-0.14776 z m 0.67544,-0.92873 c 0.10502,-0.13391 0.10203,-0.1369 -0.0319,-0.0319 -0.0813,0.0637 -0.14775,0.13022 -0.14775,0.14775 0,0.0695 0.0693,0.0248 0.17963,-0.11587 z m 0.42215,-0.59102 c 0.10502,-0.13391 0.10204,-0.1369 -0.0319,-0.0319 -0.0813,0.0637 -0.14775,0.13022 -0.14775,0.14775 0,0.0695 0.0693,0.0248 0.17963,-0.11588 z m 1.11485,-1.623991 c 0.26167,-0.442976 0.0935,-0.275075 -0.2313,0.230888 -0.1714,0.267012 -0.22331,0.381577 -0.11536,0.254588 0.10795,-0.126989 0.26394,-0.345453 0.34666,-0.485476 z M 42.640492,98.554939 c -0.307918,-0.478847 -0.376701,-0.56239 -0.376701,-0.457537 0,0.09887 0.424202,0.689713 0.495187,0.689719 0.01695,10e-7 -0.03637,-0.104481 -0.118486,-0.232182 z m 107.536528,-1.160922 0.0829,-0.168861 -0.13749,0.168861 c -0.0756,0.09287 -0.17479,0.244849 -0.22039,0.337723 l -0.0829,0.168861 0.13749,-0.168861 c 0.0756,-0.09287 0.17479,-0.244849 0.22039,-0.337723 z m 0.24245,-0.379938 c 0.0497,-0.09287 0.0714,-0.168861 0.0482,-0.168861 -0.0232,0 -0.0829,0.07599 -0.13259,0.168861 -0.0497,0.09287 -0.0714,0.168862 -0.0482,0.168862 0.0232,0 0.0829,-0.07599 0.13259,-0.168862 z m 0.75987,-1.26646 c 0.0497,-0.09287 0.0714,-0.168861 0.0482,-0.168861 -0.0232,0 -0.0829,0.07599 -0.13259,0.168861 -0.0497,0.09287 -0.0714,0.168862 -0.0482,0.168862 0.0232,0 0.0829,-0.07599 0.13259,-0.168862 z m 0.2533,-0.422153 c 0.0497,-0.09287 0.0714,-0.168861 0.0482,-0.168861 -0.0232,0 -0.0829,0.07599 -0.13259,0.168861 -0.0497,0.09287 -0.0714,0.168861 -0.0481,0.168861 0.0232,0 0.0829,-0.07599 0.13259,-0.168861 z m 0.33772,-0.591014 c 0.0497,-0.09287 0.0714,-0.168862 0.0482,-0.168862 -0.0232,0 -0.0829,0.07599 -0.13259,0.168862 -0.0497,0.09287 -0.0714,0.168861 -0.0482,0.168861 0.0232,0 0.0829,-0.07599 0.13259,-0.168861 z m 0.41864,-0.71152 c 0.14419,-0.252024 0.30845,-0.476987 0.36503,-0.499918 0.0669,-0.02711 0.0586,-0.04367 -0.0238,-0.04736 -0.0706,-0.0032 -0.24954,0.218072 -0.40435,0.499919 -0.15274,0.27807 -0.26001,0.505582 -0.23838,0.505582 0.0216,0 0.1573,-0.206203 0.3015,-0.458228 z M 33.625109,76.397167 c -0.02695,-0.06735 -0.04696,-0.04735 -0.05101,0.05101 -0.0037,0.089 0.01629,0.138871 0.04434,0.110815 0.02806,-0.02806 0.03106,-0.100878 0.0067,-0.161826 z m -0.253292,-1.35089 c -0.02695,-0.06735 -0.04696,-0.04735 -0.05101,0.05101 -0.0037,0.089 0.01629,0.138871 0.04434,0.110815 0.02806,-0.02805 0.03106,-0.100877 0.0067,-0.161825 z m -0.168862,-1.013168 c -0.02695,-0.06735 -0.04696,-0.04735 -0.05101,0.05101 -0.0037,0.089 0.01629,0.138871 0.04434,0.110815 0.02806,-0.02806 0.03106,-0.100877 0.0067,-0.161825 z m -0.08443,-0.506584 c -0.02695,-0.06735 -0.04696,-0.04735 -0.05101,0.05101 -0.0037,0.089 0.01629,0.138871 0.04434,0.110815 0.02806,-0.02805 0.03105,-0.100877 0.0067,-0.161825 z m -0.08443,-0.591015 c -0.02695,-0.06735 -0.04696,-0.04735 -0.05101,0.05101 -0.0037,0.089 0.01629,0.13887 0.04434,0.110815 0.02806,-0.02806 0.03106,-0.100877 0.0067,-0.161826 z m -0.08443,-0.591014 c -0.02695,-0.06735 -0.04696,-0.04735 -0.05101,0.05101 -0.0037,0.089 0.01629,0.138871 0.04434,0.110815 0.02805,-0.02806 0.03105,-0.100877 0.0067,-0.161825 z m -0.08443,-0.675446 c -0.02695,-0.06735 -0.04696,-0.04735 -0.05101,0.05101 -0.0037,0.089 0.01629,0.13887 0.04434,0.110815 0.02806,-0.02806 0.03106,-0.100877 0.0067,-0.161826 z m -0.08619,-0.765152 c -0.02342,-0.05805 -0.04259,-0.01055 -0.04259,0.105538 0,0.116092 0.01916,0.163584 0.04259,0.105538 0.02342,-0.05805 0.02342,-0.15303 0,-0.211076 z m -0.08184,-0.800485 c -0.02141,-0.08215 -0.04033,-0.03538 -0.04205,0.103932 -0.0017,0.13931 0.01579,0.206522 0.03892,0.14936 0.02313,-0.05716 0.02454,-0.171144 0.0031,-0.253292 z m -0.08474,-1.014775 c -0.02124,-0.08126 -0.03861,-0.01478 -0.03861,0.147754 0,0.162529 0.01738,0.229018 0.03861,0.147754 0.02124,-0.08127 0.02124,-0.214243 0,-0.295508 z m -0.08155,-1.139814 c -0.01873,-0.150919 -0.03405,-0.02744 -0.03405,0.2744 0,0.30184 0.01532,0.425319 0.03405,0.2744 0.01873,-0.15092 0.01873,-0.39788 0,-0.5488 z"
     id="path6553"
     inkscape:connector-curvature="0" />
  <path
     style="fill:#ff0000;stroke:#ff0000;stroke-width:0.08443066;stroke-opacity:1"
     d=""
     id="path6555"
     inkscape:connector-curvature="0" />
  <path
     style="fill:#ff0000;stroke:#ff0000;stroke-width:0.08443066;stroke-opacity:1"
     d="m 40.926558,96.528603 c -0.992151,-1.685963 -2.799869,-5.105958 -2.799869,-5.297031 0,-0.02376 0.05022,-0.04321 0.111588,-0.04321 0.120988,0 0.37671,0.437783 1.578189,2.701781 0.431262,0.812645 1.059623,1.940356 1.396359,2.506023 0.336736,0.565668 0.590645,1.050089 0.564243,1.076491 -0.147164,0.147164 -0.323602,-0.04868 -0.85051,-0.944056 z"
     id="path6557"
     inkscape:connector-curvature="0" />
  <path
     style="fill:#ff0000;stroke:#ff0000;stroke-width:0.08443066;stroke-opacity:1"
     d=""
     id="path6559"
     inkscape:connector-curvature="0" />
  <path
     style="fill:#ff0000;stroke:#ff0000;stroke-width:0.02985075;stroke-opacity:1"
     d="m 61.144224,10.545613 0.0088,-0.219702 0.552239,-0.3519817 c 7.551758,-4.8132788 16.125759,-7.9983591 25,-9.28703032 9.333,-1.35528956 18.805447,-0.65816816 27.802097,2.04608432 1.51898,0.4565806 3.40756,1.1105561 4.85462,1.6810508 l 0.53731,0.2118334 0.009,0.2007678 c 0.005,0.1104224 -6e-4,0.200768 -0.0121,0.200768 -0.0115,0 -0.24383,-0.08868 -0.51628,-0.1970674 C 113.36994,2.4394757 106.7481,0.9411594 100.27246,0.5069525 98.653329,0.39838557 98.199261,0.38561226 95.959031,0.38561226 c -2.310352,0 -2.7902,0.0145406 -4.492538,0.13613489 -9.976216,0.71258045 -19.599581,3.74730845 -28.1331,8.87177205 -0.595883,0.3578337 -1.494906,0.9177368 -1.807198,1.1255068 -0.0903,0.06008 -0.215171,0.140068 -0.277494,0.177759 l -0.113314,0.06853 z"
     id="path6561"
     inkscape:connector-curvature="0" />
  <path
     style="fill:#ff0000;stroke:#000000;stroke-width:1.35089052;stroke-opacity:1"
     d="m 53.641967,508.63021 c -3.253734,-1.61059 -7.029431,-4.95017 -8.780789,-7.76657 -3.072448,-4.94087 -3.072551,-4.94299 -3.747977,-77.21365 L 40.437756,351.37734 27.604295,350.7019 C 12.578889,349.91109 7.952506,347.50348 3.4042084,338.10795 c -2.74988171,-5.68051 -2.81772465,-7.5796 -2.81772465,-78.87538 0,-69.51633 0.1323716,-73.4833 2.73297845,-81.90308 2.0626389,-6.67805 4.4344727,-10.71006 9.6699788,-16.43854 8.865807,-9.70061 17.215516,-13.91971 31.264287,-15.79782 10.631821,-1.42132 11.446996,-1.33109 21.850948,2.41857 9.968162,3.59261 12.275311,3.89498 29.719593,3.89498 17.376611,0 19.776301,-0.31143 29.549611,-3.83493 9.22712,-3.32658 11.77887,-3.71266 19.25019,-2.91255 l 8.61305,0.92238 -0.17096,92.7662 c -0.094,51.02142 -0.54996,129.58986 -1.01316,174.59654 l -0.84222,81.83033 -3.80429,5.74589 c -6.81871,10.29874 -9.53764,10.87363 -51.582221,10.9066 -34.318388,0.0269 -36.81141,-0.13838 -42.182302,-2.79693 z"
     id="path6563"
     inkscape:connector-curvature="0" />
  <path
     style="fill:#000000;stroke:#000000;stroke-width:0.33772263;stroke-opacity:1"
     d="m 153.64594,280.8874 c 0.10338,-39.06878 0.27926,-85.50977 0.39084,-103.20221 l 0.20286,-32.16809 h 0.78398 c 2.45851,0 13.79921,5.01772 16.01154,7.08434 0.51393,0.48009 1.29598,1.03994 1.73787,1.24412 1.55876,0.72022 6.77023,5.98268 9.42123,9.51342 4.45073,5.92769 7.59759,13.1728 8.98263,20.68099 0.54613,2.96052 0.58943,8.27438 0.61215,75.1208 0.0275,80.79295 0.25031,73.70859 -2.49652,79.36482 -2.84423,5.8568 -7.95508,10.15231 -14.70288,12.3573 -2.18085,0.71264 -3.09129,0.78282 -11.74786,0.90557 l -9.3838,0.13307 z"
     id="path6565"
     inkscape:connector-curvature="0" />
  <path
     style="fill:#000000;stroke:#000000;stroke-width:0.11940298;stroke-opacity:1"
     d="m 153.89228,150.55037 c -0.006,-3.67351 0.0291,-5.44651 0.10491,-5.23979 0.0727,0.1982 0.0763,2.22851 0.01,5.55224 l -0.10491,5.23979 z"
     id="path6567"
     inkscape:connector-curvature="0" />
  <path
     style="fill:#000000;stroke:#000000;stroke-width:0.04221533;stroke-opacity:1"
     d="m 153.90482,161.02549 c 0,-3.1474 0.0147,-4.88951 0.0414,-4.90602 0.0386,-0.0238 0.0124,9.72433 -0.0262,9.76885 -0.008,0.01 -0.0153,-2.1786 -0.0153,-4.86283 z"
     id="path6569"
     inkscape:connector-curvature="0" />
  <path
     style="fill:#000000;stroke:#000000;stroke-width:0.04221533;stroke-opacity:1"
     d="m 153.93177,156.20342 c -0.0134,-0.0348 -0.004,-0.0633 0.0214,-0.0633 0.0291,0 0.0377,-0.0653 0.0236,-0.17942 -0.0121,-0.0987 -0.008,-0.68283 0.009,-1.29812 l 0.031,-1.11871 0.007,1.36145 c 0.007,1.2306 -0.0128,1.5052 -0.0923,1.29812 z"
     id="path6571"
     inkscape:connector-curvature="0" />
  <path
     style="fill:#000000;stroke:#000000;stroke-width:0.04221533;stroke-opacity:1"
     d="m 153.88293,160.40384 c 0,-2.37989 0.005,-3.35348 0.0113,-2.16353 0.006,1.18994 0.006,3.13713 0,4.32707 -0.006,1.18994 -0.0113,0.21635 -0.0113,-2.16354 z"
     id="path6573"
     inkscape:connector-curvature="0" />
  <path
     style="fill:#000000;stroke:#000000;stroke-width:0.04221533;stroke-opacity:1"
     d="m 152.55634,156.08733 0.006,-9.88894 -0.14141,-0.0326 c -0.0778,-0.0179 -1.40472,-0.1653 -2.94874,-0.32747 -1.54403,-0.16217 -2.96879,-0.31367 -3.16615,-0.33666 -3.67282,-0.42789 -6.35118,-0.59774 -8.07345,-0.51198 -3.42652,0.17061 -5.7982,0.76965 -12.50652,3.15889 -6.15282,2.19138 -8.67806,2.87014 -12.45051,3.34657 -2.7041,0.34151 -7.28634,0.54767 -12.2138,0.54951 l -1.530307,5.7e-4 v -0.65434 -0.65434 l 1.255907,-5.5e-4 c 1.60684,-7.1e-4 5.29365,-0.0705 6.65947,-0.12598 4.45176,-0.18097 6.99208,-0.49091 9.85036,-1.20182 2.63852,-0.65625 4.10246,-1.11381 8.00672,-2.50253 1.04483,-0.37164 2.31287,-0.82089 2.81786,-0.99833 0.94861,-0.33331 2.21615,-0.85266 3.67667,-1.50646 l 0.84122,-0.37656 1.12357,-1e-5 c 0.97481,-1e-5 1.21578,-0.0137 1.82011,-0.10347 2.44279,-0.36284 4.63836,-0.35817 8.46418,0.018 0.46437,0.0457 1.33822,0.10337 1.9419,0.12825 2.29179,0.0944 4.23622,0.30589 6.58438,0.71606 0.51147,0.0893 1.02019,0.17478 1.13048,0.18987 l 0.20052,0.0274 6.3e-4,0.17683 c 4.7e-4,0.12567 0.012,0.15885 0.04,0.11469 0.0337,-0.0532 0.0433,-0.0517 0.0672,0.0105 0.0247,0.0644 0.1017,0.0727 0.67557,0.0727 0.76903,0 1.18673,0.0704 2.24031,0.37756 2.44225,0.71204 6.06845,2.21306 9.5565,3.95581 2.31674,1.15751 3.8391,2.06334 4.60148,2.73793 0.6037,0.53418 1.55711,1.21724 1.6649,1.1928 0.0638,-0.0145 0.92501,0.59555 1.42367,1.00848 0.76547,0.63389 2.49212,2.18613 2.48273,2.23195 -0.003,0.0147 0.34269,0.38186 0.76824,0.81586 2.0183,2.05839 3.94767,4.27192 5.07,5.81675 l 0.15746,0.21673 v 1.1236 1.12361 h -14.35322 c -7.89426,0 -14.35638,-0.005 -14.36024,-0.0106 -0.004,-0.006 -0.019,-0.66594 -0.0337,-1.46698 l -0.0266,-1.45643 -0.009,1.46698 -0.009,1.46699 h -0.65614 -0.65615 z m 1.38721,0.58046 c 0.008,0.20896 0.028,0.52241 0.0444,0.69655 0.0241,0.25533 0.0312,0.17592 0.0367,-0.41027 0.006,-0.6306 -0.002,-0.72367 -0.0565,-0.70259 -0.0714,0.0274 -0.0901,-0.0898 -0.0211,-0.13249 0.0232,-0.0144 0.04,-0.0582 0.0373,-0.0975 -0.004,-0.0644 -0.007,-0.0641 -0.0242,0.002 -0.0106,0.0406 -0.0369,0.0739 -0.0584,0.0739 -0.023,0 -0.0354,0.33542 -0.0301,0.81264 l 0.009,0.81265 0.0242,-0.71766 c 0.0192,-0.56933 0.0272,-0.63913 0.0387,-0.33772 z m 0.0767,-3.57664 c -0.009,-0.0993 -0.0163,-0.0285 -0.0165,0.1572 0,0.18574 0.007,0.26698 0.0162,0.18053 0.009,-0.0865 0.009,-0.23843 4.2e-4,-0.33773 z"
     id="path6575"
     inkscape:connector-curvature="0" />
  <path
     style="fill:#000000;stroke:#000000;stroke-width:0.04221533;stroke-opacity:1"
     d="m 154.28476,145.22663 c 0,-0.0887 0.0158,-0.10267 0.095,-0.0842 0.0522,0.0122 0.24696,0.0586 0.43271,0.10329 l 0.33772,0.0812 -0.43271,0.003 -0.4327,0.003 z"
     id="path6577"
     inkscape:connector-curvature="0" />
  <path
     style="fill:#000000;stroke:#000000;stroke-width:0.04221533;stroke-opacity:1"
     d="m 154.02091,145.25304 c -0.12495,-0.12669 -0.0945,-0.21558 0.0739,-0.21558 0.14072,0 0.14775,0.007 0.14775,0.14776 0,0.16847 -0.094,0.19724 -0.22163,0.0678 z"
     id="path6579"
     inkscape:connector-curvature="0" />
  <path
     style="fill:#000000;stroke:#000000;stroke-width:0.04221533;stroke-opacity:1"
     d="m 152.49001,191.42156 c 0.0172,-3.85013 0.0621,-26.18262 0.0636,-31.59818 l 2.8e-4,-0.9815 h 13.00082 13.00081 l 0.66209,0.72689 c 1.22826,1.34848 2.33357,2.66044 3.11142,3.69313 l 0.32439,0.43067 v 16.33937 16.33937 h -15.09275 -15.09275 z m 1.41194,-16.6434 c 0.0247,-4.78445 0.0288,-8.89953 0.009,-9.20294 -0.025,-0.38603 -0.0375,0.3026 -0.0421,2.32185 -0.004,1.57885 -0.0135,5.93864 -0.022,9.68841 -0.009,3.74978 -0.01,6.59932 -0.003,6.3323 0.007,-0.26701 0.033,-4.37984 0.0576,-9.13962 z"
     id="path6581"
     inkscape:connector-curvature="0" />
  <path
     style="fill:#000000;stroke:#000000;stroke-width:0.04221533;stroke-opacity:1"
     d="m 153.88281,170.7466 c 0,-2.05483 0.005,-2.89544 0.0114,-1.86803 0.006,1.02742 0.006,2.70864 0,3.73606 -0.006,1.02741 -0.0114,0.1868 -0.0114,-1.86803 z"
     id="path6583"
     inkscape:connector-curvature="0" />
  <path
     style="fill:#000000;stroke:#000000;stroke-width:0.04221533;stroke-opacity:1"
     d="m 152.51659,161.1536 0.0162,-14.95436 -0.21108,-0.0323 c -0.20687,-0.0317 -5.39244,-0.59149 -7.7254,-0.83403 -3.6683,-0.38137 -6.00543,-0.43468 -8.14756,-0.18584 -2.55534,0.29684 -4.94511,0.97314 -11.0182,3.11813 -6.00471,2.12083 -8.40357,2.76343 -12.05248,3.22857 -2.71932,0.34665 -7.06261,0.55042 -11.74641,0.55112 l -2.100217,3.1e-4 v -0.64795 -0.64794 l 2.311287,-0.0291 c 8.73583,-0.10982 11.77932,-0.38784 15.98906,-1.46056 2.24639,-0.57243 3.9705,-1.1201 7.76762,-2.4674 3.69101,-1.30966 4.00671,-1.4317 6.10651,-2.36058 l 0.90123,-0.39867 1.24536,-0.0213 c 0.97063,-0.0166 1.37464,-0.041 1.83146,-0.11051 1.26319,-0.19233 1.86586,-0.23133 3.59321,-0.23255 1.67858,-0.001 2.11971,0.021 4.17239,0.20937 0.62309,0.0572 1.70592,0.13272 2.40627,0.16785 2.4833,0.12456 4.06024,0.29117 6.40255,0.67645 0.77782,0.12794 1.46646,0.24318 1.53031,0.2561 0.0948,0.0192 0.11609,0.0461 0.11609,0.14677 0,0.0678 0.0157,0.12329 0.035,0.12329 0.0193,0 0.0335,-0.0427 0.0317,-0.095 -0.003,-0.0778 0.0223,-0.0974 0.13882,-0.10859 0.14016,-0.0134 0.14193,-0.0115 0.12457,0.1372 -0.01,0.0829 -0.002,0.1508 0.0161,0.1508 0.0186,0 0.0337,-0.0475 0.0337,-0.10554 0,-0.12628 -0.0312,-0.12607 0.46436,-0.003 0.27665,0.0686 0.36177,0.10272 0.2744,0.10997 -0.0696,0.006 0.035,0.0249 0.23252,0.0426 1.68545,0.1505 6.1057,1.82007 10.63793,4.01804 2.48561,1.20543 4.28417,2.2628 5.27692,3.10226 0.75014,0.63433 1.41516,1.10868 1.55796,1.1113 0.0893,0.002 0.98409,0.64499 1.53491,1.10363 1.17938,0.98202 4.16817,3.77088 4.16817,3.88935 0,0.0271 -0.2416,-0.18793 -0.53687,-0.47781 l -0.53688,-0.52706 0.54743,0.56981 c 0.30108,0.31339 0.62341,0.64594 0.71628,0.73899 0.764,0.7655 2.66254,2.97728 3.58193,4.17293 l 0.44964,0.58474 v 6.22248 6.22248 h -15.07655 -15.07655 z m 1.37732,12.17869 c -0.008,-0.15673 -0.0148,-0.0285 -0.0148,0.28495 0,0.31345 0.007,0.44168 0.0148,0.28496 0.008,-0.15673 0.008,-0.41319 0,-0.56991 z m 4e-5,-5.80461 c -0.008,-0.16833 -0.0146,-0.0306 -0.0146,0.30606 0,0.33667 0.007,0.4744 0.0146,0.30606 0.008,-0.16833 0.008,-0.44379 0,-0.61212 z m 0.0829,-11.18706 c -0.0101,-0.0522 -0.0183,-0.01 -0.0183,0.095 0,0.10449 0.008,0.14723 0.0183,0.095 0.0101,-0.0522 0.0101,-0.13773 0,-0.18997 z"
     id="path6585"
     inkscape:connector-curvature="0" />
  <rect
     style="fill:#ff0000;stroke:#ff0000;stroke-opacity:1"
     id="rect6587"
     width="2.388057"
     height="2.4477656"
     x="149.61194"
     y="145.07463"
     ry="0.26865673" />
  <path
     style="fill:#ff0000;stroke:#ff0000;stroke-width:0.05970149;stroke-opacity:1"
     d="m 93.324786,152.03141 c -3.431343,-0.0173 -6.245522,-0.0378 -6.253731,-0.0455 -0.0082,-0.008 -0.01493,-0.29559 -0.01493,-0.63981 v -0.62585 l 6.402985,0.0139 c 5.783422,0.0126 11.80607,-0.037 12.82089,-0.10548 0.21343,-0.0144 0.87164,-0.0418 1.46269,-0.0609 3.93582,-0.12701 6.7506,-0.48719 9.85074,-1.26051 2.34961,-0.58611 3.60093,-0.97975 7.7015,-2.42279 3.34449,-1.17697 4.61854,-1.66522 6.26655,-2.40152 l 0.97071,-0.43369 1.27689,-0.0416 c 0.70229,-0.0229 1.67988,-0.0956 2.17241,-0.16167 1.80006,-0.24141 4.62699,-0.24075 7.28359,0.002 0.72238,0.0659 1.86417,0.1486 2.53731,0.18371 1.93365,0.10088 5.05223,0.39595 5.34328,0.50558 0.0328,0.0124 -0.28955,0.0247 -0.71642,0.0274 -0.6679,0.004 -0.80367,0.0217 -0.97374,0.12542 -0.24202,0.14756 -0.36954,0.43478 -0.36954,0.83237 0,0.16524 -0.007,0.30041 -0.0149,0.30039 -0.008,-2e-5 -1.02239,-0.10807 -2.25374,-0.24011 -4.88638,-0.52398 -6.92093,-0.64982 -8.78307,-0.54324 -3.43247,0.19644 -5.10522,0.6292 -12.8268,3.3184 -4.27492,1.48883 -6.11481,2.05667 -8.13887,2.51185 -2.43861,0.54841 -5.03354,0.85631 -8.78857,1.04281 -1.48739,0.0739 -6.6909,0.18176 -7.8806,0.1634 -0.459693,-0.007 -3.643275,-0.0271 -7.074619,-0.0444 z"
     id="path6589"
     inkscape:connector-curvature="0" />
  <path
     style="fill:#ff0000;stroke:#ff0000;stroke-width:0.47761193;stroke-opacity:1"
     d="M 11.887925,348.47124 C 9.0003251,346.99862 5.1250673,342.99851 3.36466,339.67337 0.19986168,333.69554 0.36864048,336.67442 0.0817738,281.73159 -0.06155157,254.28085 0.02550213,220.96741 0.27522655,207.70174 c 0.42495876,-22.57433 0.52131076,-24.36417 1.50411135,-27.9403 4.5555916,-16.5765 17.8437181,-29.78017 34.1279111,-33.911 5.248863,-1.33148 16.050403,-2.32645 20.307287,-1.87058 1.691468,0.18114 5.28331,1.16137 7.98187,2.17828 7.080812,2.6683 13.152946,4.1819 18.203639,4.53762 4.452863,0.31361 6.166396,1.12538 2.375532,1.12538 -4.997827,0 -10.483806,-1.12246 -18.733741,-3.83304 -4.728358,-1.55354 -9.779104,-2.95918 -11.22388,-3.12364 -3.312043,-0.37701 -13.130835,0.87303 -18.949964,2.41254 -8.417724,2.22699 -14.094815,5.53254 -20.473431,11.92087 -9.1237753,9.13767 -12.6285019,17.00103 -13.613763,30.54443 -0.6364121,8.74813 -0.6463117,131.87774 -0.011163,138.84465 0.648342,7.11164 2.6586466,11.981 6.5547522,15.87694 2.2174888,2.21739 3.7967428,3.0912 7.5681958,4.18752 l 2.865671,0.83303 -2.38806,0.0274 c -1.573752,0.0181 -3.102166,-0.33678 -4.482269,-1.0406 z"
     id="path6591"
     inkscape:connector-curvature="0" />
  <rect
     style="fill:#ff0000;stroke:#ff0000;stroke-opacity:1"
     id="rect6597"
     width="1.7313433"
     height="4.0597014"
     x="148.35822"
     y="492.89551"
     ry="0.268657" />
  <path
     style="fill:#ff0000;stroke:#ff0000;stroke-width:0.23880596;stroke-opacity:1"
     d="m 61.734168,511.74782 c -9.111598,-0.81134 -17.263512,-7.21219 -20.292027,-15.93321 -1.355432,-3.90316 -1.25676,0.7137 -1.339646,-62.68219 l -0.07611,-58.20895 h 0.601699 c 0.519318,0 0.60191,0.10626 0.603247,0.77612 8.52e-4,0.42686 0.156567,17.00298 0.346036,36.83582 0.660557,69.14471 0.872475,78.20494 1.952189,83.46269 1.103748,5.37478 6.730093,11.0634 13.103211,13.24824 4.074361,1.39678 10.491606,1.63057 40.832743,1.48759 24.52797,-0.11558 28.86703,-0.24289 34.24304,-1.0047 3.50986,-0.49737 5.34812,-0.99144 7.63611,-2.05234 2.52691,-1.1717 4.90209,-3.49395 7.42634,-7.26088 0.96816,-1.44478 1.76969,-2.6383 1.78118,-2.65227 0.0115,-0.014 0.36228,-0.0903 0.77953,-0.16964 l 0.75864,-0.14424 -0.96421,1.72188 c -1.38156,2.4672 -3.31423,4.92828 -5.39926,6.87546 -1.45466,1.3585 -2.37635,1.96551 -4.69104,3.08947 -3.42673,1.66395 -5.69562,2.32406 -9.01738,2.62353 -2.93979,0.26504 -65.295775,0.25373 -68.284296,-0.0124 z"
     id="path6599"
     inkscape:connector-curvature="0" />
  <path
     style="fill:#ff0000;stroke:#ff0000;stroke-width:0.23880596;stroke-opacity:1"
     d="m 40.035756,366.60302 c 0,-4.44491 -0.07039,-9.54938 -0.156425,-11.34329 l -0.156425,-3.26163 -7.66447,-0.008 C 21.641158,351.9792 19.392029,351.74473 15.43434,350.25724 l -1.547837,-0.58175 2.353057,0.12053 c 1.765517,0.0904 2.400434,0.0439 2.542797,-0.18647 0.152228,-0.24631 0.610434,-0.25305 2.317697,-0.0341 1.170377,0.1501 6.096486,0.49563 10.94691,0.76786 4.850424,0.27223 8.839438,0.51544 8.864475,0.54048 0.02504,0.025 0.123367,5.39049 0.218507,11.92323 l 0.172984,11.8777 h -0.633588 -0.633586 z"
     id="path6601"
     inkscape:connector-curvature="0" />
</svg>
