<?xml version="1.0" encoding="UTF-8" standalone="no"?>
<svg
   xmlns:dc="http://purl.org/dc/elements/1.1/"
   xmlns:cc="http://creativecommons.org/ns#"
   xmlns:rdf="http://www.w3.org/1999/02/22-rdf-syntax-ns#"
   xmlns:svg="http://www.w3.org/2000/svg"
   xmlns="http://www.w3.org/2000/svg"
   xmlns:sodipodi="http://sodipodi.sourceforge.net/DTD/sodipodi-0.dtd"
   xmlns:inkscape="http://www.inkscape.org/namespaces/inkscape"
   aria-hidden="true"
   focusable="false"
   data-prefix="fas"
   data-icon="male"
   class="svg-inline--fa fa-male fa-w-6"
   role="img"
   viewBox="0 0 192 512"
   version="1.1"
   id="svg3725"
   sodipodi:docname="male-solid_110.svg"
   inkscape:version="0.92.5 (2060ec1f9f, 2020-04-08)">
  <metadata
     id="metadata3731">
    <rdf:RDF>
      <cc:Work
         rdf:about="">
        <dc:format>image/svg+xml</dc:format>
        <dc:type
           rdf:resource="http://purl.org/dc/dcmitype/StillImage" />
        <dc:title></dc:title>
      </cc:Work>
    </rdf:RDF>
  </metadata>
  <defs
     id="defs3729" />
  <sodipodi:namedview
     pagecolor="#ffffff"
     bordercolor="#666666"
     borderopacity="1"
     objecttolerance="10"
     gridtolerance="10"
     guidetolerance="10"
     inkscape:pageopacity="0"
     inkscape:pageshadow="2"
     inkscape:window-width="1366"
     inkscape:window-height="705"
     id="namedview3727"
     showgrid="false"
     inkscape:zoom="1.046875"
     inkscape:cx="-99.428167"
     inkscape:cy="226.76595"
     inkscape:window-x="-8"
     inkscape:window-y="-8"
     inkscape:window-maximized="1"
     inkscape:current-layer="svg3725" />
  <path
     fill="currentColor"
     d="M96 0c35.346 0 64 28.654 64 64s-28.654 64-64 64-64-28.654-64-64S60.654 0 96 0m48 144h-11.36c-22.711 10.443-49.59 10.894-73.28 0H48c-26.51 0-48 21.49-48 48v136c0 13.255 10.745 24 24 24h16v136c0 13.255 10.745 24 24 24h64c13.255 0 24-10.745 24-24V352h16c13.255 0 24-10.745 24-24V192c0-26.51-21.49-48-48-48z"
     id="path3723" />
  <rect
     style="fill:#ff0000"
     id="rect3733"
     width="1.0144672"
     height="198.15918"
     x="19.250191"
     y="153.42297"
     rx="0"
     ry="0" />
  <path
     style="fill:#ff0000;stroke-width:0.08443066"
     d="m 0.07578682,199.93823 c 0.03318251,-12.19666 0.02081277,-11.81879 0.492658,-15.04976 1.00394698,-6.87456 3.66674468,-13.7394 7.60895828,-19.61633 0.8316939,-1.23986 2.4358279,-3.34502 3.4525039,-4.53084 1.071695,-1.24999 3.77975,-3.97077 4.971384,-4.99474 0.884676,-0.7602 2.510683,-2.05522 2.5805,-2.05522 0.02027,0 0.03685,12.95588 0.03685,28.79085 v 28.79086 H 9.6317951 0.04494906 Z"
     id="path3735"
     inkscape:connector-curvature="0" />
  <path
     style="fill:#ff0000;stroke-width:0.08443066"
     d="M 0.05288163,238.29086 V 211.27305 H 9.6357616 19.218642 v 27.01781 27.01781 H 9.6357616 0.05288163 Z"
     id="path3737"
     inkscape:connector-curvature="0" />
  <path
     style="fill:#ff0000;stroke-width:0.08443066"
     d="M 0.05288163,282.1948 V 265.30867 H 9.6357616 19.218642 v 16.88613 16.88614 H 9.6357616 0.05288163 Z"
     id="path3739"
     inkscape:connector-curvature="0" />
  <path
     style="fill:#ff0000;stroke-width:0.08443066"
     d="m 0.05288163,312.58984 v -13.5089 H 9.6357616 19.218642 v 13.5089 13.50891 H 9.6357616 0.05288163 Z"
     id="path3741"
     inkscape:connector-curvature="0" />
  <path
     style="fill:#ff0000;stroke-width:0.08443066"
     d="m 18.205474,351.25101 c -1.269094,-0.3265 -2.765706,-0.83833 -3.830769,-1.31008 C 7.6383897,346.95716 2.6086855,341.04265 0.80904221,333.98883 0.29064814,331.95696 0.12863707,330.68347 0.0764882,328.23062 L 0.03116352,326.09875 H 9.6249021 19.218642 v 12.70681 c 0,6.98875 -0.0095,12.70421 -0.02111,12.70103 -0.01161,-0.003 -0.458036,-0.1182 -0.99206,-0.25558 z"
     id="path3743"
     inkscape:connector-curvature="0" />
  <rect
     style="fill:#ff0000"
     id="rect3755"
     width="5.1343284"
     height="6.029851"
     x="14.328359"
     y="209.49254" />
  <rect
     style="fill:#ff0000"
     id="rect3757"
     width="15.701492"
     height="3.522388"
     x="0.059701491"
     y="210.14925" />
  <rect
     style="fill:#ff0000"
     id="rect3759"
     width="0.89552242"
     height="7.1641793"
     x="18.746269"
     y="154.08955" />
  <rect
     style="fill:#ff0000"
     id="rect3761"
     width="0.65671641"
     height="0.77611941"
     x="18.38806"
     y="154.98508" />
  <rect
     style="fill:#ff0000"
     id="rect3763"
     width="0.59701538"
     height="0.89552307"
     x="19.044777"
     y="154.08955" />
  <rect
     style="fill:#ff0000"
     id="rect3765"
     width="1.6716418"
     height="27.343283"
     x="17.97015"
     y="160.47762" />
  <rect
     style="fill:#ff0000"
     id="rect3767"
     width="3.3432834"
     height="22.865673"
     x="16.119404"
     y="186.62686" />
  <rect
     style="fill:#ff0000"
     id="rect3769"
     width="2.6268656"
     height="24.179104"
     x="17.134329"
     y="215.10448" />
  <rect
     style="fill:#ff0000"
     id="rect3771"
     width="3.3432837"
     height="30.626865"
     x="16.298508"
     y="238.74626" />
  <rect
     style="fill:#ff0000"
     id="rect3773"
     width="17.731344"
     height="2.3880596"
     x="0.059701491"
     y="263.88058" />
  <rect
     style="fill:#ff0000"
     id="rect3775"
     width="1.4925373"
     height="24.238806"
     x="18.208956"
     y="268.83582" />
  <rect
     style="fill:#ff0000"
     id="rect3777"
     width="3.4626865"
     height="25.492537"
     x="16.238806"
     y="292.11942" />
  <rect
     style="fill:#ff0000"
     id="rect3779"
     width="17.97015"
     height="2.5671642"
     x="0.17910448"
     y="297.67163" />
  <rect
     style="fill:#ff0000"
     id="rect3781"
     width="2.5671642"
     height="28.716417"
     x="17.014925"
     y="316.17911" />
  <rect
     style="fill:#ff0000"
     id="rect3783"
     width="18.268658"
     height="1.4925373"
     x="0.059701491"
     y="325.43283" />
  <rect
     style="fill:#ff0000"
     id="rect3785"
     width="1.0746269"
     height="6.8059702"
     x="19.190031"
     y="344.77618" />
  <rect
     style="fill:#ff0000"
     id="rect3795"
     width="0.74226987"
     height="4.5970793"
     x="19.522388"
     y="346.98508" />
  <rect
     style="fill:#ff0000"
     id="rect3797"
     width="0.33235741"
     height="6.8059692"
     x="19.190031"
     y="344.77618" />
  <rect
     style="fill:#ff0000"
     id="rect3799"
     width="2.5671642"
     height="5.2537313"
     x="17.074627"
     y="345.49252" />
</svg>
